<svg width="298" height="344" viewBox="0 0 298 344" fill="none" xmlns="http://www.w3.org/2000/svg">
<mask id="mask0_57_1654" style="mask-type:luminance" maskUnits="userSpaceOnUse" x="0" y="0" width="298" height="344">
<path d="M297.333 0H0V344H297.333V0Z" fill="white"/>
</mask>
<g mask="url(#mask0_57_1654)">
<mask id="mask1_57_1654" style="mask-type:luminance" maskUnits="userSpaceOnUse" x="1" y="48" width="295" height="296">
<path d="M1.58862 48.9482H295.953V343.313H1.58862V48.9482Z" fill="white"/>
</mask>
<g mask="url(#mask1_57_1654)">
<mask id="mask2_57_1654" style="mask-type:luminance" maskUnits="userSpaceOnUse" x="1" y="48" width="295" height="296">
<path d="M148.771 48.9482C67.4845 48.9482 1.58862 114.844 1.58862 196.131C1.58862 277.417 67.4845 343.313 148.771 343.313C230.057 343.313 295.953 277.417 295.953 196.131C295.953 114.844 230.057 48.9482 148.771 48.9482Z" fill="white"/>
</mask>
<g mask="url(#mask2_57_1654)">
<mask id="mask3_57_1654" style="mask-type:luminance" maskUnits="userSpaceOnUse" x="1" y="48" width="296" height="297">
<path d="M296 48.0005H1.3335V344H296V48.0005Z" fill="white"/>
</mask>
<g mask="url(#mask3_57_1654)">
<mask id="mask4_57_1654" style="mask-type:luminance" maskUnits="userSpaceOnUse" x="1" y="48" width="295" height="296">
<path d="M1.58862 48.9482H295.953V343.313H1.58862V48.9482Z" fill="white"/>
</mask>
<g mask="url(#mask4_57_1654)">
<mask id="mask5_57_1654" style="mask-type:luminance" maskUnits="userSpaceOnUse" x="1" y="48" width="295" height="296">
<path d="M148.771 48.9482C67.4845 48.9482 1.58862 114.844 1.58862 196.131C1.58862 277.417 67.4845 343.313 148.771 343.313C230.057 343.313 295.953 277.417 295.953 196.131C295.953 114.844 230.057 48.9482 148.771 48.9482Z" fill="white"/>
</mask>
<g mask="url(#mask5_57_1654)">
<path d="M1.58862 48.9482V343.313H295.953V48.9482H1.58862Z" fill="url(#paint0_linear_57_1654)"/>
</g>
</g>
</g>
</g>
</g>
<mask id="mask6_57_1654" style="mask-type:luminance" maskUnits="userSpaceOnUse" x="80" y="1" width="138" height="111">
<path d="M80.448 1.05225H217.766V112H80.448V1.05225Z" fill="white"/>
</mask>
<g mask="url(#mask6_57_1654)">
<path d="M-51.3801 1.07324H480.427V111.328H-51.3801V1.07324Z" fill="#F2F2F2"/>
</g>
<mask id="mask7_57_1654" style="mask-type:luminance" maskUnits="userSpaceOnUse" x="112" y="330" width="12" height="14">
<path d="M112 330.667H124V343.11H112V330.667Z" fill="white"/>
</mask>
<g mask="url(#mask7_57_1654)">
<path d="M122.792 331.391V340.87C122.792 341.167 122.734 341.448 122.62 341.719C122.505 341.995 122.349 342.234 122.141 342.443C121.932 342.646 121.693 342.807 121.422 342.922C121.151 343.031 120.865 343.089 120.573 343.089H115.536C115.24 343.089 114.958 343.031 114.687 342.922C114.417 342.807 114.177 342.646 113.969 342.438C113.76 342.234 113.599 341.99 113.49 341.719C113.375 341.448 113.318 341.167 113.318 340.87V331.391H122.792Z" fill="black"/>
</g>
<mask id="mask8_57_1654" style="mask-type:luminance" maskUnits="userSpaceOnUse" x="169" y="330" width="13" height="14">
<path d="M169.333 330.667H181.333V343.11H169.333V330.667Z" fill="white"/>
</mask>
<g mask="url(#mask8_57_1654)">
<path d="M180.01 331.391V340.87C180.01 341.167 179.953 341.448 179.844 341.719C179.729 341.995 179.568 342.234 179.359 342.443C179.151 342.646 178.912 342.807 178.641 342.922C178.37 343.031 178.089 343.089 177.792 343.089H172.755C172.464 343.089 172.182 343.031 171.906 342.922C171.635 342.807 171.396 342.646 171.188 342.438C170.984 342.234 170.823 341.99 170.708 341.719C170.599 341.448 170.542 341.167 170.542 340.87V331.391H180.01Z" fill="black"/>
</g>
<path d="M198.615 196.573L191.167 329.443C191.146 329.839 191.089 330.229 190.99 330.615C190.891 331 190.761 331.375 190.594 331.735C190.427 332.094 190.229 332.438 189.995 332.761C189.761 333.078 189.5 333.38 189.214 333.651C188.927 333.927 188.615 334.167 188.281 334.38C187.943 334.594 187.594 334.776 187.224 334.922C186.854 335.068 186.474 335.182 186.083 335.255C185.698 335.328 185.302 335.37 184.906 335.37H108.432C108.031 335.37 107.641 335.333 107.25 335.255C106.86 335.182 106.479 335.073 106.11 334.922C105.745 334.776 105.391 334.594 105.057 334.38C104.724 334.167 104.412 333.927 104.12 333.651C103.833 333.38 103.573 333.083 103.339 332.761C103.11 332.438 102.906 332.094 102.74 331.735C102.573 331.375 102.443 331 102.344 330.615C102.25 330.229 102.193 329.839 102.167 329.443L94.7241 196.573C94.6981 196.146 94.7189 195.719 94.7814 195.297C94.8439 194.875 94.9481 194.464 95.0939 194.063C95.2397 193.662 95.4272 193.281 95.6512 192.917C95.8751 192.552 96.1356 192.219 96.4272 191.906C96.7189 191.594 97.0418 191.318 97.3908 191.073C97.7397 190.828 98.1147 190.62 98.5053 190.453C98.896 190.281 99.3022 190.156 99.7189 190.068C100.136 189.985 100.557 189.943 100.985 189.943H192.36C192.787 189.943 193.208 189.985 193.625 190.073C194.042 190.156 194.448 190.287 194.839 190.453C195.229 190.625 195.599 190.833 195.948 191.078C196.297 191.323 196.62 191.599 196.912 191.906C197.203 192.219 197.464 192.557 197.688 192.917C197.912 193.281 198.094 193.662 198.245 194.063C198.391 194.464 198.495 194.875 198.557 195.302C198.62 195.724 198.636 196.146 198.615 196.573Z" fill="#0070AB"/>
<path d="M124.349 279.271C123.891 278.484 123.661 277.635 123.661 276.724C123.661 275.812 123.891 274.964 124.349 274.177L125.854 271.568L129.26 273.536V259.078L116.75 266.318L120.156 268.281L118.651 270.885C118.396 271.328 118.172 271.786 117.979 272.26C117.781 272.729 117.62 273.214 117.484 273.703C117.354 274.198 117.255 274.698 117.188 275.203C117.12 275.708 117.089 276.219 117.089 276.729C117.089 277.24 117.12 277.75 117.188 278.255C117.255 278.76 117.354 279.26 117.484 279.75C117.62 280.245 117.781 280.729 117.974 281.198C118.172 281.672 118.396 282.13 118.651 282.568C118.906 283.01 119.188 283.438 119.5 283.839C119.807 284.245 120.146 284.63 120.505 284.99C120.865 285.349 121.25 285.688 121.651 286C122.057 286.307 122.479 286.594 122.922 286.849C123.365 287.104 123.818 287.328 124.292 287.521C124.76 287.719 125.245 287.88 125.734 288.016C126.229 288.146 126.729 288.245 127.234 288.312C127.74 288.38 128.245 288.411 128.755 288.411H144.708V281.823H128.755C127.844 281.828 126.995 281.604 126.208 281.146C125.422 280.688 124.802 280.062 124.349 279.271Z" fill="white"/>
<path d="M175.005 270.891L168.234 259.058L162.521 262.334L169.297 274.177C169.521 274.563 169.688 274.974 169.802 275.407C169.917 275.839 169.974 276.276 169.974 276.724C169.974 277.167 169.917 277.61 169.797 278.037C169.682 278.469 169.51 278.881 169.292 279.266C169.068 279.651 168.797 280 168.484 280.318C168.167 280.636 167.818 280.901 167.427 281.125C167.042 281.349 166.635 281.521 166.203 281.636C165.776 281.75 165.333 281.808 164.891 281.808H161.031V277.875L148.526 285.104L161.031 292.334V288.396H164.891C165.401 288.396 165.906 288.365 166.412 288.297C166.917 288.229 167.417 288.131 167.906 288C168.401 287.865 168.88 287.703 169.349 287.506C169.823 287.313 170.276 287.089 170.719 286.834C171.162 286.578 171.583 286.292 171.99 285.985C172.391 285.672 172.776 285.339 173.135 284.974C173.495 284.615 173.828 284.235 174.141 283.828C174.448 283.422 174.734 283 174.99 282.558C175.24 282.115 175.469 281.662 175.662 281.188C175.859 280.719 176.021 280.235 176.151 279.745C176.287 279.25 176.385 278.75 176.453 278.245C176.516 277.74 176.552 277.235 176.552 276.724C176.552 276.214 176.521 275.703 176.453 275.198C176.385 274.693 176.287 274.193 176.156 273.703C176.026 273.209 175.859 272.724 175.667 272.256C175.474 271.782 175.25 271.328 174.995 270.886L175.005 270.891Z" fill="white"/>
<path d="M151.24 242.854L154.562 248.61L151.156 250.573L163.651 257.797V243.344L160.245 245.308L156.927 239.552C156.672 239.11 156.385 238.688 156.078 238.282C155.766 237.875 155.432 237.495 155.068 237.131C154.708 236.771 154.328 236.438 153.922 236.125C153.516 235.813 153.094 235.532 152.651 235.276C152.214 235.021 151.755 234.797 151.286 234.599C150.812 234.407 150.333 234.245 149.839 234.11C149.349 233.979 148.849 233.881 148.344 233.813C147.839 233.745 147.328 233.714 146.823 233.714C146.312 233.714 145.802 233.745 145.297 233.813C144.792 233.881 144.292 233.979 143.802 234.11C143.307 234.245 142.828 234.407 142.354 234.599C141.885 234.797 141.427 235.021 140.99 235.276C140.547 235.532 140.125 235.813 139.719 236.125C139.313 236.438 138.932 236.771 138.573 237.131C138.208 237.495 137.875 237.875 137.562 238.282C137.255 238.688 136.969 239.11 136.714 239.552L128.219 254.282L133.917 257.578L142.417 242.844C142.87 242.058 143.49 241.438 144.281 240.985C145.068 240.526 145.917 240.302 146.823 240.302C147.734 240.302 148.578 240.526 149.365 240.985C150.156 241.438 150.776 242.058 151.229 242.844L151.24 242.854Z" fill="white"/>
<path d="M198.62 189.948H94.7085L101.86 162.573C102.151 161.464 102.61 160.427 103.245 159.474C103.875 158.516 104.646 157.688 105.552 156.985C106.458 156.282 107.453 155.75 108.542 155.375C109.625 155.006 110.74 154.823 111.886 154.823H181.438C182.583 154.823 183.703 155.006 184.787 155.375C185.87 155.745 186.865 156.282 187.776 156.985C188.682 157.688 189.453 158.516 190.083 159.469C190.714 160.427 191.177 161.464 191.469 162.573L198.62 189.948Z" fill="#0070AB"/>
<path d="M107.729 179.891L111.589 165.13C111.625 164.974 111.729 164.896 111.885 164.896H181.443C181.599 164.896 181.703 164.974 181.745 165.13L185.599 179.891H107.729Z" fill="black" fill-opacity="0.52"/>
<path d="M196.042 192.735C195.25 191.891 194.281 191.38 193.135 191.203C192.875 191.167 192.615 191.146 192.354 191.146H100.979C100.635 191.146 100.292 191.182 99.9532 191.25C99.6146 191.318 99.2865 191.422 98.9688 191.557C98.6563 191.698 98.3542 191.865 98.073 192.063C97.7865 192.261 97.5261 192.485 97.2917 192.735C97.0521 192.985 96.8438 193.261 96.6615 193.552C96.4792 193.849 96.3334 194.156 96.2136 194.479C96.0938 194.807 96.0105 195.136 95.9584 195.479C95.9063 195.823 95.8907 196.167 95.9115 196.511L96.4428 205.969H166.688L160.422 317.703C160.385 318.354 160.229 318.969 159.958 319.557C159.682 320.146 159.313 320.662 158.839 321.11C158.37 321.552 157.833 321.896 157.229 322.136C156.63 322.375 156.005 322.495 155.354 322.495H102.974L103.365 329.375C103.401 330.021 103.557 330.641 103.828 331.229C104.104 331.813 104.474 332.333 104.948 332.776C105.417 333.224 105.953 333.568 106.557 333.807C107.156 334.047 107.781 334.167 108.432 334.167H184.901C185.547 334.167 186.172 334.047 186.776 333.807C187.375 333.568 187.912 333.224 188.385 332.776C188.854 332.333 189.229 331.813 189.5 331.229C189.776 330.641 189.932 330.021 189.969 329.375L197.412 196.505C197.5 195.047 197.042 193.792 196.042 192.735Z" fill="black" fill-opacity="0.16"/>
<path d="M89.9583 179.469H203.37C203.74 179.469 204.104 179.505 204.469 179.578C204.828 179.651 205.182 179.755 205.521 179.896C205.859 180.036 206.188 180.214 206.49 180.417C206.797 180.625 207.083 180.854 207.344 181.115C207.604 181.38 207.839 181.661 208.042 181.969C208.245 182.276 208.422 182.599 208.562 182.943C208.703 183.281 208.807 183.635 208.88 183.995C208.953 184.359 208.99 184.724 208.99 185.094V196.031C208.99 196.396 208.953 196.766 208.88 197.125C208.807 197.49 208.703 197.839 208.562 198.182C208.422 198.521 208.245 198.849 208.042 199.151C207.839 199.458 207.604 199.745 207.344 200.005C207.083 200.266 206.797 200.5 206.49 200.703C206.188 200.911 205.859 201.083 205.521 201.224C205.182 201.365 204.828 201.474 204.469 201.547C204.104 201.615 203.74 201.651 203.37 201.651H89.9583C89.5885 201.651 89.224 201.615 88.8646 201.547C88.5 201.474 88.151 201.365 87.8073 201.224C87.4687 201.083 87.1458 200.911 86.8385 200.703C86.5313 200.5 86.25 200.266 85.9896 200.005C85.724 199.745 85.4948 199.458 85.2865 199.151C85.0833 198.849 84.9115 198.521 84.7708 198.182C84.6302 197.839 84.5208 197.49 84.4479 197.125C84.3802 196.766 84.3438 196.396 84.3438 196.031V185.094C84.3438 184.724 84.3802 184.359 84.4479 183.995C84.5208 183.635 84.6302 183.281 84.7708 182.943C84.9115 182.599 85.0833 182.276 85.2865 181.969C85.4948 181.661 85.724 181.38 85.9896 181.115C86.25 180.854 86.5313 180.625 86.8385 180.417C87.1458 180.214 87.4687 180.036 87.8073 179.896C88.151 179.755 88.5 179.651 88.8646 179.578C89.224 179.505 89.5885 179.469 89.9583 179.469Z" fill="#0070AB"/>
<path d="M89.6719 183.615H145.745C145.917 183.615 146.089 183.651 146.25 183.719C146.417 183.787 146.557 183.88 146.682 184.005C146.807 184.13 146.901 184.276 146.969 184.438C147.036 184.599 147.073 184.771 147.073 184.948V187.537C147.073 187.714 147.036 187.886 146.969 188.047C146.901 188.208 146.807 188.354 146.682 188.479C146.557 188.604 146.417 188.698 146.25 188.766C146.089 188.833 145.917 188.87 145.745 188.87H89.6719C89.4948 188.87 89.3281 188.833 89.1615 188.766C89 188.698 88.8594 188.604 88.7344 188.479C88.6094 188.354 88.5104 188.208 88.4427 188.047C88.375 187.886 88.3438 187.714 88.3438 187.537V184.948C88.3438 184.771 88.375 184.599 88.4427 184.438C88.5104 184.276 88.6094 184.13 88.7344 184.005C88.8594 183.88 89 183.787 89.1615 183.719C89.3281 183.651 89.4948 183.615 89.6719 183.615Z" fill="white" fill-opacity="0.1"/>
<path d="M152.458 183.615H160.88C161.052 183.615 161.224 183.651 161.386 183.719C161.552 183.787 161.693 183.88 161.818 184.005C161.943 184.13 162.037 184.276 162.104 184.438C162.172 184.599 162.208 184.771 162.208 184.948V187.537C162.208 187.714 162.172 187.886 162.104 188.047C162.037 188.208 161.943 188.354 161.818 188.479C161.693 188.604 161.552 188.698 161.386 188.766C161.224 188.833 161.052 188.87 160.88 188.87H152.458C152.281 188.87 152.11 188.833 151.948 188.766C151.787 188.698 151.641 188.604 151.516 188.479C151.391 188.354 151.297 188.208 151.229 188.047C151.162 187.886 151.13 187.714 151.13 187.537V184.948C151.13 184.771 151.162 184.599 151.229 184.438C151.297 184.276 151.391 184.13 151.516 184.005C151.641 183.88 151.787 183.787 151.948 183.719C152.11 183.651 152.281 183.615 152.458 183.615Z" fill="white" fill-opacity="0.1"/>
<path d="M114.24 68.0003C113.735 68.4639 113.38 69.0212 113.188 69.6774C113.156 69.7816 113.031 70.0003 112.927 69.9795C112.818 69.9535 112.729 69.8962 112.662 69.8024C112.328 69.4274 112.193 68.8441 111.729 68.6358C111.167 68.3858 110.422 68.1514 110.281 67.5472C110.104 66.818 110.906 66.1722 110.886 65.417C110.854 65.2139 110.839 65.0055 110.828 64.8024C110.86 64.3649 111.24 64.0472 111.552 63.7503C112.151 63.167 112.589 62.4847 112.865 61.6983C112.927 61.4535 113.031 61.2347 113.193 61.0368C113.333 60.9066 113.495 60.8128 113.672 60.7555C115.214 60.1566 116.776 60.0889 118.36 60.5576C118.464 60.5837 118.563 60.6305 118.656 60.6826C119.057 60.9535 118.985 61.5576 118.865 62.0264L116.266 62.2972C116.458 62.5003 116.693 62.6201 116.964 62.6722C117.12 62.6618 117.271 62.667 117.427 62.6826C117.703 62.7503 117.88 63.0368 117.938 63.3128C118.063 63.8493 117.891 64.4066 117.787 64.9483C117.682 65.4899 117.672 66.1097 118.037 66.5264C118.115 66.6201 118.224 66.7399 118.167 66.8493C118.141 66.891 118.11 66.9274 118.063 66.9483C117.511 67.2972 116.927 67.5889 116.313 67.8233C116.151 67.891 115.99 67.9274 115.818 67.9326C115.578 67.9326 115.36 67.8024 115.125 67.7555C114.797 67.7243 114.505 67.8076 114.24 68.0003Z" fill="#FFB954"/>
<path d="M113.87 67.6199C114.448 67.396 115.047 67.3178 115.662 67.3908C115.802 67.4064 115.974 67.422 116.057 67.3074C116.146 67.1356 116.104 67.0106 115.932 66.9272C115.797 66.8647 115.651 66.8283 115.5 66.8231C115.005 66.7397 114.636 66.4793 114.391 66.0366C114.37 66.0001 114.354 65.9637 114.354 65.922C114.365 65.8803 114.38 65.8439 114.401 65.8126L114.995 64.9428C114.729 64.9168 114.474 64.8439 114.234 64.7293C113.974 64.5991 113.833 64.3856 113.818 64.0939C113.818 63.7397 114.151 63.4793 114.479 63.3491C115.047 63.1303 115.62 63.1251 116.188 63.3387C116.271 63.2866 116.318 63.2085 116.333 63.1147C116.344 63.0158 116.323 62.9324 116.261 62.8543C116.13 62.7189 115.969 62.6303 115.787 62.5835L115.094 62.3543C114.927 62.297 114.724 62.1772 114.781 62.0001C114.813 61.8908 114.938 61.8491 115.042 61.8178L115.969 61.5626C115.589 61.3751 115.136 61.4845 114.729 61.5991C114.292 61.7241 113.823 61.8647 113.542 62.2189C113.219 62.6251 113.224 63.1981 113.318 63.7085C113.333 63.771 113.333 63.8283 113.318 63.8856C113.281 64.0001 113.141 64.0418 113.063 64.1199C112.854 64.3178 112.948 64.6668 113.115 64.896C113.281 65.1251 113.505 65.3387 113.537 65.6199C113.537 65.922 113.417 66.172 113.182 66.3595C112.958 66.5418 112.761 66.7449 112.583 66.9689C112.37 67.3178 112.365 67.672 112.563 68.0314C112.615 68.1095 112.651 68.1876 112.677 68.2762C112.698 68.3856 112.656 68.4533 112.552 68.4845C112.5 68.4845 112.453 68.4741 112.406 68.4428L111.391 67.8856C111.281 67.8387 111.188 67.7658 111.109 67.672C110.953 67.4376 111.099 67.1147 111.313 66.9272C111.526 66.7449 111.797 66.646 112 66.4481C111.802 66.2241 111.646 65.9689 111.537 65.6876C111.422 65.3856 111.464 65.1043 111.662 64.8439C111.417 65.2449 111.318 65.6824 111.37 66.1512C111.38 66.2241 111.38 66.2918 111.37 66.3647C111.339 66.5262 111.177 66.6356 111.057 66.7501C110.755 67.0522 110.703 67.6147 111.031 67.8751C111.151 67.9585 111.276 68.021 111.412 68.0678C111.761 68.2085 112.063 68.4116 112.323 68.6772C112.453 68.8074 112.714 69.3231 112.901 69.2606C113.094 69.1928 113.141 68.6356 113.177 68.4845C113.287 68.0574 113.438 67.7866 113.87 67.6199Z" fill="black" fill-opacity="0.12"/>
<path d="M102.11 57.9011C102.62 58.3646 102.969 58.9219 103.162 59.5781C103.193 59.6823 103.318 59.9011 103.422 59.8802C103.531 59.8542 103.62 59.7969 103.688 59.7031C104.021 59.3229 104.156 58.7448 104.62 58.5365C105.182 58.2813 105.927 58.0521 106.068 57.4531C106.245 56.724 105.443 56.0781 105.464 55.3229C105.495 55.1146 105.516 54.9115 105.526 54.7031C105.49 54.2656 105.115 53.9531 104.797 53.6511C104.198 53.0729 103.761 52.3906 103.485 51.6042C103.427 51.3594 103.318 51.1354 103.156 50.9375C103.016 50.8125 102.86 50.7188 102.677 50.6563C101.136 50.0573 99.5731 49.9948 97.9897 50.4636C97.8856 50.4896 97.7866 50.5313 97.6981 50.5886C97.2918 50.8542 97.3648 51.4584 97.4845 51.9323L100.083 52.2031C99.8908 52.4011 99.6564 52.5261 99.3856 52.5729C99.2293 52.5625 99.0783 52.5677 98.922 52.5886C98.646 52.6511 98.4741 52.9427 98.4116 53.2188C98.2918 53.75 98.4585 54.3073 98.5627 54.8542C98.6668 55.3959 98.6772 56.0156 98.3127 56.4323C98.2345 56.5209 98.1252 56.6406 98.1825 56.7552C98.2085 56.7969 98.2397 56.8281 98.2866 56.849C98.8387 57.2031 99.422 57.4948 100.037 57.724C100.198 57.7917 100.36 57.8281 100.531 57.8386C100.771 57.8386 100.99 57.7084 101.224 57.6563C101.552 57.6302 101.844 57.7136 102.11 57.9011Z" fill="#D9D4B2"/>
<path d="M102.479 57.5211C101.901 57.2972 101.302 57.2242 100.688 57.292C100.547 57.3076 100.375 57.3232 100.292 57.2086C100.203 57.042 100.245 56.9117 100.417 56.8284C100.557 56.7659 100.698 56.7347 100.849 56.7242C101.344 56.6409 101.714 56.3805 101.958 55.943C101.984 55.9065 101.995 55.8649 101.995 55.8232C101.99 55.7815 101.969 55.7503 101.948 55.719L101.354 54.844C101.62 54.818 101.875 54.7451 102.115 54.6305C102.375 54.5003 102.516 54.2867 102.531 54.0003C102.531 53.6409 102.198 53.3857 101.87 53.2503C101.302 53.0315 100.734 53.0263 100.161 53.2399C100.078 53.1878 100.031 53.1149 100.021 53.0159C100.005 52.9222 100.026 52.8336 100.089 52.7607C100.219 52.6201 100.38 52.5263 100.568 52.4847L101.255 52.2503C101.422 52.193 101.63 52.0732 101.573 51.8961C101.542 51.7867 101.417 51.7451 101.313 51.719L100.385 51.4638C100.766 51.2763 101.219 51.3857 101.625 51.4951C102.063 51.6201 102.526 51.7607 102.813 52.1149C103.135 52.5211 103.125 53.094 103.031 53.6097C103.021 53.667 103.021 53.7242 103.031 53.7867C103.068 53.8961 103.208 53.943 103.292 54.0211C103.5 54.2138 103.401 54.5628 103.24 54.7972C103.073 55.0263 102.849 55.2347 102.818 55.5159C102.818 55.8232 102.932 56.068 103.172 56.2607C103.396 56.4378 103.594 56.6409 103.771 56.8649C103.984 57.219 103.995 57.5784 103.792 57.943C103.74 58.0159 103.703 58.094 103.677 58.1826C103.656 58.292 103.698 58.3597 103.802 58.3909C103.854 58.3909 103.901 58.3805 103.948 58.3492L104.964 57.792C105.073 57.7451 105.167 57.6722 105.24 57.5784C105.401 57.344 105.255 57.0159 105.042 56.8388C104.828 56.6565 104.552 56.5524 104.354 56.3545C104.552 56.1305 104.703 55.8753 104.818 55.5992C104.932 55.292 104.891 55.0107 104.693 54.7503C104.938 55.1513 105.036 55.5888 104.984 56.0576C104.974 56.1305 104.974 56.1982 104.984 56.2711C105.016 56.4378 105.172 56.542 105.297 56.6617C105.599 56.9586 105.651 57.5211 105.323 57.7867C105.203 57.8649 105.078 57.9274 104.943 57.9742C104.594 58.1149 104.292 58.3232 104.026 58.5888C103.901 58.719 103.641 59.2347 103.448 59.167C103.26 59.0992 103.214 58.542 103.177 58.3909C103.063 57.9586 102.917 57.6878 102.479 57.5211Z" fill="black" fill-opacity="0.12"/>
<path d="M122.521 31.2605C123.406 32.3438 124.505 33.1251 125.823 33.5938C126.031 33.6667 126.453 33.948 126.406 34.1615C126.339 34.3855 126.209 34.5574 126.021 34.6876C125.214 35.323 124.011 35.5365 123.542 36.4584C122.959 37.5834 122.406 39.0782 121.162 39.3022C119.656 39.573 118.432 37.8647 116.906 37.8178C116.485 37.8074 116.057 37.9272 115.641 37.8751C114.75 37.7605 114.156 36.9532 113.578 36.2761C112.464 34.9844 111.125 34.0157 109.552 33.3594C109.084 33.1667 108.584 32.9949 108.24 32.6199C107.995 32.3178 107.823 31.9792 107.719 31.6042C107.214 30.0417 106.969 28.4428 106.99 26.8022C107.016 25.1615 107.302 23.5678 107.849 22.0209C107.917 21.8074 108.016 21.6094 108.141 21.4272C108.729 20.6355 109.953 20.849 110.896 21.1459L111.162 26.4897C111.5 26.2136 111.948 25.5417 112 25.1042C112.031 24.7917 111.979 24.4636 112.073 24.1615C112.24 23.599 112.844 23.2813 113.417 23.1876C114.526 23.0105 115.636 23.4115 116.729 23.6824C117.823 23.9532 119.089 24.0522 119.969 23.3542C120.172 23.198 120.427 23.0001 120.646 23.1147C120.729 23.1772 120.792 23.2501 120.834 23.3438C121.49 24.5157 122.016 25.7397 122.417 27.0209C122.542 27.349 122.599 27.6876 122.594 28.0417C122.552 28.5261 122.276 28.9636 122.146 29.4376C122.011 29.9063 122.209 30.8751 122.521 31.2605Z" fill="#FFB954"/>
<path d="M121.698 31.969C121.307 30.7659 121.219 29.5367 121.432 28.2867C121.484 28.0002 121.526 27.6565 121.307 27.469C121.083 27.2867 120.687 27.4221 120.521 27.6773C120.349 27.9325 120.323 28.2555 120.255 28.5575C120.026 29.5523 119.453 30.2763 118.536 30.7294C118.458 30.7711 118.38 30.7919 118.292 30.7867C118.214 30.7711 118.141 30.7346 118.083 30.6773L116.37 29.37C116.255 29.9013 116.141 30.4325 115.849 30.9013C115.557 31.3648 115.052 31.719 114.51 31.6825C113.802 31.6305 113.297 30.9273 113.068 30.2398C112.682 29.0575 112.74 27.8909 113.245 26.7555C113.109 26.3961 112.589 26.344 112.271 26.5523C111.958 26.7659 111.797 27.1409 111.656 27.495L111.099 28.8752C110.964 29.2138 110.682 29.62 110.349 29.4898C110.135 29.4065 110.062 29.1513 110.01 28.9273L109.583 27.0107C109.156 27.7659 109.328 28.7034 109.516 29.5575C109.714 30.4586 109.948 31.4273 110.635 32.0419C111.427 32.7502 112.599 32.7971 113.651 32.6617C113.776 32.6357 113.901 32.6357 114.021 32.6721C114.245 32.7659 114.318 33.0367 114.474 33.2242C114.839 33.6721 115.568 33.5159 116.052 33.2086C116.542 32.8961 116.995 32.4586 117.573 32.4273C118.151 32.3909 118.672 32.7815 119.047 33.2294C119.427 33.6773 119.745 34.1773 120.214 34.5159C120.536 34.7398 120.896 34.87 121.286 34.9013C121.677 34.9325 122.047 34.8648 122.401 34.693C122.557 34.594 122.729 34.5263 122.911 34.4846C123.135 34.443 123.276 34.5367 123.323 34.7607C123.318 34.87 123.281 34.9638 123.219 35.0523L121.974 37.068C121.859 37.2867 121.703 37.469 121.505 37.6148C121.016 37.9065 120.365 37.5732 120.016 37.1148C119.672 36.6617 119.484 36.094 119.115 35.6565C118.615 36.0107 118.104 36.3648 117.521 36.5211C116.937 36.6721 116.245 36.5992 115.807 36.1617C116.604 36.7138 117.479 36.9638 118.443 36.9117C118.589 36.8961 118.729 36.8961 118.875 36.9221C119.208 37.0107 119.406 37.344 119.63 37.6044C120.203 38.2555 121.344 38.4377 121.922 37.7815C122.099 37.5523 122.24 37.3023 122.344 37.0315C122.677 36.3388 123.125 35.7398 123.698 35.2346C123.974 34.9898 125.057 34.5263 124.937 34.12C124.823 33.7138 123.698 33.568 123.391 33.4742C122.521 33.2086 121.99 32.8752 121.698 31.969Z" fill="black" fill-opacity="0.12"/>
<path d="M170.948 30.2605C173.078 31.2188 175.432 32.4949 175.943 34.7657C176.307 36.4115 175.583 38.0678 174.953 39.6303C172.505 45.7136 171.417 52.2397 169.896 58.6147C169.365 60.849 168.74 63.1511 167.255 64.9011C165.776 66.6511 163.193 67.6824 161.125 66.698C159.88 66.1095 158.828 64.849 157.453 64.9428C155.609 65.0678 154.87 67.4272 153.333 68.448C151.578 69.6095 149.24 68.823 147.302 68.0053L136.234 63.3334C133.464 62.1667 130.422 60.7292 129.344 57.922C128.104 54.6772 130.016 51.1667 131.734 48.1511C134.573 43.1772 137.036 38.0261 139.125 32.6928C140.766 28.5105 143.714 19.8126 149.406 21.7761C156.708 24.2865 163.901 27.0938 170.948 30.2605Z" fill="#D9D4B2"/>
<path d="M142.604 57.2447C141.422 56.3905 140.297 55.4687 139.047 54.6978C137.641 53.8385 136.136 53.2135 134.537 52.8176C133.219 52.4999 131.438 52.5885 131.005 53.8697C130.568 55.151 131.891 56.2864 133.042 56.9791C138.792 60.401 144.802 63.2916 151.073 65.6405C151.865 65.9374 152.755 66.2239 153.526 65.8749C154.672 65.3541 155.104 64.0832 156.417 63.8228C155.11 62.302 151.854 62.0728 150.005 61.328C147.375 60.2655 144.906 58.9062 142.604 57.2447Z" fill="black" fill-opacity="0.06"/>
<path d="M165.563 53.401C165.563 53.3854 165.563 53.3697 165.563 53.3541C166.219 48.9635 167.672 44.6875 169.073 40.5572C169.662 38.8177 170.276 37.0104 170.818 35.2343C170.839 35.1458 170.885 35.0833 170.964 35.0364C171.042 34.9895 171.12 34.9791 171.208 35.0052C171.292 35.0312 171.354 35.0885 171.391 35.1666C171.432 35.2447 171.432 35.3281 171.401 35.4114C170.854 37.2031 170.24 39.0104 169.646 40.7604C168.255 44.8645 166.813 49.1145 166.162 53.4531C166.135 53.6406 166.026 53.7239 165.839 53.7083C165.651 53.6979 165.557 53.5937 165.557 53.4062L165.563 53.401Z" fill="black"/>
<path d="M162.938 52.2501C162.938 52.2292 162.938 52.2084 162.938 52.1876C163.547 49.2084 164.443 46.2553 165.307 43.4011C166.261 40.2657 167.245 37.0209 168.828 34.0678C168.865 33.9897 168.922 33.9324 169.005 33.9063C169.089 33.8751 169.172 33.8803 169.25 33.9219C169.328 33.9636 169.375 34.0313 169.396 34.1147C169.422 34.2032 169.406 34.2813 169.36 34.3542C167.807 37.2553 166.828 40.4688 165.891 43.5834C165.026 46.4219 164.136 49.3647 163.531 52.3178C163.495 52.4949 163.386 52.573 163.203 52.5574C163.021 52.5417 162.932 52.4376 162.927 52.2605L162.938 52.2501Z" fill="black"/>
<path d="M159.599 50.3646C159.599 50.3334 159.604 50.3074 159.61 50.2761C160.88 45.9688 162.188 41.5105 163.672 37.1876C164.297 35.3542 164.948 33.5834 166.026 32.0417C166.141 31.8699 166.287 31.849 166.453 31.9688C166.62 32.0834 166.641 32.2292 166.526 32.3959C165.495 33.8803 164.86 35.6094 164.245 37.3959C162.771 41.7084 161.464 46.1615 160.198 50.4636C160.146 50.6355 160.037 50.7032 159.86 50.6824C159.688 50.6563 159.599 50.5574 159.599 50.3803V50.3646Z" fill="black"/>
<path d="M158.735 52.3544C157.646 51.6304 156.62 50.8179 155.464 50.2086C155.266 50.0783 155.047 50.0211 154.813 50.0315C154.537 50.0783 154.323 50.2242 154.172 50.4586C153.235 51.8804 152.599 53.7971 151.974 55.1981C151.938 55.2711 151.86 55.3179 151.849 55.4013C151.849 55.4898 151.875 55.5679 151.938 55.6304C153.125 57.0315 153.099 57.0106 154.521 57.9742C156.854 59.5471 159.266 60.9846 161.761 62.2867C161.985 62.4325 162.235 62.5054 162.5 62.5106C163.031 62.4742 163.333 61.8961 163.526 61.4013C163.958 60.2711 164.365 59.1356 164.745 57.9898C165.011 57.1929 165.755 55.969 164.922 55.3596C164.089 54.745 162.708 54.5315 161.776 54.0888C160.719 53.5836 159.708 53.0054 158.735 52.3544Z" fill="black"/>
<path d="M156.062 48.0052C156.062 47.9688 156.068 47.9375 156.078 47.9062L159.901 36.5938C160.599 34.526 161.391 32.1823 163 30.4375C163.141 30.3073 163.276 30.3073 163.417 30.4375C163.557 30.5625 163.568 30.7031 163.448 30.849C161.922 32.5 161.156 34.776 160.474 36.7865L156.651 48.1042C156.599 48.2708 156.49 48.3385 156.318 48.3125C156.141 48.2813 156.057 48.1823 156.062 48.0052Z" fill="black"/>
<path d="M149.276 53.7969C149.276 53.7604 149.281 53.724 149.292 53.6927L155.958 35.3177C156.813 32.9636 157.693 30.5261 158.932 28.2917C159.037 28.1354 159.172 28.099 159.333 28.1927C159.5 28.2813 159.542 28.4115 159.464 28.5833C158.245 30.7813 157.375 33.1979 156.526 35.5261L149.865 53.9011C149.792 54.0886 149.662 54.1458 149.474 54.0781C149.344 54.0313 149.276 53.9375 149.276 53.7969Z" fill="black"/>
<path d="M144.985 50.797C144.985 50.7606 144.99 50.7345 145 50.7033C146.125 47.172 147.464 43.7241 149.005 40.3595C149.214 39.9064 149.422 39.4585 149.636 39.0106C150.078 38.0574 150.542 37.0783 150.959 36.0939C151.433 34.9637 151.87 33.7866 152.297 32.6616C153.104 30.4845 153.943 28.2345 155.11 26.1772C155.209 26.0001 155.349 25.9585 155.526 26.0626C155.698 26.1616 155.74 26.3022 155.641 26.4741C154.495 28.4949 153.667 30.7189 152.865 32.8647C152.438 34.0053 152 35.1824 151.516 36.3231C151.099 37.3178 150.63 38.3074 150.188 39.2606C149.974 39.7085 149.766 40.1512 149.558 40.6095C148.026 43.9533 146.698 47.3751 145.578 50.8803C145.526 51.047 145.417 51.1199 145.24 51.0939C145.068 51.0678 144.979 50.9637 144.985 50.7866V50.797Z" fill="black"/>
<path d="M147.745 35.125C147.745 35.0729 147.755 35.026 147.781 34.9791C149.526 31.7864 151.136 28.4791 152.568 25.1354C152.651 24.9635 152.781 24.9114 152.964 24.9895C153.141 25.0677 153.198 25.1979 153.13 25.375C151.688 28.7395 150.068 32.0677 148.313 35.2708C148.235 35.4114 148.125 35.4583 147.969 35.4218C147.818 35.3802 147.745 35.2812 147.74 35.125H147.745Z" fill="black"/>
<path d="M145.328 33.068C145.323 33.0003 145.344 32.943 145.38 32.8857C146.266 31.6097 146.99 30.193 147.693 28.8232C148.547 27.1618 149.432 25.4378 150.609 23.9326C150.656 23.8597 150.724 23.818 150.813 23.8024C150.896 23.792 150.974 23.8128 151.047 23.8649C151.115 23.917 151.151 23.9899 151.162 24.0785C151.172 24.1618 151.146 24.2399 151.089 24.3076C149.948 25.766 149.078 27.4639 148.234 29.0993C147.526 30.4847 146.787 31.9222 145.88 33.2295C145.797 33.3545 145.682 33.391 145.537 33.3493C145.396 33.3024 145.323 33.2035 145.328 33.0524V33.068Z" fill="black"/>
<path d="M142.583 31.0211C143.938 28.9898 145.333 26.8857 146.771 24.8648C147.177 24.2919 147.677 23.5836 148.412 23.1565C148.589 23.0523 148.729 23.0888 148.828 23.2659C148.932 23.443 148.896 23.5836 148.719 23.6878C148.146 24.0211 147.724 24.5836 147.266 25.2242C145.839 27.2398 144.443 29.3336 143.094 31.3596L142.583 31.0211Z" fill="black"/>
<path d="M141.057 47.4431C141.057 47.4066 141.063 47.3754 141.073 47.3389C141.474 46.2452 142.156 45.2972 142.818 44.3858C143.234 43.8337 143.62 43.2556 143.974 42.6618C144.266 42.1462 144.521 41.5993 144.766 41.0472C145.224 40.042 145.693 39.0056 146.453 38.1566C146.589 38.0212 146.729 38.0212 146.87 38.1462C147.016 38.2764 147.026 38.417 146.906 38.5629C146.208 39.3441 145.776 40.292 145.313 41.3024C145.063 41.8545 144.802 42.4274 144.49 42.9639C144.125 43.5785 143.729 44.167 143.302 44.7399C142.635 45.6618 142.005 46.5316 141.641 47.5472C141.568 47.7295 141.438 47.792 141.25 47.7243C141.125 47.6722 141.057 47.5785 141.057 47.4431Z" fill="black"/>
<path d="M139.047 44.974C139.047 44.9219 139.057 44.875 139.083 44.8334C140.604 41.9063 142.188 38.9636 143.802 36.0834C143.901 35.9063 144.036 35.8646 144.214 35.9636C144.391 36.0625 144.432 36.2032 144.333 36.3803C142.724 39.2553 141.141 42.1928 139.625 45.1146C139.531 45.2917 139.391 45.3386 139.214 45.2448C139.104 45.1875 139.047 45.0938 139.047 44.974Z" fill="black"/>
<path d="M136.526 44.4951C136.526 44.417 136.552 44.3545 136.599 44.2972C137.792 42.8909 138.594 41.1566 139.37 39.4795C140.141 37.8024 140.927 36.1045 142.109 34.6618C142.234 34.5211 142.375 34.5107 142.521 34.6305C142.672 34.7555 142.688 34.8909 142.578 35.0472C141.448 36.4274 140.672 38.1097 139.922 39.7347C139.13 41.4482 138.307 43.219 137.063 44.6878C136.969 44.7972 136.859 44.8232 136.729 44.7763C136.599 44.7243 136.531 44.6305 136.531 44.4951H136.526Z" fill="black"/>
<path d="M184.016 65.542L188.141 69.4222C188.427 69.7243 188.755 69.9587 189.135 70.1305C189.49 70.2607 189.891 70.2555 190.245 70.391C191.943 71.0316 191.51 74.016 193.167 74.7503C193.797 75.0316 194.568 74.8753 195.172 75.2087C196.047 75.693 196.13 76.9847 195.651 77.8701C195.177 78.7555 194.328 79.3493 193.594 80.0264C191.099 82.3232 189.849 85.6305 188.12 88.5472C187.979 88.8232 187.786 89.0576 187.536 89.2451C186.896 89.6566 186.057 89.2607 185.406 88.8649C182.552 87.1305 179.708 85.3805 176.875 83.6149C175.245 82.5993 171.911 81.3493 172.141 78.9795C172.396 76.3805 175.089 73.2451 176.74 71.3649C178.818 68.9899 181.24 67.0472 184.016 65.542Z" fill="#FFB954"/>
<path d="M189.927 83.6566C189.63 84.1514 189.365 84.6566 189.135 85.1827C188.802 85.9795 188.594 86.8597 188.016 87.4899C187.797 87.7399 187.484 87.9535 187.162 87.9014C186.943 87.8493 186.755 87.7399 186.599 87.5733C185.88 86.8962 185.359 86.0524 184.792 85.2399C183.005 82.6774 180.854 80.4795 178.328 78.6358C177.037 77.6931 175.646 76.8493 174.573 75.667C174.677 75.4118 174.87 75.292 175.146 75.3129C175.391 75.3389 175.615 75.4118 175.823 75.542C178.422 76.9431 180.594 79.0941 183.307 80.2452C184.141 80.5993 185.057 80.8545 185.943 80.6722C186.984 80.4639 187.859 79.667 188.917 79.5681C189.354 79.5264 189.807 79.6097 190.229 79.4535C190.953 79.1879 191.271 78.3077 191.943 77.9222C192.328 77.7035 192.771 77.6827 193.182 77.5837C193.448 77.5264 194.099 77.0681 194.281 77.0941C195.12 77.2035 193.932 78.4066 193.766 78.5629C192.219 80.0368 191 81.8233 189.927 83.6566Z" fill="black" fill-opacity="0.12"/>
<path d="M135.224 88.0573L133.875 89.2083C133.755 89.2916 133.682 89.401 133.662 89.5468C133.641 89.7031 133.693 89.9218 133.672 90.0781C133.578 90.8177 132.078 89.75 131.938 90.4323C131.886 90.6979 132.057 91.1614 131.974 91.3906C131.849 91.7291 131.235 91.4114 130.75 90.9062C130.266 90.401 129.865 89.7708 129.448 89.1823C128.031 87.1875 126.271 85.5833 124.646 83.8229C124.49 83.6666 124.354 83.4948 124.235 83.3125C124 82.9791 123.974 82.6302 124.146 82.2656C124.62 81.2031 125.104 80.151 125.599 79.1146C125.886 78.5104 126.068 77.0521 127.24 77.8437C128.526 78.7135 130.38 81.0573 131.49 82.4791C132.88 84.2396 134.125 86.1041 135.224 88.0573Z" fill="#D9D4B2"/>
<path d="M127.234 86.1878C126.958 85.891 126.677 85.5993 126.396 85.3337C125.969 84.9274 125.521 84.568 125.135 84.0732C124.99 83.9066 124.885 83.7139 124.828 83.4951C124.818 83.4066 124.849 83.3389 124.917 83.2816C125.151 83.0837 125.495 83.0368 125.813 82.9587C126.823 82.7243 127.615 82.1722 128.182 81.3076C128.474 80.8701 128.708 80.3545 129.141 80.1045C129.266 80.2191 129.344 80.3545 129.385 80.516C129.406 80.6201 129.396 80.7191 129.359 80.818C129.005 81.8337 128.255 82.4118 128.036 83.5576C127.953 84.0055 127.995 84.4378 128.161 84.8597C128.396 85.4847 128.891 86.1826 129.073 86.7868C129.125 87.042 129.198 87.2868 129.292 87.5264C129.516 87.9951 129.979 88.417 130.25 88.8857C130.375 89.1357 130.484 89.3962 130.568 89.6618C130.63 89.818 130.927 90.3024 130.948 90.391C131 90.818 130.271 89.8389 130.172 89.7035C129.266 88.4691 128.286 87.2972 127.234 86.1878Z" fill="black" fill-opacity="0.12"/>
<path d="M188.609 49.7867L187.26 50.9377C187.141 51.021 187.068 51.1304 187.047 51.2762C187.026 51.4377 187.078 51.6512 187.057 51.8075C186.964 52.5471 185.464 51.4794 185.323 52.1669C185.271 52.4273 185.443 52.8908 185.359 53.1252C185.234 53.4637 184.62 53.1408 184.135 52.6356C183.646 52.1304 183.25 51.5054 182.833 50.9169C181.417 48.9169 179.656 47.3127 178.031 45.5523C177.875 45.396 177.74 45.2294 177.62 45.0419C177.385 44.7085 177.354 44.3596 177.536 43.995C178.005 42.9325 178.49 41.8804 178.984 40.8439C179.271 40.245 179.453 38.7867 180.625 39.5731C181.911 40.4429 183.766 42.7867 184.88 44.2085C186.266 45.9689 187.51 47.8335 188.609 49.7867Z" fill="#FFB954"/>
<path d="M180.62 47.9118C180.344 47.6149 180.063 47.318 179.781 47.0524C179.328 46.667 178.906 46.2451 178.521 45.7972C178.375 45.6253 178.271 45.4326 178.214 45.2191C178.203 45.1305 178.234 45.0576 178.307 45.0055C178.542 44.8024 178.88 44.7555 179.193 44.6774C180.203 44.443 180.99 43.8962 181.557 43.0264C181.854 42.5941 182.094 42.0732 182.521 41.8232C182.641 41.9378 182.724 42.0732 182.76 42.2347C182.781 42.3389 182.776 42.4378 182.734 42.5368C182.38 43.5576 181.63 44.1357 181.417 45.2764C181.328 45.7243 181.37 46.1566 181.537 46.5837C181.771 47.2087 182.271 47.9066 182.448 48.5107C182.5 48.7607 182.573 49.0107 182.672 49.2503C182.891 49.7191 183.354 50.1357 183.625 50.6097C183.755 50.8597 183.859 51.1149 183.948 51.3805C184.01 51.542 184.302 52.0212 184.323 52.1149C184.375 52.5368 183.646 51.5576 183.547 51.4222C182.646 50.193 181.667 49.0212 180.62 47.9118Z" fill="black" fill-opacity="0.12"/>
<path d="M156.599 84.3283L155.25 85.4741C155.13 85.5574 155.057 85.672 155.037 85.8179C155.016 85.9741 155.068 86.1876 155.047 86.3491C154.953 87.0887 153.453 86.021 153.318 86.7033C153.261 86.9689 153.432 87.4272 153.349 87.6616C153.224 88.0001 152.61 87.6824 152.125 87.1772C151.641 86.672 151.24 86.047 150.823 85.4533C149.406 83.4585 147.646 81.8543 146.021 80.0939C145.865 79.9376 145.729 79.7658 145.61 79.5835C145.375 79.2501 145.349 78.9012 145.521 78.5366C145.995 77.4689 146.479 76.422 146.974 75.3804C147.261 74.7866 147.443 73.3231 148.615 74.1147C149.901 74.9845 151.755 77.3231 152.865 78.7449C154.255 80.5106 155.5 82.3699 156.599 84.3283Z" fill="#FFB954"/>
<path d="M148.609 82.4481C148.333 82.1512 148.052 81.8595 147.771 81.5887C147.344 81.1877 146.896 80.8231 146.51 80.3335C146.365 80.1668 146.26 79.9741 146.203 79.7554C146.193 79.6668 146.224 79.5939 146.292 79.5418C146.526 79.3439 146.87 79.2918 147.188 79.2137C148.198 78.9845 148.99 78.4325 149.557 77.5679C149.849 77.1304 150.089 76.6147 150.521 76.3647C150.641 76.4741 150.719 76.6147 150.76 76.7762C150.781 76.8752 150.776 76.9793 150.734 77.0783C150.38 78.0939 149.63 78.672 149.411 79.8179C149.328 80.2606 149.37 80.6981 149.536 81.12C149.771 81.745 150.271 82.4429 150.448 83.047C150.5 83.3022 150.573 83.547 150.667 83.7866C150.891 84.2554 151.354 84.672 151.625 85.146C151.755 85.396 151.859 85.6564 151.943 85.922C152.005 86.0783 152.302 86.5575 152.323 86.6512C152.375 87.0731 151.646 86.0939 151.547 85.9585C150.641 84.7293 149.661 83.5575 148.609 82.4481Z" fill="black" fill-opacity="0.12"/>
<path d="M155.609 81.292L156.203 82.9639C156.234 83.1045 156.318 83.2139 156.443 83.2868C156.583 83.3597 156.797 83.3857 156.943 83.4639C157.599 83.818 156.068 84.8337 156.667 85.2139C156.891 85.3597 157.375 85.3649 157.568 85.5264C157.844 85.7607 157.323 86.2243 156.682 86.4951C156.042 86.7712 155.313 86.917 154.615 87.1045C152.245 87.7243 150.12 88.7972 147.901 89.693C147.703 89.7816 147.495 89.8493 147.276 89.8962C146.886 89.9951 146.552 89.9014 146.271 89.6045C145.443 88.7816 144.636 87.9535 143.844 87.1201C143.386 86.641 142.083 85.9535 143.24 85.141C144.505 84.2451 147.354 83.3389 149.078 82.8024C151.219 82.1305 153.396 81.6253 155.609 81.292Z" fill="#D9D4B2"/>
<path d="M151.016 88.1043C150.641 88.2553 150.271 88.4116 149.917 88.5834C149.385 88.8387 148.896 89.1303 148.297 89.3126C148.089 89.3959 147.87 89.422 147.646 89.3959C147.562 89.3751 147.505 89.323 147.484 89.2345C147.38 88.948 147.453 88.6095 147.495 88.2866C147.635 87.2553 147.401 86.323 146.797 85.4845C146.495 85.0522 146.089 84.6511 146.016 84.1564C146.161 84.0834 146.318 84.0574 146.484 84.0782C146.589 84.0939 146.677 84.1355 146.755 84.2084C147.583 84.8907 147.849 85.8074 148.844 86.4168C149.229 86.6564 149.651 86.7762 150.109 86.7709C150.776 86.7709 151.604 86.5574 152.234 86.5939C152.49 86.6355 152.745 86.6512 153.005 86.6512C153.521 86.6095 154.068 86.323 154.615 86.2397C154.891 86.2084 155.172 86.198 155.448 86.2137C155.625 86.2137 156.177 86.0991 156.266 86.1199C156.682 86.2241 155.505 86.5574 155.349 86.5991C153.87 87.0105 152.427 87.5105 151.016 88.1043Z" fill="black" fill-opacity="0.12"/>
<path d="M136.307 103.833V121.818H125.328L146.667 145.792L168 121.818H157.021V103.833H136.307Z" fill="#0070AB"/>
</g>
<defs>
<linearGradient id="paint0_linear_57_1654" x1="148.771" y1="48.9477" x2="148.771" y2="343.315" gradientUnits="userSpaceOnUse">
<stop stop-color="#9BFFF2"/>
<stop offset="0.00390625" stop-color="#9CFFF2"/>
<stop offset="0.0078125" stop-color="#9CFFF2"/>
<stop offset="0.0117188" stop-color="#9DFFF1"/>
<stop offset="0.015625" stop-color="#9EFFF1"/>
<stop offset="0.0195313" stop-color="#9FFFF1"/>
<stop offset="0.0234375" stop-color="#9FFFF1"/>
<stop offset="0.0273437" stop-color="#A0FFF1"/>
<stop offset="0.03125" stop-color="#A1FFF0"/>
<stop offset="0.0351562" stop-color="#A1FFF0"/>
<stop offset="0.0390625" stop-color="#A2FFF0"/>
<stop offset="0.0429688" stop-color="#A3FFF0"/>
<stop offset="0.046875" stop-color="#A4FFEF"/>
<stop offset="0.0507812" stop-color="#A4FFEF"/>
<stop offset="0.0546875" stop-color="#A5FFEF"/>
<stop offset="0.0585938" stop-color="#A6FFEF"/>
<stop offset="0.0625" stop-color="#A6FFEF"/>
<stop offset="0.0664063" stop-color="#A7FFEE"/>
<stop offset="0.0703125" stop-color="#A8FFEE"/>
<stop offset="0.0742188" stop-color="#A9FFEE"/>
<stop offset="0.078125" stop-color="#A9FFEE"/>
<stop offset="0.0820312" stop-color="#AAFFEE"/>
<stop offset="0.0859375" stop-color="#ABFEED"/>
<stop offset="0.0898438" stop-color="#ABFEED"/>
<stop offset="0.09375" stop-color="#ACFEED"/>
<stop offset="0.0976562" stop-color="#ADFEED"/>
<stop offset="0.101562" stop-color="#AEFEED"/>
<stop offset="0.105469" stop-color="#AEFEEC"/>
<stop offset="0.109375" stop-color="#AFFEEC"/>
<stop offset="0.113281" stop-color="#B0FEEC"/>
<stop offset="0.117188" stop-color="#B0FEEC"/>
<stop offset="0.121094" stop-color="#B1FEEB"/>
<stop offset="0.125" stop-color="#B2FEEB"/>
<stop offset="0.128906" stop-color="#B3FEEB"/>
<stop offset="0.132813" stop-color="#B3FEEB"/>
<stop offset="0.136719" stop-color="#B4FEEB"/>
<stop offset="0.140625" stop-color="#B5FEEA"/>
<stop offset="0.144531" stop-color="#B5FEEA"/>
<stop offset="0.148438" stop-color="#B6FEEA"/>
<stop offset="0.152344" stop-color="#B7FEEA"/>
<stop offset="0.15625" stop-color="#B8FEEA"/>
<stop offset="0.160156" stop-color="#B8FEE9"/>
<stop offset="0.164062" stop-color="#B9FEE9"/>
<stop offset="0.167969" stop-color="#BAFEE9"/>
<stop offset="0.171875" stop-color="#BAFEE9"/>
<stop offset="0.175781" stop-color="#BBFEE8"/>
<stop offset="0.179688" stop-color="#BCFEE8"/>
<stop offset="0.183594" stop-color="#BDFEE8"/>
<stop offset="0.1875" stop-color="#BDFEE8"/>
<stop offset="0.191406" stop-color="#BEFEE8"/>
<stop offset="0.195312" stop-color="#BFFEE7"/>
<stop offset="0.199219" stop-color="#BFFEE7"/>
<stop offset="0.203125" stop-color="#C0FEE7"/>
<stop offset="0.207031" stop-color="#C1FEE7"/>
<stop offset="0.210938" stop-color="#C2FEE7"/>
<stop offset="0.214844" stop-color="#C2FEE6"/>
<stop offset="0.21875" stop-color="#C3FEE6"/>
<stop offset="0.222656" stop-color="#C4FEE6"/>
<stop offset="0.226562" stop-color="#C5FEE6"/>
<stop offset="0.230469" stop-color="#C5FEE6"/>
<stop offset="0.234375" stop-color="#C6FEE5"/>
<stop offset="0.238281" stop-color="#C7FEE5"/>
<stop offset="0.242187" stop-color="#C7FEE5"/>
<stop offset="0.246094" stop-color="#C8FEE5"/>
<stop offset="0.25" stop-color="#C9FEE4"/>
<stop offset="0.253906" stop-color="#CAFDE4"/>
<stop offset="0.257812" stop-color="#CAFDE4"/>
<stop offset="0.261719" stop-color="#CBFDE4"/>
<stop offset="0.265625" stop-color="#CCFDE4"/>
<stop offset="0.269531" stop-color="#CCFDE3"/>
<stop offset="0.273438" stop-color="#CDFDE3"/>
<stop offset="0.277344" stop-color="#CEFDE3"/>
<stop offset="0.28125" stop-color="#CFFDE3"/>
<stop offset="0.285156" stop-color="#CFFDE3"/>
<stop offset="0.289063" stop-color="#D0FDE2"/>
<stop offset="0.292969" stop-color="#D1FDE2"/>
<stop offset="0.296875" stop-color="#D1FDE2"/>
<stop offset="0.300781" stop-color="#D2FDE2"/>
<stop offset="0.304688" stop-color="#D3FDE2"/>
<stop offset="0.308594" stop-color="#D4FDE1"/>
<stop offset="0.3125" stop-color="#D4FDE1"/>
<stop offset="0.316406" stop-color="#D5FDE1"/>
<stop offset="0.320312" stop-color="#D6FDE1"/>
<stop offset="0.324219" stop-color="#D6FDE0"/>
<stop offset="0.328125" stop-color="#D7FDE0"/>
<stop offset="0.332031" stop-color="#D8FDE0"/>
<stop offset="0.335938" stop-color="#D8FDE0"/>
<stop offset="0.34375" stop-color="#D8FDE0"/>
<stop offset="0.351562" stop-color="#D9FDDF"/>
<stop offset="0.359375" stop-color="#D9FDDF"/>
<stop offset="0.367188" stop-color="#DAFDDF"/>
<stop offset="0.375" stop-color="#DBFDDF"/>
<stop offset="0.382812" stop-color="#DBFDDE"/>
<stop offset="0.390625" stop-color="#DCFDDE"/>
<stop offset="0.398438" stop-color="#DCFDDE"/>
<stop offset="0.40625" stop-color="#DDFDDD"/>
<stop offset="0.414062" stop-color="#DDFDDD"/>
<stop offset="0.421875" stop-color="#DEFEDD"/>
<stop offset="0.429688" stop-color="#DEFEDC"/>
<stop offset="0.4375" stop-color="#DFFEDC"/>
<stop offset="0.445312" stop-color="#DFFEDC"/>
<stop offset="0.453125" stop-color="#E0FEDB"/>
<stop offset="0.460937" stop-color="#E0FEDB"/>
<stop offset="0.46875" stop-color="#E1FEDB"/>
<stop offset="0.476562" stop-color="#E1FEDB"/>
<stop offset="0.484375" stop-color="#E2FEDA"/>
<stop offset="0.492188" stop-color="#E2FEDA"/>
<stop offset="0.5" stop-color="#E3FEDA"/>
<stop offset="0.507812" stop-color="#E3FED9"/>
<stop offset="0.515625" stop-color="#E4FED9"/>
<stop offset="0.523438" stop-color="#E4FED9"/>
<stop offset="0.53125" stop-color="#E5FED8"/>
<stop offset="0.539062" stop-color="#E5FED8"/>
<stop offset="0.546875" stop-color="#E6FED8"/>
<stop offset="0.554688" stop-color="#E6FED8"/>
<stop offset="0.5625" stop-color="#E7FED7"/>
<stop offset="0.570312" stop-color="#E7FED7"/>
<stop offset="0.578125" stop-color="#E8FED7"/>
<stop offset="0.585938" stop-color="#E8FED6"/>
<stop offset="0.59375" stop-color="#E9FFD6"/>
<stop offset="0.601562" stop-color="#E9FFD6"/>
<stop offset="0.609375" stop-color="#EAFFD5"/>
<stop offset="0.617188" stop-color="#EAFFD5"/>
<stop offset="0.625" stop-color="#EBFFD5"/>
<stop offset="0.632812" stop-color="#EBFFD4"/>
<stop offset="0.640625" stop-color="#ECFFD4"/>
<stop offset="0.648437" stop-color="#EDFFD4"/>
<stop offset="0.65625" stop-color="#EDFFD4"/>
<stop offset="0.671875" stop-color="#EEFFD3"/>
<stop offset="0.6875" stop-color="#EFFFD2"/>
<stop offset="0.703125" stop-color="#EFFFD2"/>
<stop offset="0.71875" stop-color="#F0FFD1"/>
<stop offset="0.734375" stop-color="#F1FFD0"/>
<stop offset="0.75" stop-color="#F2FFCF"/>
<stop offset="0.765625" stop-color="#F2FECF"/>
<stop offset="0.78125" stop-color="#F3FECE"/>
<stop offset="0.796875" stop-color="#F4FECD"/>
<stop offset="0.8125" stop-color="#F5FECC"/>
<stop offset="0.828125" stop-color="#F5FECC"/>
<stop offset="0.84375" stop-color="#F6FECB"/>
<stop offset="0.859375" stop-color="#F7FECA"/>
<stop offset="0.875" stop-color="#F8FEC9"/>
<stop offset="0.890625" stop-color="#F8FEC9"/>
<stop offset="0.90625" stop-color="#F9FEC8"/>
<stop offset="0.921875" stop-color="#FAFEC7"/>
<stop offset="0.9375" stop-color="#FBFDC6"/>
<stop offset="0.953125" stop-color="#FBFDC6"/>
<stop offset="0.96875" stop-color="#FCFDC5"/>
<stop offset="0.984375" stop-color="#FDFDC4"/>
<stop offset="1" stop-color="#FEFDC3"/>
</linearGradient>
</defs>
</svg>
