<svg width="307" height="358" viewBox="0 0 307 358" fill="none" xmlns="http://www.w3.org/2000/svg">
<mask id="mask0_57_1653" style="mask-type:luminance" maskUnits="userSpaceOnUse" x="0" y="0" width="307" height="358">
<path d="M306.667 0H0V358H306.667V0Z" fill="white"/>
</mask>
<g mask="url(#mask0_57_1653)">
<mask id="mask1_57_1653" style="mask-type:luminance" maskUnits="userSpaceOnUse" x="1" y="50" width="305" height="308">
<path d="M1.28271 50.0205H305.987V357.33H1.28271V50.0205Z" fill="white"/>
</mask>
<g mask="url(#mask1_57_1653)">
<mask id="mask2_57_1653" style="mask-type:luminance" maskUnits="userSpaceOnUse" x="1" y="50" width="305" height="308">
<path d="M153.635 50.0205C69.4932 50.0205 1.28271 118.815 1.28271 203.677C1.28271 288.54 69.4932 357.33 153.635 357.33C237.777 357.33 305.987 288.54 305.987 203.677C305.987 118.815 237.777 50.0205 153.635 50.0205Z" fill="white"/>
</mask>
<g mask="url(#mask2_57_1653)">
<mask id="mask3_57_1653" style="mask-type:luminance" maskUnits="userSpaceOnUse" x="1" y="49" width="306" height="309">
<path d="M306.667 49.9253H1.20728V358H306.667V49.9253Z" fill="white"/>
</mask>
<g mask="url(#mask3_57_1653)">
<mask id="mask4_57_1653" style="mask-type:luminance" maskUnits="userSpaceOnUse" x="1" y="50" width="305" height="308">
<path d="M1.28271 50.0205H305.987V357.33H1.28271V50.0205Z" fill="white"/>
</mask>
<g mask="url(#mask4_57_1653)">
<mask id="mask5_57_1653" style="mask-type:luminance" maskUnits="userSpaceOnUse" x="1" y="50" width="305" height="308">
<path d="M153.635 50.0205C69.4932 50.0205 1.28271 118.815 1.28271 203.677C1.28271 288.54 69.4932 357.33 153.635 357.33C237.777 357.33 305.987 288.54 305.987 203.677C305.987 118.815 237.777 50.0205 153.635 50.0205Z" fill="white"/>
</mask>
<g mask="url(#mask5_57_1653)">
<path d="M1.28271 50.0205V357.33H305.987V50.0205H1.28271Z" fill="url(#paint0_linear_57_1653)"/>
</g>
</g>
</g>
</g>
</g>
<mask id="mask6_57_1653" style="mask-type:luminance" maskUnits="userSpaceOnUse" x="88" y="0" width="138" height="117">
<path d="M88.8203 0.670898H225.793V116.898H88.8203V0.670898Z" fill="white"/>
</mask>
<g mask="url(#mask6_57_1653)">
<path d="M88.8203 0.689941H639.296V115.795H88.8203V0.689941Z" fill="#F2F2F2"/>
</g>
<mask id="mask7_57_1653" style="mask-type:luminance" maskUnits="userSpaceOnUse" x="118" y="344" width="12" height="14">
<path d="M118.32 344.605H129.186V357.767H118.32V344.605Z" fill="white"/>
</mask>
<g mask="url(#mask7_57_1653)">
<path d="M128.616 345.533V355.432C128.616 355.736 128.559 356.031 128.441 356.316C128.323 356.602 128.158 356.849 127.946 357.068C127.729 357.287 127.479 357.453 127.201 357.567C126.918 357.686 126.625 357.743 126.324 357.743H121.112C120.81 357.743 120.518 357.686 120.235 357.567C119.957 357.453 119.707 357.287 119.49 357.068C119.278 356.849 119.112 356.602 118.995 356.316C118.877 356.031 118.82 355.736 118.82 355.432V345.533H128.616Z" fill="black"/>
</g>
<mask id="mask8_57_1653" style="mask-type:luminance" maskUnits="userSpaceOnUse" x="177" y="344" width="12" height="14">
<path d="M177.48 344.605H188.346V357.767H177.48V344.605Z" fill="white"/>
</mask>
<g mask="url(#mask8_57_1653)">
<path d="M187.846 345.533V355.432C187.846 355.736 187.79 356.031 187.672 356.316C187.554 356.602 187.389 356.849 187.172 357.068C186.96 357.287 186.71 357.453 186.432 357.567C186.149 357.686 185.856 357.743 185.55 357.743H180.338C180.036 357.743 179.744 357.686 179.461 357.567C179.183 357.453 178.933 357.287 178.716 357.068C178.504 356.849 178.339 356.602 178.221 356.316C178.103 356.031 178.046 355.736 178.046 355.432V345.533H187.846Z" fill="black"/>
</g>
<path d="M207.103 204.786L199.397 343.498C199.373 343.911 199.312 344.321 199.213 344.72C199.114 345.124 198.977 345.514 198.802 345.89C198.628 346.266 198.42 346.623 198.18 346.96C197.944 347.298 197.67 347.607 197.373 347.893C197.076 348.178 196.751 348.43 196.407 348.654C196.058 348.877 195.694 349.068 195.312 349.22C194.93 349.372 194.539 349.491 194.133 349.567C193.732 349.648 193.322 349.686 192.912 349.686H113.755C113.345 349.686 112.934 349.648 112.533 349.567C112.128 349.491 111.736 349.372 111.354 349.22C110.972 349.068 110.609 348.877 110.26 348.654C109.916 348.43 109.591 348.178 109.293 347.893C108.996 347.607 108.728 347.298 108.487 346.96C108.246 346.623 108.039 346.266 107.864 345.89C107.695 345.514 107.558 345.124 107.454 344.72C107.355 344.321 107.294 343.911 107.27 343.498L99.5639 204.786C99.5403 204.339 99.5592 203.896 99.6252 203.454C99.6913 203.016 99.7997 202.584 99.9507 202.165C100.102 201.746 100.295 201.347 100.526 200.971C100.762 200.591 101.026 200.239 101.333 199.915C101.634 199.592 101.969 199.302 102.328 199.045C102.691 198.788 103.078 198.574 103.483 198.398C103.889 198.222 104.304 198.089 104.738 197.998C105.171 197.908 105.61 197.86 106.049 197.86H200.623C201.061 197.86 201.5 197.908 201.934 197.998C202.368 198.089 202.783 198.222 203.188 198.398C203.594 198.574 203.981 198.788 204.339 199.045C204.702 199.302 205.037 199.592 205.339 199.915C205.641 200.239 205.91 200.591 206.141 200.971C206.377 201.347 206.565 201.746 206.716 202.165C206.872 202.584 206.98 203.016 207.042 203.454C207.108 203.896 207.126 204.339 207.103 204.786Z" fill="#3C7F00"/>
<path d="M130.238 291.123C129.762 290.3 129.521 289.415 129.521 288.464C129.521 287.508 129.762 286.623 130.238 285.8L131.79 283.079L135.313 285.134V270.042L122.367 277.595L125.885 279.636L124.329 282.356C124.069 282.818 123.833 283.293 123.631 283.788C123.433 284.278 123.263 284.782 123.126 285.296C122.989 285.814 122.885 286.333 122.815 286.861C122.749 287.389 122.716 287.922 122.716 288.454C122.716 288.987 122.749 289.515 122.815 290.048C122.885 290.576 122.989 291.094 123.126 291.608C123.263 292.126 123.433 292.631 123.631 293.12C123.833 293.615 124.069 294.091 124.333 294.552C124.597 295.014 124.89 295.456 125.211 295.879C125.531 296.303 125.876 296.702 126.248 297.078C126.625 297.454 127.022 297.806 127.437 298.129C127.856 298.453 128.295 298.748 128.752 299.014C129.21 299.28 129.682 299.518 130.167 299.723C130.658 299.927 131.153 300.098 131.662 300.236C132.172 300.374 132.69 300.479 133.214 300.546C133.737 300.617 134.261 300.65 134.789 300.65H151.305V293.772H134.789C133.851 293.777 132.973 293.544 132.158 293.068C131.342 292.592 130.7 291.946 130.238 291.123Z" fill="white"/>
<path d="M182.663 282.375L175.66 270.018L169.741 273.438L176.749 285.805C176.867 286.004 176.966 286.214 177.056 286.428C177.141 286.642 177.216 286.861 177.273 287.084C177.334 287.308 177.377 287.536 177.41 287.769C177.438 287.997 177.452 288.226 177.452 288.459C177.452 288.692 177.438 288.925 177.405 289.153C177.377 289.382 177.329 289.61 177.273 289.834C177.212 290.057 177.136 290.276 177.051 290.49C176.962 290.704 176.858 290.913 176.745 291.113C176.631 291.318 176.504 291.508 176.363 291.693C176.221 291.874 176.07 292.05 175.91 292.212C175.745 292.378 175.575 292.531 175.391 292.673C175.207 292.811 175.018 292.94 174.82 293.059C174.618 293.173 174.415 293.277 174.203 293.363C173.99 293.453 173.773 293.529 173.552 293.586C173.33 293.648 173.104 293.696 172.877 293.724C172.646 293.753 172.42 293.772 172.189 293.772H168.204V289.662L155.258 297.211L168.204 304.755V300.65H172.193C172.722 300.65 173.25 300.617 173.773 300.545C174.292 300.474 174.811 300.374 175.32 300.236C175.83 300.098 176.33 299.927 176.815 299.722C177.306 299.518 177.777 299.285 178.235 299.019C178.688 298.752 179.126 298.457 179.546 298.134C179.966 297.806 180.362 297.458 180.735 297.083C181.107 296.707 181.456 296.307 181.777 295.884C182.098 295.461 182.39 295.018 182.654 294.557C182.918 294.095 183.149 293.62 183.352 293.125C183.555 292.635 183.725 292.131 183.861 291.617C183.998 291.104 184.102 290.58 184.173 290.052C184.239 289.524 184.276 288.996 184.276 288.464C184.276 287.931 184.243 287.398 184.173 286.87C184.107 286.342 184.003 285.824 183.866 285.305C183.729 284.792 183.564 284.287 183.361 283.797C183.159 283.303 182.928 282.827 182.663 282.366V282.375Z" fill="white"/>
<path d="M158.059 253.098L161.492 259.111L157.969 261.161L170.915 268.705V253.612L167.392 255.662L163.954 249.655C163.69 249.193 163.398 248.751 163.077 248.328C162.756 247.904 162.412 247.505 162.035 247.129C161.662 246.753 161.266 246.401 160.851 246.078C160.431 245.754 159.993 245.459 159.535 245.193C159.078 244.927 158.606 244.689 158.12 244.489C157.63 244.285 157.135 244.113 156.621 243.975C156.111 243.837 155.597 243.733 155.074 243.661C154.55 243.595 154.027 243.562 153.498 243.562C152.97 243.562 152.442 243.595 151.923 243.661C151.4 243.733 150.881 243.837 150.372 243.975C149.862 244.113 149.362 244.285 148.877 244.489C148.391 244.689 147.914 244.927 147.457 245.193C147.004 245.459 146.566 245.754 146.146 246.078C145.726 246.401 145.33 246.753 144.957 247.129C144.585 247.505 144.236 247.904 143.915 248.328C143.594 248.751 143.302 249.193 143.038 249.655L134.242 265.033L140.142 268.472L148.938 253.094C149.41 252.271 150.051 251.624 150.867 251.148C151.683 250.673 152.56 250.435 153.498 250.435C154.442 250.435 155.319 250.673 156.135 251.148C156.946 251.624 157.592 252.271 158.059 253.094V253.098Z" fill="white"/>
<path d="M207.112 197.87H99.5498L106.954 169.292C107.105 168.717 107.299 168.155 107.539 167.613C107.78 167.071 108.063 166.548 108.388 166.053C108.713 165.558 109.077 165.092 109.477 164.654C109.878 164.222 110.312 163.822 110.779 163.456C111.241 163.094 111.736 162.771 112.255 162.49C112.774 162.21 113.312 161.972 113.868 161.781C114.425 161.586 114.995 161.444 115.575 161.344C116.16 161.249 116.745 161.201 117.335 161.201H189.328C189.917 161.201 190.502 161.249 191.087 161.344C191.667 161.444 192.237 161.586 192.794 161.781C193.35 161.972 193.888 162.21 194.407 162.49C194.926 162.771 195.421 163.094 195.888 163.456C196.35 163.822 196.784 164.222 197.185 164.654C197.586 165.092 197.949 165.558 198.274 166.053C198.6 166.548 198.883 167.071 199.123 167.613C199.364 168.155 199.557 168.717 199.708 169.292L207.112 197.87Z" fill="#3C7F00"/>
<path d="M113.029 187.372L117.018 171.96C117.061 171.799 117.165 171.718 117.334 171.718H189.327C189.492 171.718 189.596 171.799 189.639 171.96L193.633 187.372H113.029Z" fill="black" fill-opacity="0.52"/>
<path d="M204.438 200.781C203.622 199.896 202.618 199.363 201.434 199.182C201.165 199.14 200.896 199.121 200.623 199.121H106.044C105.686 199.121 105.332 199.159 104.983 199.23C104.629 199.301 104.294 199.411 103.964 199.553C103.634 199.696 103.323 199.867 103.03 200.077C102.738 200.281 102.469 200.519 102.224 200.781C101.979 201.042 101.762 201.328 101.573 201.632C101.384 201.941 101.229 202.265 101.106 202.602C100.983 202.94 100.894 203.287 100.842 203.644C100.79 204.001 100.776 204.362 100.795 204.719L101.347 214.594H174.056L167.572 331.244C167.534 331.92 167.374 332.567 167.091 333.18C166.808 333.794 166.421 334.331 165.93 334.798C165.445 335.264 164.888 335.62 164.266 335.873C163.643 336.12 162.997 336.248 162.327 336.248H108.11L108.511 343.426C108.548 344.101 108.709 344.748 108.992 345.362C109.275 345.976 109.661 346.513 110.147 346.979C110.633 347.445 111.189 347.802 111.812 348.054C112.434 348.302 113.085 348.43 113.755 348.43H192.907C193.577 348.43 194.228 348.302 194.85 348.054C195.473 347.802 196.029 347.445 196.515 346.979C197.005 346.513 197.387 345.976 197.67 345.362C197.953 344.748 198.119 344.101 198.156 343.426L205.863 204.714C205.905 203.987 205.806 203.283 205.556 202.598C205.311 201.913 204.938 201.309 204.438 200.781Z" fill="black" fill-opacity="0.16"/>
<mask id="mask9_57_1653" style="mask-type:luminance" maskUnits="userSpaceOnUse" x="88" y="186" width="131" height="25">
<path d="M88.8203 186.306H218.53V210.66H88.8203V186.306Z" fill="white"/>
</mask>
<g mask="url(#mask9_57_1653)">
<path d="M94.6354 186.929H212.027C212.409 186.929 212.786 186.967 213.163 187.043C213.536 187.119 213.899 187.229 214.253 187.376C214.606 187.524 214.941 187.705 215.257 187.919C215.578 188.133 215.87 188.38 216.139 188.651C216.408 188.922 216.648 189.222 216.861 189.541C217.073 189.859 217.252 190.197 217.398 190.554C217.544 190.91 217.658 191.277 217.733 191.657C217.804 192.033 217.842 192.418 217.842 192.804V204.219C217.842 204.605 217.804 204.985 217.733 205.366C217.658 205.742 217.544 206.108 217.398 206.465C217.252 206.821 217.073 207.159 216.861 207.482C216.648 207.801 216.408 208.096 216.139 208.372C215.87 208.643 215.578 208.886 215.257 209.1C214.941 209.314 214.606 209.494 214.253 209.642C213.899 209.789 213.536 209.904 213.163 209.975C212.786 210.051 212.409 210.089 212.027 210.089H94.6354C94.2534 210.089 93.8761 210.051 93.4988 209.975C93.1262 209.904 92.7631 209.789 92.4093 209.642C92.0556 209.494 91.7208 209.314 91.4048 209.1C91.0841 208.886 90.7917 208.643 90.5229 208.372C90.254 208.096 90.0135 207.801 89.8013 207.482C89.5891 207.159 89.4098 206.821 89.2636 206.465C89.1174 206.108 89.0042 205.742 88.9335 205.366C88.858 204.985 88.8203 204.605 88.8203 204.219V192.804C88.8203 192.418 88.858 192.033 88.9335 191.657C89.0042 191.277 89.1174 190.91 89.2636 190.554C89.4098 190.197 89.5891 189.859 89.8013 189.541C90.0135 189.222 90.254 188.922 90.5229 188.651C90.7917 188.38 91.0841 188.133 91.4048 187.919C91.7208 187.705 92.0556 187.524 92.4093 187.376C92.7631 187.229 93.1262 187.119 93.4988 187.043C93.8761 186.967 94.2534 186.929 94.6354 186.929Z" fill="#3C7F00"/>
</g>
<path d="M94.3383 191.258H152.376C152.56 191.258 152.734 191.296 152.904 191.362C153.069 191.434 153.22 191.534 153.348 191.667C153.48 191.795 153.579 191.948 153.649 192.119C153.715 192.285 153.753 192.466 153.753 192.647V195.353C153.753 195.539 153.715 195.715 153.649 195.886C153.579 196.057 153.48 196.205 153.348 196.338C153.22 196.466 153.069 196.566 152.904 196.638C152.734 196.709 152.56 196.742 152.376 196.742H94.3383C94.1544 196.742 93.9799 196.709 93.8101 196.638C93.6403 196.566 93.4941 196.466 93.3621 196.338C93.2347 196.205 93.1357 196.057 93.0649 195.886C92.9942 195.715 92.9612 195.539 92.9612 195.353V192.647C92.9612 192.466 92.9942 192.285 93.0649 192.119C93.1357 191.948 93.2347 191.795 93.3621 191.667C93.4941 191.534 93.6403 191.434 93.8101 191.362C93.9799 191.296 94.1544 191.258 94.3383 191.258Z" fill="white" fill-opacity="0.1"/>
<path d="M159.328 191.258H168.043C168.227 191.258 168.402 191.296 168.571 191.362C168.736 191.434 168.887 191.534 169.015 191.667C169.147 191.795 169.246 191.948 169.312 192.119C169.383 192.285 169.42 192.466 169.42 192.647V195.353C169.42 195.539 169.383 195.715 169.312 195.886C169.246 196.057 169.147 196.205 169.015 196.338C168.887 196.466 168.736 196.566 168.571 196.638C168.402 196.709 168.227 196.742 168.043 196.742H159.328C159.144 196.742 158.969 196.709 158.799 196.638C158.63 196.566 158.483 196.466 158.351 196.338C158.224 196.205 158.125 196.057 158.054 195.886C157.983 195.715 157.95 195.539 157.95 195.353V192.647C157.95 192.466 157.983 192.285 158.054 192.119C158.125 191.948 158.224 191.795 158.351 191.667C158.483 191.534 158.63 191.434 158.799 191.362C158.969 191.296 159.144 191.258 159.328 191.258Z" fill="white" fill-opacity="0.1"/>
<path d="M107.812 31.6551C107.336 30.0474 107.27 28.4207 107.614 26.7749C107.93 26.6465 108.218 26.694 108.477 26.9176C107.888 28.3969 107.751 29.9142 108.062 31.4744L107.812 31.6551Z" fill="black"/>
<path d="M114.67 50.9242L117.603 46.277L124.093 44.0938C122.504 48.5221 119.334 50.8243 114.67 50.9242Z" fill="#FD3A38"/>
<path d="M104.379 35.7793L109.402 34.652L113.175 29.4007C110.774 27.0748 107.93 31.3937 107.93 31.3937C107.93 31.3937 102.719 32.8112 104.379 35.7793Z" fill="#FD3A38"/>
<path d="M124.097 44.094L114.67 50.9244C114.236 43.0999 110.958 37.9437 104.379 35.7795L113.175 29.4009C112.797 36.864 116.344 41.8251 124.097 44.094Z" fill="#EEB26A"/>
<path d="M110.567 31.6028C110.722 38.5712 114.396 43.2897 121.508 45.6537L123.527 44.1887C116.283 41.9056 112.703 37.1014 112.896 29.9189L110.567 31.6028Z" fill="black" fill-opacity="0.1"/>
<path d="M166.973 79.2164C164.827 79.9727 162.634 80.1629 160.393 79.7872C160.2 79.3591 160.247 78.9643 160.535 78.5933C162.563 79.3115 164.624 79.4066 166.713 78.8834L166.973 79.2164Z" fill="black"/>
<path d="M192.586 68.6138L186.13 64.8466L182.781 56.0469C188.86 57.9638 192.162 62.1924 192.586 68.6138Z" fill="#3C7F00"/>
<path d="M172.745 83.697L170.925 76.8428L163.601 71.9673C160.606 75.4206 166.619 79.0736 166.619 79.0736C166.619 79.0736 168.845 86.161 172.745 83.697Z" fill="#3C7F00"/>
<path d="M182.781 56.0425L192.586 68.6141C182.041 69.6844 175.278 74.5123 172.745 83.7021L163.601 71.9771C173.707 72.0341 180.187 66.8542 182.781 56.0425Z" fill="#EEB26A"/>
<path d="M166.732 75.4254C176.136 74.7928 182.291 69.4511 185.05 59.5051L182.951 56.8081C180.301 66.9206 174.033 72.1338 164.308 72.3193L166.732 75.4254Z" fill="black" fill-opacity="0.1"/>
<path d="M161.511 41.2684L159.21 44.3174C153.998 42.5242 149.782 42.5099 144.806 44.2461C144.599 44.3269 144.443 44.4744 144.349 44.6837C144.254 44.893 144.245 45.107 144.316 45.3211C144.391 45.5399 144.528 45.7016 144.731 45.8062C144.929 45.9156 145.141 45.9347 145.358 45.8728C149.829 44.3174 153.494 44.2699 158.115 45.7682L153.984 51.243C149.791 49.8208 146.381 49.8256 142.368 51.2192C142.156 51.3049 142.005 51.4523 141.911 51.6616C141.816 51.8709 141.802 52.0849 141.877 52.299C141.948 52.5178 142.09 52.6795 142.288 52.7842C142.491 52.8888 142.698 52.9126 142.92 52.8507C146.414 51.6331 149.296 51.5712 152.88 52.6938L148.546 58.4635C145.613 57.4979 143.212 57.5217 140.382 58.5063C140.17 58.5872 140.019 58.7346 139.92 58.9439C139.826 59.1532 139.817 59.3673 139.892 59.5813C139.963 59.8001 140.099 59.9618 140.302 60.0665C140.505 60.1759 140.713 60.1949 140.93 60.1331C143.222 59.334 145.127 59.2626 147.438 59.9238L143.358 65.332C141.991 64.8992 140.637 64.9372 139.293 65.4462C139.057 65.5128 138.883 65.6555 138.77 65.8743C138.656 66.0931 138.642 66.3167 138.718 66.5497C138.798 66.7828 138.949 66.954 139.17 67.0539C139.392 67.1586 139.618 67.1633 139.845 67.0729C140.618 66.7733 141.411 66.6924 142.226 66.8304L138.977 71.1446C138.826 71.3349 138.77 71.5489 138.798 71.7867C138.826 72.0293 138.939 72.2196 139.128 72.367C139.317 72.5097 139.529 72.5668 139.769 72.5335C140.005 72.5002 140.194 72.3813 140.335 72.1863L143.58 67.8816C143.92 68.6331 144.052 69.4227 143.971 70.2408C143.962 70.4311 144.009 70.6071 144.108 70.7641C144.212 70.9258 144.353 71.0352 144.528 71.1018C144.702 71.1684 144.882 71.1731 145.061 71.1208C145.245 71.0685 145.391 70.9686 145.504 70.8164C145.608 70.6784 145.665 70.5262 145.679 70.3502C145.801 68.9185 145.485 67.6009 144.721 66.388L148.796 60.9845C150.037 63.0489 150.47 64.9182 150.32 67.3536C150.305 67.5438 150.353 67.7151 150.456 67.8768C150.56 68.0338 150.697 68.1479 150.871 68.2145C151.051 68.2764 151.23 68.2859 151.409 68.2336C151.588 68.1812 151.734 68.0766 151.848 67.9291C151.956 67.7912 152.013 67.6342 152.022 67.4582C152.206 64.4521 151.588 62.1118 149.9 59.5195L154.248 53.7545C156.267 56.9414 156.974 59.7573 156.743 63.477C156.734 63.71 156.804 63.9146 156.96 64.0906C157.116 64.2618 157.309 64.3569 157.54 64.3712C157.771 64.3855 157.974 64.3189 158.153 64.1667C158.328 64.0097 158.427 63.8194 158.446 63.5864C158.71 59.3102 157.804 55.9996 155.342 52.3037L159.464 46.8146C162.115 50.9053 163.044 54.4823 162.747 59.2293C162.728 59.4672 162.799 59.6812 162.954 59.862C163.11 60.0427 163.303 60.1426 163.544 60.1569C163.78 60.1711 163.987 60.0998 164.166 59.9381C164.346 59.7811 164.44 59.5766 164.449 59.3387C164.779 54.0446 163.648 49.9492 160.558 45.3544L162.869 42.3054C163.006 42.1151 163.058 41.9058 163.025 41.6728C162.992 41.4397 162.879 41.2542 162.695 41.1115C162.511 40.9688 162.303 40.9117 162.072 40.9402C161.841 40.9688 161.653 41.0782 161.511 41.2637V41.2684Z" fill="#A2B7BA"/>
<path d="M178.334 24.6205C178.428 24.7061 178.518 24.806 178.593 24.9059C182.343 29.9717 178.985 38.4622 174.655 45.6779C174.061 46.6625 172.953 47.1953 171.925 46.9717C163.662 45.2213 157.592 40.5456 153.715 32.9398C153.225 31.9789 153.456 30.7375 154.262 29.8956C159.842 24.1115 172.127 19.0125 178.334 24.6205Z" fill="#A2B7BA"/>
<path d="M171.66 42.6954C171.613 42.7763 171.561 42.8572 171.5 42.9333C171.236 43.309 170.887 43.5849 170.462 43.7609C170.038 43.9369 169.599 43.9845 169.147 43.9036C165.062 43.0474 161.483 41.4302 158.479 39.1185C158.13 38.8521 157.785 38.562 157.45 38.2813C158.601 39.6607 159.884 40.8927 161.304 41.9867C164.303 44.2984 167.892 45.9061 171.972 46.7718C172.424 46.8527 172.863 46.8051 173.287 46.6339C173.712 46.4579 174.061 46.182 174.325 45.8063C174.386 45.7301 174.438 45.654 174.485 45.5684C178.4 39.0519 182.258 30.1951 178.438 25.0295C178.367 24.9343 178.291 24.8487 178.206 24.7726C177.664 24.2874 177.075 23.8784 176.428 23.5454C178.777 28.8062 175.245 36.7307 171.66 42.6954Z" fill="black" fill-opacity="0.06"/>
<path d="M165.68 30.1996C165.68 30.4564 165.628 30.7085 165.534 30.9464C165.435 31.1842 165.294 31.3982 165.114 31.579C164.93 31.7645 164.723 31.9072 164.482 32.0023C164.247 32.1022 164.001 32.1545 163.742 32.1545C163.487 32.1545 163.242 32.1022 163.002 32.0023C162.766 31.9072 162.558 31.7645 162.374 31.579C162.195 31.3982 162.054 31.1842 161.955 30.9464C161.856 30.7085 161.808 30.4564 161.808 30.1996C161.808 29.938 161.856 29.6906 161.955 29.4528C162.054 29.2102 162.195 29.0009 162.374 28.8154C162.558 28.6347 162.766 28.492 163.002 28.3921C163.242 28.2922 163.487 28.2446 163.742 28.2446C164.001 28.2446 164.247 28.2922 164.482 28.3921C164.723 28.492 164.93 28.6347 165.114 28.8154C165.294 29.0009 165.435 29.2102 165.534 29.4528C165.628 29.6906 165.68 29.938 165.68 30.1996Z" fill="black" fill-opacity="0.06"/>
<path d="M129.054 73.3421C131.676 78.1225 134.69 77.7372 137.963 73.9081C135.181 78.1129 135.614 81.1477 140.873 82.4319C146.419 83.2168 145.613 76.2008 139.656 71.6678C133.737 67.0729 126.828 68.1526 129.054 73.3421Z" fill="#A2B7BA"/>
<path d="M139.534 71.8247C142.194 73.8462 144.052 76.5813 144.363 78.9453C144.5 79.9442 144.339 80.7813 143.901 81.3569C143.33 82.1179 142.293 82.4176 140.911 82.2226C139.92 82.0085 138.986 81.6375 138.119 81.1095C138.246 81.1476 138.378 81.1809 138.515 81.2142C139.897 81.3997 140.93 81.1048 141.505 80.3437C141.944 79.7634 142.104 78.931 141.967 77.9369C141.646 75.5681 139.793 72.8378 137.138 70.8115C136.459 70.2835 135.737 69.8174 134.982 69.4131C136.643 69.9411 138.161 70.7449 139.534 71.8247Z" fill="black" fill-opacity="0.06"/>
<path d="M196.171 36.2789C196.053 34.9375 196.355 33.5914 196.397 32.2453C196.44 30.8991 196.185 29.4294 195.199 28.5209C193.827 27.2508 191.421 27.4078 190.365 25.8619C189.521 24.6395 189.917 22.832 189.011 21.6523C190.285 21.4668 191.12 23.0413 192.355 23.4075C193.487 23.7452 194.789 23.0032 195.855 23.5217C196.326 23.7548 196.661 24.2019 196.939 24.6585C197.642 25.8144 198.1 27.0653 198.302 28.4115C198.467 29.5435 198.552 30.8944 199.529 31.489C200.014 31.7839 200.627 31.8029 201.123 32.0978C202.09 32.6876 202.184 34.067 201.972 35.1848C201.759 36.3026 201.354 37.468 201.717 38.543C201.967 39.285 203.25 40.869 202.212 41.5587C201.632 41.9487 200.142 41.3732 199.585 41.1258C198.633 40.6739 197.854 40.0175 197.246 39.1566C196.638 38.2909 196.279 37.3348 196.171 36.2789Z" fill="#3C7F00"/>
<path d="M190.766 22.7508C190.341 22.4036 189.959 22.0896 189.544 21.9707C189.785 22.5415 189.941 23.1361 190.007 23.7497L190.016 23.8163C190.261 23.9827 190.521 24.1112 190.804 24.2015C191.388 24.3728 191.983 24.2919 192.563 24.2158C193.181 24.135 193.765 24.0588 194.261 24.3014C194.685 24.506 194.992 24.9341 195.223 25.3241C195.907 26.4467 196.35 27.6643 196.543 28.9676C196.562 29.0866 196.581 29.2055 196.595 29.3244C196.746 30.4137 196.916 31.6504 197.906 32.2545C198.185 32.4067 198.472 32.5161 198.779 32.5922C199.033 32.6492 199.279 32.7444 199.51 32.8681C200.175 33.2676 200.312 34.1048 200.312 34.7326C200.312 35.0418 200.283 35.3415 200.222 35.6459C200.184 35.8552 200.132 36.0787 200.085 36.2928C199.93 36.8874 199.84 37.4915 199.816 38.1098C199.816 38.4666 199.868 38.8138 199.981 39.1563C200.071 39.3941 200.184 39.6319 200.312 39.8555C200.543 40.2978 200.835 40.8449 200.854 41.2682C201.387 41.4109 201.849 41.4537 202.057 41.3205C202.25 41.2016 202.34 41.0351 202.325 40.8068C202.325 40.374 202.024 39.8032 201.774 39.3418C201.646 39.1182 201.538 38.8851 201.443 38.6426C201.33 38.3048 201.278 37.9528 201.278 37.5961C201.302 36.9825 201.392 36.3784 201.547 35.7791C201.594 35.565 201.646 35.3462 201.684 35.1322C201.745 34.8325 201.774 34.5281 201.778 34.2237C201.778 33.5911 201.637 32.7539 200.972 32.3543C200.741 32.2307 200.495 32.1355 200.241 32.0785C199.934 32.0071 199.647 31.893 199.368 31.7407C198.378 31.1414 198.208 29.9047 198.057 28.8107C198.043 28.6918 198.024 28.5729 198.005 28.4587C197.812 27.1506 197.369 25.9377 196.685 24.8104C196.449 24.4203 196.147 23.997 195.723 23.7877C195.227 23.5451 194.643 23.6212 194.025 23.7069C193.449 23.783 192.85 23.8638 192.266 23.6878C191.686 23.5118 191.223 23.1266 190.766 22.7508Z" fill="black" fill-opacity="0.1"/>
<path d="M110.006 86.7413C110.972 85.8137 112.199 85.2049 113.274 84.4058C114.344 83.6067 115.325 82.4841 115.415 81.138C115.542 79.2591 113.92 77.4611 114.458 75.6584C114.882 74.2314 116.523 73.418 116.877 71.9673C117.82 72.8568 117.113 74.5025 117.599 75.706C118.047 76.8142 119.433 77.3708 119.693 78.5409C119.806 79.0594 119.664 79.6016 119.485 80.1011C119.032 81.3853 118.344 82.5222 117.424 83.521C116.655 84.3582 115.656 85.2667 115.806 86.4035C115.882 86.9743 116.25 87.4738 116.325 88.0493C116.476 89.1766 115.467 90.1089 114.467 90.6417C113.472 91.1696 112.312 91.5692 111.703 92.5348C111.288 93.1959 110.859 95.189 109.685 94.8037C109.025 94.5849 108.543 93.0532 108.388 92.4587C108.143 91.4265 108.161 90.4038 108.449 89.3859C108.742 88.3633 109.26 87.4833 110.006 86.7413Z" fill="#3C7F00"/>
<path d="M117.117 74.0412C117.117 73.4847 117.127 72.99 116.962 72.5952C116.665 73.1375 116.302 73.6274 115.868 74.065L115.825 74.1126C115.844 74.4075 115.905 74.6976 116.009 74.9735C116.24 75.5443 116.674 75.9676 117.094 76.3719C117.542 76.8096 117.966 77.2234 118.084 77.7609C118.188 78.2318 118.047 78.7312 117.9 79.1641C117.457 80.4055 116.787 81.5091 115.901 82.4794L115.655 82.741C114.906 83.5401 114.052 84.4439 114.208 85.5997C114.259 85.9137 114.354 86.2133 114.486 86.4987C114.599 86.7366 114.679 86.9839 114.726 87.2408C114.83 88.0161 114.269 88.6439 113.778 89.0387C113.543 89.229 113.288 89.3907 113.019 89.5334C112.835 89.6333 112.628 89.7332 112.43 89.8283C111.873 90.0804 111.35 90.3896 110.859 90.7559C110.576 90.9747 110.34 91.2363 110.147 91.536C110.02 91.7595 109.906 91.9926 109.812 92.2352C109.614 92.6966 109.369 93.2626 109.053 93.5432C109.274 94.0522 109.529 94.447 109.765 94.5231C109.972 94.604 110.161 94.5707 110.331 94.4185C110.661 94.1521 110.916 93.5528 111.123 93.0723C111.217 92.8345 111.331 92.6014 111.458 92.3779C111.651 92.0782 111.887 91.8166 112.17 91.593C112.661 91.2268 113.184 90.9176 113.745 90.6703C113.939 90.5751 114.142 90.4752 114.33 90.3753C114.599 90.2327 114.854 90.0662 115.089 89.8759C115.58 89.4859 116.141 88.8532 116.037 88.0827C115.99 87.8211 115.91 87.5737 115.797 87.3406C115.665 87.0553 115.571 86.7556 115.519 86.4416C115.363 85.2858 116.217 84.3773 116.967 83.5782C117.051 83.4926 117.132 83.4069 117.212 83.3213C118.103 82.351 118.768 81.2475 119.211 80.0012C119.367 79.5731 119.509 79.0784 119.405 78.6028C119.282 78.0653 118.853 77.6515 118.41 77.2139C117.99 76.8048 117.556 76.3815 117.33 75.8154C117.099 75.2494 117.113 74.6358 117.117 74.0412Z" fill="black" fill-opacity="0.1"/>
<path d="M144.783 30.6233C143.552 31.137 142.194 31.2559 140.906 31.6127C139.618 31.9742 138.303 32.6686 137.737 33.8863C136.954 35.5892 137.822 37.8581 136.68 39.3421C135.775 40.5218 133.95 40.6835 133.105 41.9059C132.544 40.7358 133.785 39.461 133.761 38.1577C133.742 36.9686 132.653 35.9364 132.822 34.7568C132.898 34.2288 133.223 33.7722 133.568 33.3679C134.454 32.3404 135.501 31.5271 136.713 30.9325C137.732 30.4283 138.986 29.9431 139.251 28.8301C139.383 28.2735 139.218 27.6647 139.35 27.1082C139.614 25.9951 140.887 25.4909 142.01 25.3625C143.132 25.2341 144.354 25.2769 145.264 24.6015C145.886 24.1353 146.999 22.4325 147.966 23.222C148.504 23.6644 148.405 25.2721 148.334 25.881C148.193 26.9322 147.811 27.8787 147.179 28.7207C146.547 29.5673 145.75 30.2 144.783 30.6233Z" fill="#C49357"/>
<path d="M133.62 39.8844C133.417 40.3981 133.238 40.8643 133.252 41.2971C133.719 40.8928 134.233 40.5694 134.794 40.322L134.851 40.2887C134.935 40.0033 134.978 39.7132 134.978 39.4135C134.968 38.7999 134.714 38.2481 134.469 37.7154C134.204 37.1446 133.959 36.6024 134.035 36.0458C134.105 35.5749 134.417 35.1564 134.714 34.8139C135.572 33.815 136.586 33.0254 137.76 32.4451L138.086 32.2929C139.067 31.8172 140.185 31.2845 140.458 30.1477C140.519 29.8385 140.538 29.5245 140.515 29.2106C140.496 28.949 140.51 28.6874 140.557 28.4258C140.741 27.6647 141.486 27.2794 142.081 27.0939C142.373 27.0036 142.665 26.9417 142.967 26.9084C143.179 26.8799 143.406 26.8609 143.623 26.8418C144.231 26.818 144.83 26.7229 145.42 26.5564C145.759 26.4565 146.07 26.2996 146.358 26.0855C146.561 25.9238 146.745 25.7478 146.919 25.5576C147.268 25.2008 147.698 24.7584 148.094 24.611C148.07 24.0592 147.971 23.5978 147.782 23.4409C147.613 23.2887 147.429 23.2506 147.216 23.3315C146.811 23.4647 146.358 23.926 145.995 24.2971C145.82 24.4873 145.637 24.6633 145.434 24.8298C145.146 25.0391 144.835 25.1961 144.495 25.3007C143.906 25.4624 143.307 25.5576 142.698 25.5861C142.481 25.6004 142.26 25.6194 142.043 25.6432C141.741 25.6812 141.449 25.7431 141.156 25.8287C140.562 26.0142 139.812 26.4042 139.633 27.1653C139.586 27.4221 139.571 27.6837 139.59 27.9501C139.614 28.2641 139.595 28.5732 139.534 28.8872C139.26 30.0192 138.147 30.552 137.162 31.0276L136.841 31.1846C135.666 31.7649 134.648 32.5545 133.789 33.5486C133.492 33.8959 133.181 34.3144 133.115 34.7853C133.03 35.3419 133.28 35.8746 133.544 36.4454C133.789 36.9781 134.044 37.5299 134.054 38.1435C134.063 38.7571 133.837 39.3422 133.62 39.8844Z" fill="black" fill-opacity="0.1"/>
<path d="M142.613 107.97V126.744H131.247L153.329 151.774L175.415 126.744H164.049V107.97H142.613Z" fill="#3C7F00"/>
</g>
<defs>
<linearGradient id="paint0_linear_57_1653" x1="153.635" y1="50.021" x2="153.635" y2="357.332" gradientUnits="userSpaceOnUse">
<stop stop-color="#9BFFF2"/>
<stop offset="0.00390625" stop-color="#9CFFF2"/>
<stop offset="0.0078125" stop-color="#9CFFF2"/>
<stop offset="0.0117188" stop-color="#9DFFF1"/>
<stop offset="0.015625" stop-color="#9EFFF1"/>
<stop offset="0.0195312" stop-color="#9FFFF1"/>
<stop offset="0.0234375" stop-color="#9FFFF1"/>
<stop offset="0.0273438" stop-color="#A0FFF1"/>
<stop offset="0.03125" stop-color="#A1FFF0"/>
<stop offset="0.0351562" stop-color="#A1FFF0"/>
<stop offset="0.0390625" stop-color="#A2FFF0"/>
<stop offset="0.0429688" stop-color="#A3FFF0"/>
<stop offset="0.046875" stop-color="#A4FFEF"/>
<stop offset="0.0507812" stop-color="#A4FFEF"/>
<stop offset="0.0546875" stop-color="#A5FFEF"/>
<stop offset="0.0585938" stop-color="#A6FFEF"/>
<stop offset="0.0625" stop-color="#A6FFEF"/>
<stop offset="0.0664062" stop-color="#A7FFEE"/>
<stop offset="0.0703125" stop-color="#A8FFEE"/>
<stop offset="0.0742188" stop-color="#A9FFEE"/>
<stop offset="0.078125" stop-color="#A9FFEE"/>
<stop offset="0.0820312" stop-color="#AAFFEE"/>
<stop offset="0.0859375" stop-color="#ABFEED"/>
<stop offset="0.0898438" stop-color="#ABFEED"/>
<stop offset="0.09375" stop-color="#ACFEED"/>
<stop offset="0.0976562" stop-color="#ADFEED"/>
<stop offset="0.101562" stop-color="#AEFEED"/>
<stop offset="0.105469" stop-color="#AEFEEC"/>
<stop offset="0.109375" stop-color="#AFFEEC"/>
<stop offset="0.113281" stop-color="#B0FEEC"/>
<stop offset="0.117188" stop-color="#B0FEEC"/>
<stop offset="0.121094" stop-color="#B1FEEB"/>
<stop offset="0.125" stop-color="#B2FEEB"/>
<stop offset="0.128906" stop-color="#B3FEEB"/>
<stop offset="0.132812" stop-color="#B3FEEB"/>
<stop offset="0.136719" stop-color="#B4FEEB"/>
<stop offset="0.140625" stop-color="#B5FEEA"/>
<stop offset="0.144531" stop-color="#B5FEEA"/>
<stop offset="0.148438" stop-color="#B6FEEA"/>
<stop offset="0.152344" stop-color="#B7FEEA"/>
<stop offset="0.15625" stop-color="#B8FEEA"/>
<stop offset="0.160156" stop-color="#B8FEE9"/>
<stop offset="0.164062" stop-color="#B9FEE9"/>
<stop offset="0.167969" stop-color="#BAFEE9"/>
<stop offset="0.171875" stop-color="#BAFEE9"/>
<stop offset="0.175781" stop-color="#BBFEE8"/>
<stop offset="0.179688" stop-color="#BCFEE8"/>
<stop offset="0.183594" stop-color="#BDFEE8"/>
<stop offset="0.1875" stop-color="#BDFEE8"/>
<stop offset="0.191406" stop-color="#BEFEE8"/>
<stop offset="0.195312" stop-color="#BFFEE7"/>
<stop offset="0.199219" stop-color="#BFFEE7"/>
<stop offset="0.203125" stop-color="#C0FEE7"/>
<stop offset="0.207031" stop-color="#C1FEE7"/>
<stop offset="0.210938" stop-color="#C2FEE7"/>
<stop offset="0.214844" stop-color="#C2FEE6"/>
<stop offset="0.21875" stop-color="#C3FEE6"/>
<stop offset="0.222656" stop-color="#C4FEE6"/>
<stop offset="0.226562" stop-color="#C5FEE6"/>
<stop offset="0.230469" stop-color="#C5FEE6"/>
<stop offset="0.234375" stop-color="#C6FEE5"/>
<stop offset="0.238281" stop-color="#C7FEE5"/>
<stop offset="0.242188" stop-color="#C7FEE5"/>
<stop offset="0.246094" stop-color="#C8FEE5"/>
<stop offset="0.25" stop-color="#C9FEE4"/>
<stop offset="0.253906" stop-color="#CAFDE4"/>
<stop offset="0.257812" stop-color="#CAFDE4"/>
<stop offset="0.261719" stop-color="#CBFDE4"/>
<stop offset="0.265625" stop-color="#CCFDE4"/>
<stop offset="0.269531" stop-color="#CCFDE3"/>
<stop offset="0.273438" stop-color="#CDFDE3"/>
<stop offset="0.277344" stop-color="#CEFDE3"/>
<stop offset="0.28125" stop-color="#CFFDE3"/>
<stop offset="0.285156" stop-color="#CFFDE3"/>
<stop offset="0.289062" stop-color="#D0FDE2"/>
<stop offset="0.292969" stop-color="#D1FDE2"/>
<stop offset="0.296875" stop-color="#D1FDE2"/>
<stop offset="0.300781" stop-color="#D2FDE2"/>
<stop offset="0.304688" stop-color="#D3FDE2"/>
<stop offset="0.308594" stop-color="#D4FDE1"/>
<stop offset="0.3125" stop-color="#D4FDE1"/>
<stop offset="0.316406" stop-color="#D5FDE1"/>
<stop offset="0.320312" stop-color="#D6FDE1"/>
<stop offset="0.324219" stop-color="#D6FDE0"/>
<stop offset="0.328125" stop-color="#D7FDE0"/>
<stop offset="0.332031" stop-color="#D8FDE0"/>
<stop offset="0.335938" stop-color="#D8FDE0"/>
<stop offset="0.34375" stop-color="#D8FDE0"/>
<stop offset="0.351562" stop-color="#D9FDDF"/>
<stop offset="0.359375" stop-color="#D9FDDF"/>
<stop offset="0.367188" stop-color="#DAFDDF"/>
<stop offset="0.375" stop-color="#DBFDDF"/>
<stop offset="0.382812" stop-color="#DBFDDE"/>
<stop offset="0.390625" stop-color="#DCFDDE"/>
<stop offset="0.398438" stop-color="#DCFDDE"/>
<stop offset="0.40625" stop-color="#DDFDDD"/>
<stop offset="0.414062" stop-color="#DDFDDD"/>
<stop offset="0.421875" stop-color="#DEFEDD"/>
<stop offset="0.429688" stop-color="#DEFEDC"/>
<stop offset="0.4375" stop-color="#DFFEDC"/>
<stop offset="0.445312" stop-color="#DFFEDC"/>
<stop offset="0.453125" stop-color="#E0FEDB"/>
<stop offset="0.460938" stop-color="#E0FEDB"/>
<stop offset="0.46875" stop-color="#E1FEDB"/>
<stop offset="0.476562" stop-color="#E1FEDB"/>
<stop offset="0.484375" stop-color="#E2FEDA"/>
<stop offset="0.492188" stop-color="#E2FEDA"/>
<stop offset="0.5" stop-color="#E3FEDA"/>
<stop offset="0.507812" stop-color="#E3FED9"/>
<stop offset="0.515625" stop-color="#E4FED9"/>
<stop offset="0.523438" stop-color="#E4FED9"/>
<stop offset="0.53125" stop-color="#E5FED8"/>
<stop offset="0.539062" stop-color="#E5FED8"/>
<stop offset="0.546875" stop-color="#E6FED8"/>
<stop offset="0.554688" stop-color="#E6FED8"/>
<stop offset="0.5625" stop-color="#E7FED7"/>
<stop offset="0.570312" stop-color="#E7FED7"/>
<stop offset="0.578125" stop-color="#E8FED7"/>
<stop offset="0.585938" stop-color="#E8FED6"/>
<stop offset="0.59375" stop-color="#E9FFD6"/>
<stop offset="0.601562" stop-color="#E9FFD6"/>
<stop offset="0.609375" stop-color="#EAFFD5"/>
<stop offset="0.617188" stop-color="#EAFFD5"/>
<stop offset="0.625" stop-color="#EBFFD5"/>
<stop offset="0.632812" stop-color="#EBFFD4"/>
<stop offset="0.640625" stop-color="#ECFFD4"/>
<stop offset="0.648438" stop-color="#EDFFD4"/>
<stop offset="0.65625" stop-color="#EDFFD4"/>
<stop offset="0.671875" stop-color="#EEFFD3"/>
<stop offset="0.6875" stop-color="#EFFFD2"/>
<stop offset="0.703125" stop-color="#EFFFD2"/>
<stop offset="0.71875" stop-color="#F0FFD1"/>
<stop offset="0.734375" stop-color="#F1FFD0"/>
<stop offset="0.75" stop-color="#F2FFCF"/>
<stop offset="0.765625" stop-color="#F2FECF"/>
<stop offset="0.78125" stop-color="#F3FECE"/>
<stop offset="0.796875" stop-color="#F4FECD"/>
<stop offset="0.8125" stop-color="#F5FECC"/>
<stop offset="0.828125" stop-color="#F5FECC"/>
<stop offset="0.84375" stop-color="#F6FECB"/>
<stop offset="0.859375" stop-color="#F7FECA"/>
<stop offset="0.875" stop-color="#F8FEC9"/>
<stop offset="0.890625" stop-color="#F8FEC9"/>
<stop offset="0.90625" stop-color="#F9FEC8"/>
<stop offset="0.921875" stop-color="#FAFEC7"/>
<stop offset="0.9375" stop-color="#FBFDC6"/>
<stop offset="0.953125" stop-color="#FBFDC6"/>
<stop offset="0.96875" stop-color="#FCFDC5"/>
<stop offset="0.984375" stop-color="#FDFDC4"/>
<stop offset="1" stop-color="#FEFDC3"/>
</linearGradient>
</defs>
</svg>
