<svg width="339" height="324" viewBox="0 0 339 324" fill="none" xmlns="http://www.w3.org/2000/svg">
<mask id="mask0_85_309" style="mask-type:luminance" maskUnits="userSpaceOnUse" x="-1" y="0" width="340" height="324">
<path d="M338.526 0H-0.140625V324H338.526V0Z" fill="white"/>
</mask>
<g mask="url(#mask0_85_309)">
<mask id="mask1_85_309" style="mask-type:luminance" maskUnits="userSpaceOnUse" x="54" y="38" width="284" height="284">
<path d="M54.8594 38.646H337.526V321.307H54.8594V38.646Z" fill="white"/>
</mask>
<g mask="url(#mask1_85_309)">
<mask id="mask2_85_309" style="mask-type:luminance" maskUnits="userSpaceOnUse" x="54" y="38" width="284" height="284">
<path d="M196.193 38.646C118.135 38.646 54.8594 101.922 54.8594 179.979C54.8594 258.031 118.135 321.307 196.193 321.307C274.25 321.307 337.526 258.031 337.526 179.979C337.526 101.922 274.25 38.646 196.193 38.646Z" fill="white"/>
</mask>
<g mask="url(#mask2_85_309)">
<mask id="mask3_85_309" style="mask-type:luminance" maskUnits="userSpaceOnUse" x="54" y="37" width="285" height="285">
<path d="M338.526 37.3335H54.5261V321.333H338.526V37.3335Z" fill="white"/>
</mask>
<g mask="url(#mask3_85_309)">
<mask id="mask4_85_309" style="mask-type:luminance" maskUnits="userSpaceOnUse" x="54" y="38" width="284" height="284">
<path d="M54.8594 38.646H337.526V321.307H54.8594V38.646Z" fill="white"/>
</mask>
<g mask="url(#mask4_85_309)">
<mask id="mask5_85_309" style="mask-type:luminance" maskUnits="userSpaceOnUse" x="54" y="38" width="284" height="284">
<path d="M196.193 38.646C118.135 38.646 54.8594 101.922 54.8594 179.979C54.8594 258.031 118.135 321.307 196.193 321.307C274.25 321.307 337.526 258.031 337.526 179.979C337.526 101.922 274.25 38.646 196.193 38.646Z" fill="white"/>
</mask>
<g mask="url(#mask5_85_309)">
<path d="M54.8594 38.646V321.307H337.526V38.646H54.8594Z" fill="url(#paint0_linear_85_309)"/>
</g>
</g>
</g>
</g>
</g>
<mask id="mask6_85_309" style="mask-type:luminance" maskUnits="userSpaceOnUse" x="136" y="1" width="120" height="105">
<path d="M136.099 1.35938H255.974V105.333H136.099V1.35938Z" fill="white"/>
</mask>
<g mask="url(#mask6_85_309)">
<path d="M-241.688 1.36963H256.995V104.156H-241.688V1.36963Z" fill="#F2F2F2"/>
</g>
<mask id="mask7_85_309" style="mask-type:luminance" maskUnits="userSpaceOnUse" x="166" y="308" width="12" height="13">
<path d="M166.526 308H177.193V320.229H166.526V308Z" fill="white"/>
</mask>
<g mask="url(#mask7_85_309)">
<path d="M176.161 309.312V318.151C176.161 318.422 176.109 318.688 176.005 318.943C175.901 319.193 175.75 319.417 175.552 319.615C175.359 319.807 175.135 319.953 174.88 320.062C174.625 320.167 174.359 320.219 174.083 320.219H169.365C169.089 320.219 168.823 320.167 168.568 320.062C168.313 319.953 168.089 319.807 167.891 319.615C167.698 319.417 167.547 319.193 167.443 318.943C167.339 318.688 167.281 318.422 167.281 318.151V309.312H176.161Z" fill="black"/>
</g>
<mask id="mask8_85_309" style="mask-type:luminance" maskUnits="userSpaceOnUse" x="219" y="308" width="12" height="13">
<path d="M219.859 308H230.526V320.229H219.859V308Z" fill="white"/>
</mask>
<g mask="url(#mask8_85_309)">
<path d="M229.818 309.312V318.151C229.818 318.422 229.766 318.688 229.661 318.943C229.557 319.193 229.406 319.417 229.214 319.615C229.016 319.807 228.792 319.953 228.536 320.062C228.281 320.167 228.016 320.219 227.74 320.219H223.021C222.745 320.219 222.479 320.167 222.224 320.062C221.969 319.953 221.745 319.807 221.547 319.615C221.354 319.417 221.203 319.193 221.099 318.943C220.995 318.688 220.938 318.422 220.938 318.151V309.312H229.818Z" fill="black"/>
</g>
<path d="M247.266 183.625L240.281 307.495C240.239 308.24 240.062 308.953 239.745 309.63C239.427 310.307 238.995 310.906 238.448 311.417C237.906 311.932 237.281 312.328 236.583 312.604C235.885 312.88 235.161 313.021 234.411 313.021H162.703C161.948 313.021 161.224 312.88 160.526 312.604C159.828 312.328 159.203 311.932 158.661 311.417C158.114 310.906 157.682 310.307 157.364 309.63C157.047 308.953 156.87 308.24 156.828 307.495L149.844 183.625C149.823 183.229 149.838 182.833 149.901 182.438C149.958 182.042 150.057 181.662 150.193 181.287C150.333 180.912 150.505 180.557 150.713 180.219C150.927 179.88 151.167 179.563 151.443 179.276C151.719 178.985 152.021 178.724 152.349 178.5C152.677 178.271 153.021 178.078 153.391 177.922C153.76 177.761 154.135 177.641 154.531 177.563C154.922 177.485 155.318 177.443 155.719 177.443H241.396C241.797 177.443 242.193 177.485 242.583 177.563C242.974 177.646 243.354 177.766 243.724 177.922C244.088 178.078 244.437 178.271 244.766 178.5C245.094 178.729 245.396 178.99 245.667 179.276C245.943 179.568 246.187 179.88 246.396 180.219C246.604 180.557 246.781 180.912 246.917 181.287C247.052 181.662 247.151 182.047 247.208 182.438C247.271 182.833 247.286 183.229 247.266 183.625Z" fill="#FFAE00"/>
<path d="M177.63 260.724C177.198 259.99 176.984 259.198 176.984 258.349C176.984 257.495 177.198 256.703 177.63 255.974L179.036 253.542L182.229 255.375V241.896L170.5 248.646L173.693 250.474L172.281 252.906C172.047 253.318 171.833 253.745 171.651 254.182C171.469 254.625 171.313 255.073 171.193 255.531C171.068 255.995 170.974 256.458 170.911 256.932C170.849 257.401 170.818 257.875 170.818 258.354C170.818 258.828 170.849 259.302 170.911 259.771C170.974 260.245 171.068 260.708 171.193 261.172C171.313 261.63 171.469 262.078 171.651 262.521C171.833 262.958 172.047 263.386 172.286 263.797C172.521 264.208 172.786 264.604 173.078 264.979C173.37 265.36 173.682 265.714 174.021 266.052C174.359 266.391 174.719 266.703 175.099 266.99C175.479 267.281 175.875 267.547 176.286 267.781C176.703 268.021 177.13 268.229 177.573 268.412C178.016 268.594 178.464 268.75 178.927 268.87C179.391 268.995 179.854 269.089 180.328 269.151C180.802 269.214 181.281 269.245 181.76 269.245H196.719V263.099H181.76C180.906 263.104 180.109 262.896 179.37 262.469C178.63 262.042 178.052 261.458 177.63 260.724Z" fill="white"/>
<path d="M225.125 252.912L218.781 241.88L213.422 244.932L219.771 255.974C219.979 256.333 220.141 256.714 220.245 257.12C220.354 257.521 220.406 257.927 220.406 258.344C220.406 258.761 220.354 259.172 220.245 259.573C220.135 259.974 219.974 260.354 219.766 260.719C219.557 261.078 219.307 261.406 219.01 261.698C218.714 261.99 218.385 262.245 218.021 262.453C217.661 262.662 217.276 262.818 216.875 262.927C216.469 263.031 216.057 263.089 215.641 263.089H212.026V259.422L200.297 266.162L212.026 272.901V269.229H215.641C216.12 269.229 216.594 269.198 217.068 269.141C217.542 269.078 218.01 268.985 218.474 268.86C218.932 268.74 219.385 268.583 219.828 268.401C220.271 268.224 220.698 268.011 221.109 267.776C221.526 267.537 221.922 267.271 222.302 266.985C222.682 266.693 223.036 266.38 223.375 266.047C223.714 265.708 224.031 265.354 224.323 264.974C224.615 264.599 224.875 264.203 225.115 263.792C225.354 263.38 225.568 262.953 225.75 262.516C225.932 262.073 226.089 261.625 226.214 261.167C226.333 260.708 226.427 260.24 226.49 259.771C226.552 259.297 226.583 258.823 226.589 258.349C226.589 257.875 226.557 257.401 226.495 256.927C226.432 256.453 226.339 255.99 226.214 255.531C226.094 255.073 225.938 254.62 225.755 254.182C225.573 253.74 225.365 253.318 225.125 252.901V252.912Z" fill="white"/>
<path d="M202.833 226.771L205.948 232.136L202.755 233.969L214.484 240.708V227.229L211.292 229.063L208.177 223.698C207.938 223.287 207.672 222.891 207.38 222.516C207.089 222.136 206.776 221.781 206.438 221.443C206.099 221.104 205.74 220.792 205.359 220.505C204.984 220.214 204.583 219.953 204.172 219.714C203.76 219.474 203.328 219.266 202.891 219.083C202.448 218.901 201.995 218.75 201.531 218.625C201.073 218.5 200.604 218.412 200.13 218.349C199.656 218.287 199.182 218.255 198.703 218.255C198.224 218.255 197.75 218.287 197.276 218.349C196.802 218.412 196.333 218.5 195.87 218.625C195.406 218.75 194.958 218.901 194.516 219.083C194.073 219.266 193.646 219.474 193.234 219.714C192.818 219.953 192.422 220.214 192.042 220.505C191.662 220.792 191.302 221.104 190.964 221.443C190.63 221.781 190.313 222.136 190.021 222.516C189.729 222.891 189.469 223.287 189.229 223.698L181.26 237.427L186.604 240.5L194.573 226.771C195 226.037 195.583 225.453 196.318 225.031C197.057 224.61 197.854 224.396 198.703 224.396C199.557 224.396 200.354 224.61 201.089 225.031C201.828 225.453 202.412 226.037 202.839 226.771H202.833Z" fill="white"/>
<path d="M247.271 177.448H149.828L156.536 151.927C156.813 150.891 157.245 149.927 157.839 149.036C158.427 148.146 159.151 147.37 160 146.719C160.854 146.063 161.786 145.568 162.802 145.219C163.818 144.875 164.865 144.703 165.943 144.703H231.161C232.24 144.703 233.281 144.875 234.302 145.219C235.318 145.568 236.25 146.063 237.099 146.719C237.953 147.37 238.672 148.146 239.266 149.036C239.859 149.927 240.292 150.891 240.562 151.927L247.271 177.448Z" fill="#FFAE00"/>
<path d="M162.042 168.073L165.662 154.312C165.698 154.167 165.792 154.094 165.943 154.094H231.162C231.313 154.094 231.406 154.167 231.443 154.312L235.063 168.073H162.042Z" fill="black" fill-opacity="0.52"/>
<path d="M244.859 180.047C244.115 179.261 243.208 178.787 242.135 178.62C241.891 178.583 241.646 178.568 241.401 178.568H155.713C155.391 178.568 155.068 178.599 154.75 178.662C154.432 178.729 154.125 178.823 153.828 178.953C153.531 179.078 153.25 179.235 152.984 179.422C152.719 179.604 152.479 179.813 152.255 180.047C152.031 180.281 151.833 180.537 151.667 180.807C151.495 181.083 151.354 181.37 151.245 181.672C151.13 181.979 151.052 182.287 151.005 182.604C150.958 182.927 150.943 183.245 150.958 183.568L151.458 192.386H217.328L211.448 296.552C211.411 297.156 211.266 297.735 211.01 298.281C210.755 298.828 210.406 299.313 209.963 299.724C209.521 300.141 209.016 300.458 208.453 300.682C207.885 300.906 207.302 301.021 206.693 301.021H157.588L157.948 307.432C157.984 308.037 158.13 308.61 158.385 309.156C158.646 309.708 158.995 310.188 159.437 310.604C159.875 311.021 160.38 311.339 160.948 311.563C161.51 311.787 162.094 311.896 162.703 311.896H234.406C235.016 311.896 235.599 311.787 236.167 311.563C236.729 311.339 237.234 311.021 237.677 310.604C238.12 310.188 238.469 309.708 238.724 309.156C238.979 308.61 239.125 308.037 239.161 307.432L246.141 183.563C246.224 182.203 245.797 181.037 244.859 180.047Z" fill="black" fill-opacity="0.16"/>
<mask id="mask9_85_309" style="mask-type:luminance" maskUnits="userSpaceOnUse" x="139" y="166" width="117" height="24">
<path d="M139.859 166.667H255.974V189.333H139.859V166.667Z" fill="white"/>
</mask>
<g mask="url(#mask9_85_309)">
<path d="M145.38 167.682H251.724C252.422 167.682 253.094 167.812 253.74 168.078C254.385 168.344 254.953 168.724 255.448 169.219C255.943 169.708 256.323 170.276 256.594 170.917C256.859 171.557 256.995 172.229 256.995 172.922V183.12C256.995 183.812 256.859 184.484 256.594 185.125C256.323 185.765 255.943 186.333 255.448 186.828C254.953 187.318 254.385 187.698 253.74 187.963C253.094 188.229 252.422 188.359 251.724 188.359H145.38C144.677 188.359 144.005 188.229 143.365 187.963C142.719 187.698 142.146 187.318 141.651 186.828C141.161 186.333 140.781 185.765 140.51 185.125C140.245 184.484 140.109 183.812 140.109 183.12V172.922C140.109 172.229 140.245 171.557 140.51 170.917C140.781 170.276 141.161 169.708 141.651 169.219C142.146 168.724 142.719 168.344 143.365 168.078C144.005 167.812 144.677 167.682 145.38 167.682Z" fill="#FFAE00"/>
</g>
<path d="M145.109 171.547H197.687C198.031 171.547 198.328 171.667 198.568 171.911C198.812 172.151 198.932 172.443 198.932 172.786V175.203C198.932 175.547 198.812 175.839 198.568 176.078C198.328 176.323 198.031 176.443 197.687 176.443H145.109C144.766 176.443 144.474 176.323 144.229 176.078C143.984 175.839 143.865 175.547 143.865 175.203V172.786C143.865 172.443 143.984 172.151 144.229 171.911C144.474 171.667 144.766 171.547 145.109 171.547Z" fill="white" fill-opacity="0.1"/>
<path d="M203.984 171.547H211.88C212.224 171.547 212.516 171.667 212.76 171.911C213.005 172.151 213.125 172.443 213.125 172.786V175.203C213.125 175.547 213.005 175.839 212.76 176.078C212.516 176.323 212.224 176.443 211.88 176.443H203.984C203.641 176.443 203.344 176.323 203.099 176.078C202.859 175.839 202.734 175.547 202.734 175.203V172.786C202.734 172.443 202.859 172.151 203.099 171.911C203.344 171.667 203.641 171.547 203.984 171.547Z" fill="white" fill-opacity="0.1"/>
<path d="M217.062 44.7864C217.422 45.8385 218.031 46.7187 218.891 47.4323C219.021 47.5416 219.266 47.8698 219.172 48.0156C219.057 48.1614 218.917 48.2552 218.74 48.3021C217.958 48.5521 217 48.3854 216.391 48.9375C215.651 49.6146 214.823 50.5781 213.828 50.4062C212.625 50.1979 212.177 48.5833 211.042 48.1354C210.729 48.0104 210.375 47.9791 210.073 47.8281C209.443 47.4948 209.219 46.7343 208.969 46.0729C208.49 44.8073 207.75 43.7135 206.755 42.7968C206.453 42.526 206.125 42.2604 205.974 41.8854C205.87 41.5937 205.833 41.2916 205.865 40.9843C205.958 38.3021 206.87 35.9323 208.594 33.8698C208.703 33.7343 208.828 33.6093 208.974 33.5104C209.635 33.0833 210.495 33.5729 211.12 34.0521L209.844 38.1093C210.177 37.9948 210.698 37.6146 210.854 37.3073C210.969 37.0781 211.021 36.8229 211.172 36.6198C211.448 36.25 211.99 36.1771 212.448 36.2604C213.328 36.4271 214.052 37.0416 214.797 37.5416C215.536 38.0416 216.458 38.4583 217.312 38.1823C217.505 38.1198 217.755 38.0364 217.885 38.1927C217.932 38.2552 217.958 38.3333 217.964 38.4114C218.13 39.4635 218.193 40.5208 218.135 41.5885C218.141 41.8646 218.089 42.1302 217.984 42.3906C217.818 42.7448 217.49 42.9948 217.266 43.3073C217.047 43.625 216.932 44.4166 217.062 44.7864Z" fill="#81C1ED"/>
<path d="M216.25 45.0885C216.292 44.0885 216.563 43.151 217.063 42.276C217.177 42.0781 217.307 41.8333 217.193 41.6354C217.078 41.4323 216.745 41.4323 216.547 41.5781C216.365 41.7448 216.219 41.9375 216.109 42.1615C215.661 42.8385 215.031 43.224 214.219 43.3073C214.151 43.3177 214.083 43.3073 214.021 43.2812C213.969 43.2448 213.927 43.1979 213.896 43.1458L212.969 41.6979C212.76 42.0781 212.49 42.4115 212.161 42.6927C211.818 42.9531 211.339 43.0833 210.943 42.9062C210.417 42.6719 210.24 42.0156 210.26 41.4427C210.292 40.4531 210.651 39.599 211.344 38.8854C211.344 38.5833 210.964 38.401 210.667 38.4688C210.37 38.5417 210.151 38.7813 209.948 39.0052L209.151 39.8802C208.958 40.0937 208.635 40.3229 208.417 40.1302C208.281 40.0104 208.297 39.8021 208.323 39.6198L208.536 38.0781C208.005 38.526 207.88 39.2708 207.786 39.9531C207.688 40.6875 207.594 41.4687 207.943 42.1198C208.344 42.8646 209.208 43.2187 210.031 43.4062C210.135 43.4219 210.224 43.4583 210.307 43.5208C210.453 43.6458 210.432 43.875 210.495 44.0521C210.651 44.4844 211.234 44.5729 211.682 44.474C212.135 44.375 212.599 44.1719 213.036 44.3073C213.479 44.4427 213.76 44.875 213.927 45.3073C214.089 45.7396 214.182 46.2083 214.443 46.5885C214.833 47.1354 215.365 47.3802 216.036 47.3125C216.182 47.2813 216.328 47.276 216.474 47.2969C216.615 47.3333 216.745 47.474 216.708 47.6146C216.672 47.6979 216.62 47.7604 216.552 47.8021L215.063 48.9635C214.917 49.0938 214.75 49.1875 214.563 49.2396C214.115 49.3281 213.719 48.901 213.583 48.4635C213.448 48.0313 213.469 47.5521 213.307 47.1302C212.844 47.2813 212.365 47.349 211.875 47.3333C211.391 47.2917 210.891 47.0469 210.688 46.6042C211.13 47.2292 211.724 47.6563 212.458 47.8802C212.573 47.9063 212.677 47.9479 212.776 48.0052C213.005 48.1615 213.057 48.4635 213.156 48.7188C213.411 49.3646 214.214 49.8125 214.823 49.4844C215.021 49.3646 215.193 49.2135 215.349 49.0365C215.786 48.6146 216.286 48.2917 216.859 48.0677C217.135 47.9635 218.073 47.901 218.094 47.5729C218.115 47.2396 217.318 46.8177 217.115 46.6667C216.526 46.2396 216.224 45.849 216.25 45.0885Z" fill="black" fill-opacity="0.12"/>
<path d="M164.266 50.2241C163.198 50.5679 162.307 51.1564 161.578 52.0054C161.464 52.1356 161.135 52.37 160.984 52.2762C160.844 52.1616 160.75 52.0158 160.708 51.8387C160.464 51.0575 160.651 50.1095 160.104 49.495C159.438 48.745 158.484 47.9064 158.672 46.922C158.901 45.7241 160.526 45.3075 161 44.1825C161.13 43.87 161.167 43.521 161.323 43.2241C161.656 42.6043 162.432 42.4012 163.104 42.1512C164.38 41.6981 165.49 40.9793 166.427 40.0002C166.708 39.7085 166.979 39.3856 167.359 39.2397C167.651 39.146 167.953 39.1147 168.26 39.146C170.953 39.2814 173.318 40.2293 175.365 41.9793C175.5 42.0887 175.62 42.2137 175.719 42.3595C176.141 43.021 175.63 43.87 175.141 44.4845L171.083 43.1616C171.193 43.495 171.568 44.0158 171.875 44.1772C172.099 44.297 172.359 44.3439 172.557 44.5106C172.927 44.7918 172.99 45.3387 172.891 45.7866C172.708 46.6616 172.083 47.37 171.573 48.1043C171.057 48.8387 170.62 49.745 170.885 50.5991C170.948 50.7918 171.026 51.0418 170.87 51.1668C170.802 51.2137 170.724 51.2397 170.646 51.2397C169.583 51.396 168.521 51.4377 167.453 51.3647C167.172 51.3595 166.906 51.3075 166.646 51.2033C166.297 51.0366 166.052 50.7033 165.734 50.4689C165.422 50.2345 164.635 50.1095 164.266 50.2241Z" fill="#81C1ED"/>
<path d="M163.969 49.4113C164.979 49.4634 165.917 49.7499 166.786 50.2655C166.984 50.3853 167.229 50.5155 167.432 50.4061C167.635 50.2916 167.641 49.9582 167.5 49.7603C167.333 49.578 167.141 49.427 166.922 49.3176C166.245 48.8645 165.87 48.2291 165.802 47.4218C165.792 47.3541 165.797 47.2863 165.828 47.2238C165.864 47.1718 165.911 47.1301 165.969 47.0988L167.432 46.203C167.052 45.9843 166.719 45.7082 166.437 45.3749C166.177 45.0259 166.057 44.5468 166.239 44.1613C166.484 43.6405 167.151 43.4738 167.724 43.4999C168.719 43.5468 169.568 43.9218 170.271 44.6197C170.578 44.6197 170.771 44.2499 170.698 43.9582C170.63 43.6666 170.401 43.4374 170.177 43.2291L169.307 42.427C169.094 42.2343 168.875 41.9061 169.068 41.6926C169.193 41.5624 169.401 41.578 169.583 41.6041L171.13 41.8436C170.687 41.3124 169.937 41.1718 169.255 41.0676C168.526 40.9582 167.734 40.8541 167.078 41.1874C166.328 41.5728 165.953 42.4322 165.75 43.2499C165.734 43.3488 165.693 43.4374 165.635 43.5207C165.5 43.6613 165.276 43.6353 165.094 43.6978C164.656 43.8436 164.562 44.4218 164.651 44.8749C164.745 45.3228 164.937 45.7863 164.797 46.2238C164.656 46.6613 164.213 46.9322 163.776 47.0884C163.338 47.2499 162.87 47.3332 162.484 47.5884C161.927 47.9634 161.672 48.4895 161.729 49.1613C161.755 49.302 161.755 49.4478 161.729 49.5936C161.698 49.7707 161.588 49.8488 161.406 49.8228C161.328 49.7863 161.266 49.7291 161.224 49.6561L160.083 48.1561C159.953 48.0103 159.859 47.8488 159.812 47.6613C159.729 47.2134 160.167 46.8332 160.604 46.6978C161.042 46.5624 161.521 46.5988 161.953 46.4478C161.833 45.9738 161.719 45.4947 161.766 45.0155C161.818 44.5311 162.073 44.0416 162.516 43.8436C161.885 44.2759 161.448 44.8593 161.208 45.5884C161.182 45.6978 161.135 45.802 161.078 45.9009C160.911 46.1249 160.609 46.1718 160.354 46.2707C159.703 46.5103 159.239 47.302 159.557 47.9166C159.677 48.1145 159.828 48.2916 160 48.4478C160.422 48.8905 160.734 49.3957 160.948 49.9634C161.052 50.2395 161.094 51.177 161.422 51.203C161.755 51.2343 162.193 50.4426 162.349 50.2395C162.807 49.6718 163.208 49.3697 163.969 49.4113Z" fill="black" fill-opacity="0.12"/>
<path d="M210.162 82.1304C211.313 81.9845 212.677 81.6772 213.078 80.5939C213.307 79.9585 213.115 79.2501 212.912 78.6095L210.172 69.6043C210.005 69.0783 209.844 68.547 209.516 68.1147C208.516 66.8022 206.479 66.9116 204.938 67.5106C203.396 68.1095 201.922 69.0783 200.266 69.0679C198.615 69.0574 196.865 67.3543 197.635 65.896C203.037 65.2449 208.219 63.797 213.172 61.5626C214.896 60.7866 216.615 59.9064 218.495 59.6616C220.26 59.4324 222.089 59.7814 223.813 59.3283C224.974 59.0158 226.026 58.3387 227.167 57.9324C228.307 57.5262 229.688 57.422 230.641 58.1772C231.484 58.8491 231.75 60.0001 231.958 61.0574L233.37 68.2085C233.635 69.5418 233.901 70.9376 233.537 72.2449C233.135 73.6876 231.995 74.9585 232.109 76.4481C232.219 77.8387 233.427 79.0366 233.287 80.4272C233.167 81.5522 232.162 82.4116 231.078 82.7554C229.99 83.0939 228.828 83.0106 227.693 82.9845C221.682 82.8491 215.771 84.2501 210.104 86.1304C207.953 86.8387 204.516 88.9793 202.245 88.7137C199.75 88.4168 199.875 85.3491 200.094 83.4689C203.276 82.6147 206.88 82.5366 210.162 82.1304Z" fill="#81C1ED"/>
<path d="M220.286 61.5258C221.516 61.4685 222.776 61.5675 223.969 61.255C225.135 60.9425 226.161 60.2602 227.297 59.8279C227.792 59.6404 228.38 59.5154 228.818 59.8123C229.109 60.0102 229.26 60.3592 229.396 60.6873C231 64.6248 232.177 68.9269 231.406 73.1092C231.042 75.0467 230.302 76.8279 229.182 78.4581C229.698 75.9321 229.594 73.3279 229.489 70.7654C229.469 70.2498 229.437 69.7029 229.125 69.2967C228.812 68.8904 228.109 68.7446 227.792 69.1508C227.271 68.0519 227.239 66.9425 227.698 65.8123C227.849 65.4477 228.052 65.0831 228.01 64.6925C227.943 64.1092 227.333 63.729 226.755 63.6352C225.088 63.3696 223.547 64.8227 223.109 66.4477C222.672 68.0675 223.042 69.7758 223.411 71.4113C223.114 71.8956 222.302 71.8227 221.943 71.3748C221.583 70.9269 221.594 70.2863 221.745 69.7342C221.901 69.1821 222.172 68.6717 222.302 68.1144C222.437 67.4946 222.401 66.8852 222.182 66.2863C221.969 65.6873 221.609 65.1925 221.104 64.8019C220.266 64.1665 219.198 64.005 218.161 64.0102C217.344 64.0102 216.239 64.4321 215.687 63.604C214.557 61.9113 219.338 61.5727 220.286 61.5258Z" fill="black" fill-opacity="0.1"/>
<path d="M227.859 31.4479C227.646 31.7604 227.453 32.2083 227.859 32.8854C228.13 33.2812 228.453 33.6354 228.823 33.9375L233.672 38.2968C233.938 38.552 234.219 38.7812 234.526 38.9843C235.38 39.4948 235.823 39.0156 235.922 38.3698C236.021 37.7291 235.932 36.8958 236.344 36.5625C236.75 36.2291 237.969 36.7968 238.458 37.7552C237.448 39.2083 236.844 41.0937 236.672 43.3177C236.609 44.0937 236.604 44.9323 236.255 45.4479C235.922 45.9323 235.318 46.1198 235.115 46.7239C234.974 47.1354 235.031 47.7187 234.948 48.177C234.865 48.6354 234.568 48.9739 233.984 48.7552C233.469 48.5625 232.87 47.9895 232.323 47.4531L228.667 43.8385C227.984 43.1614 227.271 42.4531 226.755 41.6614C226.182 40.7916 225.87 39.8645 225.151 39.0729C224.49 38.3333 223.63 37.927 223.021 37.1354C222.521 36.5 222.37 35.8125 222.479 35.4114C222.589 35.0104 222.906 34.8125 223.198 34.5833C224.729 33.427 225.526 31.4427 226.042 29.2552C226.234 28.427 226.083 26.5468 226.76 26.2291C227.505 25.875 228.901 27.5833 229.719 28.651C229.318 29.7604 228.474 30.5468 227.859 31.4479Z" fill="#002E3F"/>
<path d="M234.948 44.7863C234.672 45.0728 234.318 45.2863 234.172 45.6978C234.026 46.1092 234.099 46.6873 234.026 47.1561C233.99 47.3592 233.906 47.5467 233.661 47.4842C233.458 47.4009 233.276 47.2811 233.115 47.1248C230.891 45.3071 228.609 43.1925 226.859 40.7498C226.088 39.6925 225.443 38.5675 224.911 37.3696C225.953 38.8592 227.187 40.255 228.401 41.6353C228.625 41.9165 228.88 42.1613 229.172 42.3644C229.437 42.5311 229.672 42.4582 229.562 42.1665C230.198 42.6717 230.724 43.2759 231.135 43.9738C231.255 44.2186 231.406 44.4425 231.578 44.6509C231.865 44.9582 232.193 45.0415 232.38 44.9738C232.906 44.7759 232.609 43.6665 231.963 42.6925C231.323 41.7186 230.437 40.8592 229.588 40.0467C229.437 39.7134 229.667 39.5936 229.963 39.7603C230.297 39.9894 230.562 40.2759 230.776 40.6144C230.995 40.9478 231.167 41.2863 231.391 41.6196C231.891 42.3384 232.63 42.9738 233.219 43.1821C233.719 43.3592 234.052 43.229 234.307 43.0155C234.5 42.8488 234.578 42.3905 235.099 42.729C236.167 43.4009 235.156 44.5675 234.948 44.7863Z" fill="black" fill-opacity="0.1"/>
<path d="M195.557 21.3696C200.297 22.4738 203.203 25.4113 204.26 30.1821L186.99 49.8853L175.479 38.2342L195.557 21.3696Z" fill="#00587F"/>
<path d="M204.219 30.1825L195.542 21.4012L200.214 16.8335L208.891 25.6095L204.219 30.1825Z" fill="#002E3F"/>
<path d="M196.406 34.3491C196.406 35.0418 196.276 35.7085 196.01 36.3491C195.74 36.9897 195.359 37.5575 194.87 38.047C194.375 38.5366 193.807 38.9168 193.161 39.1825C192.521 39.4481 191.849 39.5783 191.151 39.5783C190.453 39.5783 189.786 39.4481 189.141 39.1825C188.495 38.9168 187.927 38.5366 187.437 38.047C186.943 37.5575 186.562 36.9897 186.297 36.3491C186.031 35.7085 185.896 35.0418 185.896 34.3491C185.896 33.6564 186.031 32.9897 186.297 32.3491C186.562 31.7033 186.943 31.1408 187.437 30.6512C187.927 30.1564 188.495 29.7814 189.141 29.5158C189.786 29.2502 190.453 29.1147 191.151 29.1147C191.849 29.1147 192.521 29.2502 193.161 29.5158C193.807 29.7814 194.375 30.1564 194.87 30.6512C195.359 31.1408 195.74 31.7033 196.01 32.3491C196.276 32.9897 196.406 33.6564 196.406 34.3491Z" fill="#81C1ED"/>
<path d="M177.963 40.3802L186.974 49.4948L188.708 47.5208L179.979 38.6875L196.687 24.651L196.75 24.6667L201.312 20.1979L207.594 26.5521L208.557 25.6094L200.25 17.2031L195.687 21.6719L195.656 21.6667L195.62 21.6562L177.88 36.5625H177.875L175.865 38.2552L177.963 40.3802Z" fill="black" fill-opacity="0.1"/>
<path d="M175.865 56.9634L196.396 76.7446C199.078 79.328 190.172 88.4946 187.49 85.9061L166.953 66.1248C166.057 65.2603 166.099 63.9269 166.698 62.5155C166.818 62.2342 166.849 61.9478 166.787 61.6509C166.724 61.354 166.583 61.0988 166.365 60.8853L164.589 59.1717L168.807 54.8384L170.583 56.5519C170.802 56.7603 171.063 56.8905 171.365 56.9425C171.662 56.9946 171.953 56.953 172.229 56.828C173.625 56.1873 174.964 56.0988 175.865 56.9634Z" fill="#81C1ED"/>
<path d="M178.958 60.5312L186.807 68.0885C184.688 71.5729 181.912 74.4271 178.484 76.651L170.635 69.0938C173.823 66.6354 176.557 63.7396 178.958 60.5312Z" fill="#0057FF"/>
<path d="M172.401 57.2085C172.047 57.37 171.677 57.4168 171.292 57.3543C170.906 57.2866 170.573 57.12 170.292 56.8491L168.812 55.4272L167.453 56.8283L168.302 57.6408C168.583 57.9116 168.917 58.0783 169.302 58.146C169.688 58.2085 170.057 58.1616 170.417 57.995C171.375 57.5575 172.703 57.2085 173.583 58.0575L194.12 77.8387C195.229 78.9064 193.682 81.6877 191.667 83.7658C190.865 84.5939 189.979 85.3179 189 85.9272C190.328 85.7606 192.182 84.4845 193.651 82.9741C195.672 80.896 197.214 78.1147 196.104 77.047L175.573 57.2658C174.693 56.4168 173.365 56.7658 172.401 57.2085Z" fill="black" fill-opacity="0.1"/>
<path d="M168.859 54.328L170.213 55.6353C170.292 55.7134 170.333 55.8071 170.338 55.9165C170.338 56.0259 170.302 56.1248 170.224 56.203L165.911 60.6405C165.833 60.7186 165.74 60.755 165.625 60.755C165.516 60.755 165.422 60.7186 165.344 60.6405L163.984 59.3332C163.906 59.255 163.865 59.1613 163.865 59.0519C163.859 58.9425 163.896 58.8436 163.974 58.7655L168.286 54.3332C168.365 54.255 168.458 54.2134 168.573 54.2134C168.682 54.2134 168.776 54.2498 168.859 54.328Z" fill="#0057FF"/>
<path d="M203.651 55.9321C204.734 54.9582 205.042 53.5415 204.338 52.7655C203.63 51.9894 202.182 52.1509 201.104 53.1248C200.187 53.953 199.828 55.078 200.161 55.88L194.344 60.8696C194.203 60.9894 194.13 61.1405 194.114 61.3228C194.104 61.505 194.161 61.6613 194.281 61.7967C194.406 61.9321 194.557 62.005 194.739 62.0103C194.922 62.0155 195.083 61.9582 195.213 61.8332L200.792 56.5884C201.562 56.9946 202.734 56.755 203.651 55.9321Z" fill="#D9D4B2"/>
<path d="M172.74 75.3228C172.464 73.8957 171.406 72.9009 170.37 73.0988C169.333 73.2915 168.729 74.6144 169.005 76.0363C169.234 77.2394 170.026 78.1353 170.885 78.2707L172.161 85.8019C172.198 85.979 172.286 86.1144 172.438 86.2186C172.589 86.3176 172.75 86.354 172.927 86.3176C173.104 86.2811 173.245 86.1926 173.344 86.0415C173.443 85.8957 173.479 85.729 173.443 85.5571L171.818 78.0884C172.568 77.6509 172.969 76.5259 172.74 75.3228Z" fill="#D9D4B2"/>
<path d="M188.844 97.1665V113.932H178.547L198.552 136.286L218.557 113.932H208.26V97.1665H188.844Z" fill="#FFAE00"/>
</g>
<defs>
<linearGradient id="paint0_linear_85_309" x1="196.193" y1="38.6443" x2="196.193" y2="321.31" gradientUnits="userSpaceOnUse">
<stop stop-color="#9BFFF2"/>
<stop offset="0.00390625" stop-color="#9CFFF2"/>
<stop offset="0.0078125" stop-color="#9CFFF2"/>
<stop offset="0.0117188" stop-color="#9DFFF1"/>
<stop offset="0.015625" stop-color="#9EFFF1"/>
<stop offset="0.0195312" stop-color="#9FFFF1"/>
<stop offset="0.0234375" stop-color="#9FFFF1"/>
<stop offset="0.0273438" stop-color="#A0FFF1"/>
<stop offset="0.03125" stop-color="#A1FFF0"/>
<stop offset="0.0351562" stop-color="#A1FFF0"/>
<stop offset="0.0390625" stop-color="#A2FFF0"/>
<stop offset="0.0429688" stop-color="#A3FFF0"/>
<stop offset="0.046875" stop-color="#A4FFEF"/>
<stop offset="0.0507812" stop-color="#A4FFEF"/>
<stop offset="0.0546875" stop-color="#A5FFEF"/>
<stop offset="0.0585938" stop-color="#A6FFEF"/>
<stop offset="0.0625" stop-color="#A6FFEF"/>
<stop offset="0.0664063" stop-color="#A7FFEE"/>
<stop offset="0.0703125" stop-color="#A8FFEE"/>
<stop offset="0.0742187" stop-color="#A9FFEE"/>
<stop offset="0.078125" stop-color="#A9FFEE"/>
<stop offset="0.0820313" stop-color="#AAFFEE"/>
<stop offset="0.0859375" stop-color="#ABFEED"/>
<stop offset="0.0898437" stop-color="#ABFEED"/>
<stop offset="0.09375" stop-color="#ACFEED"/>
<stop offset="0.0976563" stop-color="#ADFEED"/>
<stop offset="0.101562" stop-color="#AEFEED"/>
<stop offset="0.105469" stop-color="#AEFEEC"/>
<stop offset="0.109375" stop-color="#AFFEEC"/>
<stop offset="0.113281" stop-color="#B0FEEC"/>
<stop offset="0.117188" stop-color="#B0FEEC"/>
<stop offset="0.121094" stop-color="#B1FEEB"/>
<stop offset="0.125" stop-color="#B2FEEB"/>
<stop offset="0.128906" stop-color="#B3FEEB"/>
<stop offset="0.132813" stop-color="#B3FEEB"/>
<stop offset="0.136719" stop-color="#B4FEEB"/>
<stop offset="0.140625" stop-color="#B5FEEA"/>
<stop offset="0.144531" stop-color="#B5FEEA"/>
<stop offset="0.148437" stop-color="#B6FEEA"/>
<stop offset="0.152344" stop-color="#B7FEEA"/>
<stop offset="0.15625" stop-color="#B8FEEA"/>
<stop offset="0.160156" stop-color="#B8FEE9"/>
<stop offset="0.164063" stop-color="#B9FEE9"/>
<stop offset="0.167969" stop-color="#BAFEE9"/>
<stop offset="0.171875" stop-color="#BAFEE9"/>
<stop offset="0.175781" stop-color="#BBFEE8"/>
<stop offset="0.179687" stop-color="#BCFEE8"/>
<stop offset="0.183594" stop-color="#BDFEE8"/>
<stop offset="0.1875" stop-color="#BDFEE8"/>
<stop offset="0.191406" stop-color="#BEFEE8"/>
<stop offset="0.195313" stop-color="#BFFEE7"/>
<stop offset="0.199219" stop-color="#BFFEE7"/>
<stop offset="0.203125" stop-color="#C0FEE7"/>
<stop offset="0.207031" stop-color="#C1FEE7"/>
<stop offset="0.210937" stop-color="#C2FEE7"/>
<stop offset="0.214844" stop-color="#C2FEE6"/>
<stop offset="0.21875" stop-color="#C3FEE6"/>
<stop offset="0.222656" stop-color="#C4FEE6"/>
<stop offset="0.226563" stop-color="#C5FEE6"/>
<stop offset="0.230469" stop-color="#C5FEE6"/>
<stop offset="0.234375" stop-color="#C6FEE5"/>
<stop offset="0.238281" stop-color="#C7FEE5"/>
<stop offset="0.242187" stop-color="#C7FEE5"/>
<stop offset="0.246094" stop-color="#C8FEE5"/>
<stop offset="0.25" stop-color="#C9FEE4"/>
<stop offset="0.253906" stop-color="#CAFDE4"/>
<stop offset="0.257812" stop-color="#CAFDE4"/>
<stop offset="0.261719" stop-color="#CBFDE4"/>
<stop offset="0.265625" stop-color="#CCFDE4"/>
<stop offset="0.269531" stop-color="#CCFDE3"/>
<stop offset="0.273438" stop-color="#CDFDE3"/>
<stop offset="0.277344" stop-color="#CEFDE3"/>
<stop offset="0.28125" stop-color="#CFFDE3"/>
<stop offset="0.285156" stop-color="#CFFDE3"/>
<stop offset="0.289062" stop-color="#D0FDE2"/>
<stop offset="0.292969" stop-color="#D1FDE2"/>
<stop offset="0.296875" stop-color="#D1FDE2"/>
<stop offset="0.300781" stop-color="#D2FDE2"/>
<stop offset="0.304688" stop-color="#D3FDE2"/>
<stop offset="0.308594" stop-color="#D4FDE1"/>
<stop offset="0.3125" stop-color="#D4FDE1"/>
<stop offset="0.316406" stop-color="#D5FDE1"/>
<stop offset="0.320312" stop-color="#D6FDE1"/>
<stop offset="0.324219" stop-color="#D6FDE0"/>
<stop offset="0.328125" stop-color="#D7FDE0"/>
<stop offset="0.332031" stop-color="#D8FDE0"/>
<stop offset="0.335938" stop-color="#D8FDE0"/>
<stop offset="0.34375" stop-color="#D8FDE0"/>
<stop offset="0.351562" stop-color="#D9FDDF"/>
<stop offset="0.359375" stop-color="#D9FDDF"/>
<stop offset="0.367188" stop-color="#DAFDDF"/>
<stop offset="0.375" stop-color="#DBFDDF"/>
<stop offset="0.382812" stop-color="#DBFDDE"/>
<stop offset="0.390625" stop-color="#DCFDDE"/>
<stop offset="0.398438" stop-color="#DCFDDE"/>
<stop offset="0.40625" stop-color="#DDFDDD"/>
<stop offset="0.414062" stop-color="#DDFDDD"/>
<stop offset="0.421875" stop-color="#DEFEDD"/>
<stop offset="0.429688" stop-color="#DEFEDC"/>
<stop offset="0.4375" stop-color="#DFFEDC"/>
<stop offset="0.445312" stop-color="#DFFEDC"/>
<stop offset="0.453125" stop-color="#E0FEDB"/>
<stop offset="0.460938" stop-color="#E0FEDB"/>
<stop offset="0.46875" stop-color="#E1FEDB"/>
<stop offset="0.476562" stop-color="#E1FEDB"/>
<stop offset="0.484375" stop-color="#E2FEDA"/>
<stop offset="0.492188" stop-color="#E2FEDA"/>
<stop offset="0.5" stop-color="#E3FEDA"/>
<stop offset="0.507812" stop-color="#E3FED9"/>
<stop offset="0.515625" stop-color="#E4FED9"/>
<stop offset="0.523438" stop-color="#E4FED9"/>
<stop offset="0.53125" stop-color="#E5FED8"/>
<stop offset="0.539063" stop-color="#E5FED8"/>
<stop offset="0.546875" stop-color="#E6FED8"/>
<stop offset="0.554688" stop-color="#E6FED8"/>
<stop offset="0.5625" stop-color="#E7FED7"/>
<stop offset="0.570312" stop-color="#E7FED7"/>
<stop offset="0.578125" stop-color="#E8FED7"/>
<stop offset="0.585937" stop-color="#E8FED6"/>
<stop offset="0.59375" stop-color="#E9FFD6"/>
<stop offset="0.601562" stop-color="#E9FFD6"/>
<stop offset="0.609375" stop-color="#EAFFD5"/>
<stop offset="0.617188" stop-color="#EAFFD5"/>
<stop offset="0.625" stop-color="#EBFFD5"/>
<stop offset="0.632812" stop-color="#EBFFD4"/>
<stop offset="0.640625" stop-color="#ECFFD4"/>
<stop offset="0.648438" stop-color="#EDFFD4"/>
<stop offset="0.65625" stop-color="#EDFFD4"/>
<stop offset="0.671875" stop-color="#EEFFD3"/>
<stop offset="0.6875" stop-color="#EFFFD2"/>
<stop offset="0.703125" stop-color="#EFFFD2"/>
<stop offset="0.71875" stop-color="#F0FFD1"/>
<stop offset="0.734375" stop-color="#F1FFD0"/>
<stop offset="0.75" stop-color="#F2FFCF"/>
<stop offset="0.765625" stop-color="#F2FECF"/>
<stop offset="0.78125" stop-color="#F3FECE"/>
<stop offset="0.796875" stop-color="#F4FECD"/>
<stop offset="0.8125" stop-color="#F5FECC"/>
<stop offset="0.828125" stop-color="#F5FECC"/>
<stop offset="0.84375" stop-color="#F6FECB"/>
<stop offset="0.859375" stop-color="#F7FECA"/>
<stop offset="0.875" stop-color="#F8FEC9"/>
<stop offset="0.890625" stop-color="#F8FEC9"/>
<stop offset="0.90625" stop-color="#F9FEC8"/>
<stop offset="0.921875" stop-color="#FAFEC7"/>
<stop offset="0.9375" stop-color="#FBFDC6"/>
<stop offset="0.953125" stop-color="#FBFDC6"/>
<stop offset="0.96875" stop-color="#FCFDC5"/>
<stop offset="0.984375" stop-color="#FDFDC4"/>
<stop offset="1" stop-color="#FEFDC3"/>
</linearGradient>
</defs>
</svg>
