<svg width="283" height="331" viewBox="0 0 283 331" fill="none" xmlns="http://www.w3.org/2000/svg">
<mask id="mask0_85_88" style="mask-type:luminance" maskUnits="userSpaceOnUse" x="0" y="0" width="283" height="331">
<path d="M282.667 0H0V330.667H282.667V0Z" fill="white"/>
</mask>
<g mask="url(#mask0_85_88)">
<mask id="mask1_85_88" style="mask-type:luminance" maskUnits="userSpaceOnUse" x="1" y="47" width="282" height="281">
<path d="M1.2865 47.0156H282.047V327.781H1.2865V47.0156Z" fill="white"/>
</mask>
<g mask="url(#mask1_85_88)">
<mask id="mask2_85_88" style="mask-type:luminance" maskUnits="userSpaceOnUse" x="1" y="47" width="282" height="281">
<path d="M141.667 47.0156C64.1355 47.0156 1.2865 109.87 1.2865 187.396C1.2865 264.927 64.1355 327.781 141.667 327.781C219.198 327.781 282.047 264.927 282.047 187.396C282.047 109.87 219.198 47.0156 141.667 47.0156Z" fill="white"/>
</mask>
<g mask="url(#mask2_85_88)">
<mask id="mask3_85_88" style="mask-type:luminance" maskUnits="userSpaceOnUse" x="0" y="46" width="283" height="282">
<path d="M282.667 46.6665H0V328H282.667V46.6665Z" fill="white"/>
</mask>
<g mask="url(#mask3_85_88)">
<mask id="mask4_85_88" style="mask-type:luminance" maskUnits="userSpaceOnUse" x="1" y="47" width="282" height="281">
<path d="M1.2865 47.0156H282.047V327.781H1.2865V47.0156Z" fill="white"/>
</mask>
<g mask="url(#mask4_85_88)">
<mask id="mask5_85_88" style="mask-type:luminance" maskUnits="userSpaceOnUse" x="1" y="47" width="282" height="281">
<path d="M141.667 47.0156C64.1355 47.0156 1.2865 109.87 1.2865 187.396C1.2865 264.927 64.1355 327.781 141.667 327.781C219.198 327.781 282.047 264.927 282.047 187.396C282.047 109.87 219.198 47.0156 141.667 47.0156Z" fill="white"/>
</mask>
<g mask="url(#mask5_85_88)">
<path d="M1.2865 47.0156V327.781H282.047V47.0156H1.2865Z" fill="url(#paint0_linear_85_88)"/>
</g>
</g>
</g>
</g>
</g>
<mask id="mask6_85_88" style="mask-type:luminance" maskUnits="userSpaceOnUse" x="79" y="1" width="127" height="106">
<path d="M79.6094 1.33838H205.823V106.667H79.6094V1.33838Z" fill="white"/>
</mask>
<g mask="url(#mask6_85_88)">
<path d="M-177.354 1.36426H329.875V106.521H-177.354V1.36426Z" fill="#F2F2F2"/>
</g>
<mask id="mask7_85_88" style="mask-type:luminance" maskUnits="userSpaceOnUse" x="108" y="316" width="11" height="12">
<path d="M108 316H118.667V327.583H108V316Z" fill="white"/>
</mask>
<g mask="url(#mask7_85_88)">
<path d="M118.214 316.396V325.438C118.214 325.719 118.162 325.99 118.052 326.25C117.948 326.505 117.792 326.735 117.594 326.932C117.396 327.13 117.167 327.287 116.912 327.391C116.651 327.5 116.38 327.552 116.099 327.552H111.297C111.016 327.552 110.745 327.5 110.49 327.391C110.229 327.287 110 327.136 109.802 326.932C109.604 326.735 109.448 326.505 109.344 326.25C109.234 325.99 109.182 325.719 109.182 325.438V316.396H118.214Z" fill="black"/>
</g>
<mask id="mask8_85_88" style="mask-type:luminance" maskUnits="userSpaceOnUse" x="162" y="316" width="12" height="12">
<path d="M162.667 316H173.333V327.583H162.667V316Z" fill="white"/>
</mask>
<g mask="url(#mask8_85_88)">
<path d="M172.792 316.396V325.438C172.792 325.719 172.734 325.99 172.63 326.25C172.521 326.505 172.37 326.735 172.172 326.932C171.974 327.13 171.745 327.287 171.484 327.391C171.224 327.5 170.958 327.552 170.677 327.552H165.875C165.594 327.552 165.323 327.5 165.063 327.391C164.807 327.287 164.578 327.13 164.38 326.932C164.182 326.735 164.026 326.505 163.922 326.25C163.813 325.99 163.76 325.719 163.76 325.438V316.396H172.792Z" fill="black"/>
</g>
<path d="M190.537 187.818L183.432 314.536C183.391 315.302 183.208 316.031 182.885 316.724C182.563 317.417 182.125 318.026 181.568 318.552C181.016 319.078 180.38 319.484 179.672 319.765C178.964 320.047 178.224 320.187 177.458 320.187H104.521C103.755 320.187 103.021 320.047 102.307 319.765C101.599 319.484 100.964 319.078 100.412 318.552C99.8542 318.026 99.4167 317.417 99.0938 316.724C98.7709 316.031 98.5886 315.302 98.5469 314.536L91.448 187.818C91.4219 187.411 91.4428 187.005 91.5001 186.604C91.5626 186.198 91.6615 185.807 91.8021 185.422C91.9376 185.042 92.1146 184.677 92.3334 184.333C92.5469 183.984 92.7917 183.661 93.073 183.37C93.349 183.073 93.6563 182.807 93.9896 182.573C94.323 182.338 94.6771 182.14 95.0521 181.979C95.4271 181.818 95.8126 181.698 96.2084 181.614C96.6094 181.531 97.0105 181.495 97.4167 181.495H184.568C184.974 181.495 185.375 181.536 185.776 181.614C186.172 181.698 186.557 181.823 186.932 181.984C187.307 182.146 187.662 182.344 187.995 182.573C188.328 182.807 188.63 183.073 188.912 183.37C189.193 183.667 189.438 183.984 189.651 184.333C189.865 184.677 190.042 185.042 190.182 185.427C190.318 185.807 190.422 186.203 190.479 186.604C190.537 187.005 190.557 187.411 190.537 187.818Z" fill="#C70000"/>
<path d="M119.703 266.687C119.266 265.937 119.047 265.13 119.047 264.26C119.047 263.39 119.266 262.578 119.703 261.828L121.135 259.344L124.385 261.219V247.432L112.453 254.333L115.703 256.208L114.271 258.693C114.026 259.114 113.812 259.552 113.625 260C113.438 260.448 113.281 260.911 113.156 261.38C113.031 261.849 112.938 262.328 112.875 262.812C112.807 263.292 112.776 263.776 112.776 264.265C112.776 264.75 112.807 265.234 112.875 265.719C112.938 266.203 113.031 266.677 113.156 267.146C113.281 267.62 113.438 268.078 113.625 268.526C113.812 268.979 114.026 269.411 114.266 269.833C114.51 270.255 114.781 270.661 115.078 271.047C115.375 271.432 115.693 271.797 116.036 272.14C116.38 272.489 116.745 272.807 117.13 273.104C117.516 273.401 117.922 273.672 118.344 273.911C118.76 274.156 119.198 274.37 119.646 274.557C120.099 274.745 120.557 274.901 121.026 275.026C121.495 275.151 121.974 275.25 122.453 275.312C122.938 275.375 123.422 275.406 123.906 275.406H139.125V269.125H123.906C123.036 269.125 122.229 268.911 121.474 268.474C120.724 268.042 120.135 267.443 119.703 266.687Z" fill="white"/>
<path d="M168.016 258.698L161.557 247.411L156.109 250.536L162.573 261.833C162.781 262.203 162.943 262.588 163.052 263C163.161 263.411 163.219 263.833 163.214 264.26C163.214 264.682 163.161 265.104 163.052 265.515C162.938 265.922 162.776 266.312 162.562 266.682C162.354 267.052 162.094 267.385 161.797 267.687C161.495 267.989 161.161 268.244 160.792 268.458C160.422 268.672 160.031 268.833 159.625 268.942C159.214 269.052 158.797 269.109 158.37 269.109H154.693V265.359L142.766 272.25L154.693 279.146V275.396H158.37C158.854 275.396 159.339 275.364 159.823 275.297C160.302 275.234 160.781 275.14 161.25 275.015C161.719 274.89 162.177 274.734 162.625 274.547C163.078 274.359 163.51 274.146 163.932 273.901C164.354 273.661 164.755 273.39 165.141 273.093C165.531 272.797 165.896 272.479 166.24 272.135C166.583 271.791 166.901 271.427 167.198 271.036C167.495 270.651 167.766 270.25 168.005 269.828C168.25 269.406 168.464 268.974 168.651 268.521C168.839 268.073 168.995 267.614 169.12 267.14C169.245 266.672 169.339 266.198 169.406 265.713C169.469 265.229 169.5 264.744 169.5 264.26C169.5 263.776 169.469 263.291 169.406 262.807C169.344 262.323 169.25 261.849 169.125 261.375C169 260.906 168.844 260.448 168.656 260C168.474 259.547 168.255 259.114 168.016 258.692V258.698Z" fill="white"/>
<path d="M145.344 231.953L148.505 237.448L145.26 239.323L157.193 246.213V232.427L153.943 234.302L150.781 228.812C150.537 228.39 150.266 227.989 149.969 227.599C149.672 227.213 149.354 226.849 149.01 226.505C148.667 226.161 148.302 225.844 147.917 225.547C147.531 225.25 147.125 224.979 146.703 224.739C146.287 224.495 145.849 224.281 145.401 224.094C144.953 223.906 144.49 223.75 144.021 223.625C143.552 223.5 143.078 223.406 142.594 223.338C142.115 223.276 141.63 223.245 141.141 223.245C140.656 223.245 140.172 223.276 139.688 223.338C139.208 223.406 138.734 223.5 138.26 223.625C137.792 223.75 137.333 223.906 136.885 224.094C136.438 224.281 136 224.495 135.578 224.739C135.156 224.979 134.755 225.25 134.37 225.547C133.984 225.844 133.62 226.161 133.276 226.505C132.932 226.849 132.609 227.213 132.313 227.599C132.016 227.989 131.75 228.39 131.505 228.812L123.401 242.859L128.839 246.005L136.943 231.953C137.156 231.583 137.412 231.25 137.714 230.948C138.016 230.646 138.349 230.39 138.719 230.177C139.089 229.963 139.479 229.802 139.891 229.693C140.302 229.583 140.719 229.526 141.146 229.526C141.573 229.526 141.99 229.583 142.401 229.693C142.813 229.802 143.203 229.963 143.573 230.177C143.943 230.39 144.276 230.646 144.578 230.948C144.88 231.25 145.135 231.583 145.349 231.953H145.344Z" fill="white"/>
<path d="M190.542 181.5H91.4324L98.2501 155.391C98.5313 154.333 98.9688 153.344 99.573 152.432C100.177 151.521 100.912 150.729 101.776 150.062C102.641 149.391 103.589 148.88 104.625 148.526C105.662 148.177 106.724 148 107.818 148H174.156C175.25 148 176.313 148.177 177.349 148.526C178.385 148.88 179.333 149.391 180.198 150.062C181.063 150.729 181.797 151.521 182.401 152.432C183.005 153.344 183.448 154.333 183.724 155.391L190.542 181.5Z" fill="#C70000"/>
<path d="M103.849 171.906L107.531 157.828C107.568 157.682 107.667 157.609 107.818 157.609H174.156C174.313 157.609 174.406 157.682 174.443 157.828L178.125 171.906H103.849Z" fill="black" fill-opacity="0.52"/>
<path d="M188.078 184.156C187.323 183.354 186.401 182.865 185.313 182.698C185.063 182.661 184.813 182.641 184.563 182.641H97.4115C97.0834 182.641 96.7553 182.677 96.4324 182.74C96.1147 182.807 95.8021 182.906 95.4949 183.036C95.1928 183.167 94.9115 183.328 94.6407 183.516C94.3699 183.703 94.1199 183.917 93.8959 184.156C93.6667 184.396 93.4688 184.656 93.2969 184.938C93.1251 185.219 92.9792 185.51 92.8646 185.823C92.7553 186.13 92.6719 186.448 92.6251 186.776C92.573 187.099 92.5626 187.427 92.5782 187.76L93.0834 196.776H160.083L154.109 303.344C154.073 303.964 153.927 304.552 153.667 305.115C153.406 305.672 153.047 306.167 152.599 306.589C152.151 307.016 151.635 307.344 151.063 307.573C150.49 307.802 149.891 307.911 149.276 307.911H99.3178L99.6824 314.474C99.7188 315.089 99.8699 315.677 100.13 316.24C100.391 316.802 100.745 317.292 101.198 317.719C101.646 318.146 102.156 318.469 102.729 318.698C103.307 318.927 103.901 319.042 104.521 319.042H177.453C178.073 319.042 178.667 318.927 179.245 318.698C179.818 318.469 180.328 318.141 180.776 317.719C181.229 317.292 181.583 316.802 181.844 316.24C182.104 315.677 182.255 315.089 182.287 314.474L189.391 187.755C189.474 186.365 189.037 185.167 188.078 184.156Z" fill="black" fill-opacity="0.16"/>
<path d="M86.901 171.505H195.073C195.422 171.505 195.771 171.541 196.12 171.609C196.464 171.677 196.797 171.781 197.125 171.916C197.448 172.047 197.755 172.213 198.047 172.411C198.344 172.604 198.615 172.828 198.859 173.078C199.109 173.328 199.333 173.599 199.526 173.89C199.724 174.182 199.885 174.489 200.021 174.817C200.156 175.14 200.26 175.479 200.328 175.823C200.396 176.166 200.432 176.515 200.432 176.869V187.297C200.432 187.651 200.396 188 200.328 188.343C200.26 188.692 200.156 189.026 200.021 189.354C199.885 189.677 199.724 189.984 199.526 190.281C199.333 190.573 199.109 190.843 198.859 191.093C198.615 191.338 198.344 191.562 198.047 191.76C197.755 191.953 197.448 192.119 197.125 192.255C196.797 192.39 196.464 192.489 196.12 192.562C195.771 192.63 195.422 192.661 195.073 192.661H86.901C86.5521 192.661 86.2031 192.63 85.8594 192.562C85.5104 192.489 85.1771 192.39 84.8542 192.255C84.526 192.119 84.2188 191.953 83.9271 191.76C83.6354 191.562 83.3646 191.338 83.1146 191.093C82.8646 190.843 82.6406 190.573 82.4479 190.281C82.25 189.984 82.0885 189.677 81.9531 189.354C81.8177 189.026 81.7135 188.692 81.6458 188.343C81.5781 188 81.5469 187.651 81.5469 187.297V176.869C81.5469 176.515 81.5781 176.166 81.6458 175.823C81.7135 175.479 81.8177 175.14 81.9531 174.817C82.0885 174.489 82.25 174.182 82.4479 173.89C82.6406 173.599 82.8646 173.328 83.1146 173.078C83.3646 172.828 83.6354 172.604 83.9271 172.411C84.2188 172.213 84.526 172.047 84.8542 171.916C85.1771 171.781 85.5104 171.677 85.8594 171.609C86.2031 171.541 86.5521 171.505 86.901 171.505Z" fill="#C70000"/>
<path d="M86.6302 175.458H140.109C140.458 175.458 140.755 175.583 141.005 175.833C141.25 176.078 141.375 176.38 141.375 176.729V179.203C141.375 179.552 141.25 179.849 141.005 180.099C140.755 180.343 140.458 180.468 140.109 180.468H86.6302C86.276 180.468 85.9792 180.343 85.7292 180.099C85.4844 179.849 85.3594 179.552 85.3594 179.203V176.729C85.3594 176.38 85.4844 176.078 85.7292 175.833C85.9792 175.583 86.276 175.458 86.6302 175.458Z" fill="white" fill-opacity="0.1"/>
<path d="M146.51 175.458H154.542C154.891 175.458 155.193 175.583 155.438 175.833C155.688 176.078 155.813 176.38 155.813 176.729V179.203C155.813 179.552 155.688 179.849 155.438 180.099C155.193 180.343 154.891 180.468 154.542 180.468H146.51C146.162 180.468 145.865 180.343 145.615 180.099C145.37 179.849 145.245 179.552 145.245 179.203V176.729C145.245 176.38 145.37 176.078 145.615 175.833C145.865 175.583 146.162 175.458 146.51 175.458Z" fill="white" fill-opacity="0.1"/>
<path d="M118.068 62.1247C117.974 61.9163 117.906 61.7028 117.859 61.4788C117.76 60.8903 118.016 60.2809 118.406 59.8278C118.818 59.3903 119.281 59.0205 119.802 58.7184L122.25 57.1299C121.62 57.5413 121.276 59.9788 121.109 60.6872C120.818 61.9372 120.635 63.2028 120.563 64.484C120.521 65.1611 120.859 67.7393 119.839 66.5153C118.99 65.4788 118.573 63.3799 118.068 62.1247Z" fill="#55C5FF"/>
<path d="M121.469 57.958C121.25 58.6611 121.083 59.3747 120.964 60.0986C120.917 60.3174 120.88 60.5049 120.854 60.6299C120.563 61.8955 120.38 63.1715 120.302 64.4684C120.292 64.6195 120.302 64.8382 120.302 65.0934C120.318 65.4632 120.344 66.2757 120.245 66.5413C120.167 66.484 120.104 66.4163 120.042 66.3382C119.875 66.1299 119.734 65.9059 119.615 65.6611C119.63 65.3226 119.615 64.9007 119.615 64.6663C119.615 64.432 119.599 64.1924 119.615 64.0413C119.693 62.7497 119.875 61.4684 120.167 60.208C120.193 60.0778 120.229 59.8903 120.271 59.6715C120.344 59.3018 120.417 58.9372 120.495 58.5934L121.469 57.958Z" fill="black" fill-opacity="0.1"/>
<path d="M111.401 57.1042C111.073 57.2656 110.724 57.3385 110.359 57.3177C109.995 57.2969 109.656 57.1875 109.349 56.9844C108.724 56.5677 108.328 55.9896 108.151 55.2552C108.068 54.9792 108.057 54.6979 108.12 54.4115C108.234 53.9792 108.594 53.6615 108.932 53.375L111.203 51.4531C112.031 52.5156 112.167 53.9375 112.656 55.1927C113.281 56.7865 114.458 58.0833 115.516 59.4219C115.594 59.5052 115.641 59.599 115.651 59.7083C115.625 60.4115 113.714 60.3438 113.281 60.0469C112.953 59.8229 111.432 57.0885 111.401 57.1042Z" fill="#55C5FF"/>
<path d="M112.411 55.2913C112.943 56.6455 113.865 57.8018 114.76 58.9111C114.943 59.1403 115.125 59.3643 115.307 59.5882C115.339 59.6247 115.359 59.6611 115.38 59.7028C115.38 59.7132 115.38 59.7601 115.286 59.8174C114.854 60.0934 113.677 59.9893 113.427 59.8278C113.339 59.7393 113.26 59.6403 113.198 59.5309C113.651 59.5934 114.292 59.5778 114.583 59.3955C114.677 59.333 114.677 59.2913 114.682 59.2757C114.661 59.234 114.635 59.1976 114.604 59.1611C114.427 58.9372 114.24 58.708 114.063 58.484C113.161 57.3747 112.24 56.2236 111.708 54.8643C111.536 54.432 111.411 53.9788 111.286 53.5413C111.161 53.057 111.005 52.5882 110.818 52.1247L111.146 51.8486C111.552 52.4632 111.76 53.2028 111.979 53.9684C112.104 54.4059 112.24 54.8538 112.411 55.2913Z" fill="black" fill-opacity="0.1"/>
<path d="M114.016 62.9165C114.703 62.9061 115.589 62.9165 115.833 63.5623C115.891 63.7655 115.912 63.9686 115.896 64.1769C115.87 65.6144 116.167 66.979 116.787 68.2707C116.974 68.6613 117.198 69.104 117.042 69.5103C116.865 69.9842 116.287 70.1405 115.787 70.2342L106.432 71.9738C105.839 69.6248 108.401 67.4478 108.104 65.0363C107.984 64.0311 107.375 63.1561 107.12 62.1769C106.781 60.854 107.016 59.4009 106.135 58.255C107.297 57.5988 108.5 60.4686 109.271 61.1353C110.63 62.3175 112.214 62.9113 114.016 62.9165Z" fill="#55C5FF"/>
<path d="M115.583 63.6561C115.625 63.8123 115.641 63.9686 115.625 64.13V64.1717C115.604 65.6509 115.911 67.0571 116.547 68.3905L116.563 68.4217C116.734 68.7707 116.901 69.1248 116.797 69.4165C116.745 69.5415 116.656 69.6405 116.536 69.7082C116.286 69.8436 116.021 69.9321 115.74 69.9738L106.641 71.6665C106.615 71.4842 106.604 71.3019 106.615 71.1144L115.047 69.5467C115.328 69.505 115.594 69.4217 115.849 69.2863C115.964 69.2186 116.052 69.1196 116.104 68.9894C116.214 68.703 116.036 68.3436 115.87 67.9946L115.854 67.9634C115.219 66.63 114.911 65.2238 114.932 63.7446V63.703C114.948 63.5415 114.932 63.3853 114.891 63.229C115.224 63.2811 115.49 63.4009 115.583 63.6561Z" fill="black" fill-opacity="0.1"/>
<path d="M104.781 61.2188L102.953 61.5729C101.094 61.9375 99.1876 62.2969 97.3074 62.0365C98.1355 63 99.1095 63.7865 100.224 64.3906C100.51 64.5417 100.797 64.6823 101.073 64.8594C101.682 65.2656 101.974 66.026 102.526 66.4219C103.234 66.9323 103.229 66.4844 103.526 65.7083C104.068 64.2448 104.484 62.75 104.781 61.2188Z" fill="#55C5FF"/>
<path d="M104.443 61.5571C104.151 62.9373 103.76 64.2915 103.266 65.6144C103.224 65.7394 103.188 65.8488 103.151 65.953C103.109 66.104 103.052 66.2446 102.979 66.38C102.87 66.3436 102.771 66.2915 102.677 66.2134C102.547 66.1144 102.432 65.9998 102.328 65.8748C102.375 65.7863 102.422 65.6405 102.464 65.5207C102.505 65.4009 102.536 65.3071 102.578 65.1821C103.005 64.0467 103.349 62.8905 103.625 61.7082L104.443 61.5571Z" fill="black" fill-opacity="0.1"/>
<path d="M116.146 72.9896C116.651 72.8646 117.234 72.4896 117.625 72.8334C117.932 73.0938 117.844 73.5834 117.724 73.9688C117.552 74.5157 117.359 75.0573 117.146 75.5938C117.042 75.9271 116.875 76.2188 116.641 76.4792C116.271 76.8073 115.833 76.9479 115.339 76.9011C114.87 76.8542 114.417 76.7396 113.974 76.5625C112.901 76.1927 109.693 75.4636 111.141 73.6407C112.443 72.0052 114.599 73.3698 116.146 72.9896Z" fill="#55C5FF"/>
<path d="M117.469 73.8853C117.297 74.4269 117.104 74.9686 116.901 75.4998C116.807 75.7915 116.662 76.0519 116.458 76.2863C116.406 76.3384 116.349 76.3853 116.292 76.4217C116.005 76.5936 115.693 76.6613 115.365 76.6353C114.917 76.5884 114.49 76.479 114.073 76.3175C113.953 76.2759 113.813 76.229 113.651 76.1821C113.026 75.9842 111.99 75.6561 111.432 75.1873C111.927 75.4113 112.432 75.5988 112.953 75.755C113.125 75.8019 113.26 75.8488 113.375 75.8905C113.792 76.0571 114.224 76.1613 114.667 76.2082C115 76.2342 115.307 76.1665 115.594 75.9998C115.656 75.9582 115.708 75.9113 115.76 75.8592C115.964 75.63 116.109 75.3644 116.203 75.0728C116.406 74.5467 116.599 74.005 116.771 73.4634C116.818 73.3228 116.849 73.1769 116.865 73.0311C117.135 72.9478 117.318 72.9217 117.448 73.0311C117.578 73.1353 117.604 73.4478 117.469 73.8853Z" fill="black" fill-opacity="0.1"/>
<path d="M179 45.8434C178.771 45.807 178.552 45.7549 178.344 45.6715C177.792 45.4424 177.411 44.9059 177.229 44.3382C177.073 43.7601 177.005 43.1663 177.026 42.5622L176.969 39.6455C176.984 40.4007 178.87 41.9788 179.391 42.4945C180.297 43.4007 181.271 44.2236 182.318 44.9684C182.875 45.359 185.24 46.432 183.656 46.6507C182.333 46.8278 180.333 46.0674 179 45.8434Z" fill="#80CB19"/>
<path d="M177.255 40.75C177.74 41.3073 178.255 41.8281 178.807 42.3177C178.974 42.4687 179.109 42.599 179.198 42.6875C180.12 43.6042 181.104 44.4323 182.167 45.1771C182.286 45.2656 182.479 45.375 182.703 45.5C183.021 45.6823 183.734 46.0938 183.896 46.3177C183.807 46.349 183.714 46.3698 183.62 46.3802C183.354 46.4063 183.089 46.4063 182.823 46.3802C182.542 46.1875 182.177 45.9792 181.974 45.8594C181.776 45.7448 181.563 45.625 181.443 45.5365C180.385 44.7917 179.396 43.9583 178.479 43.0469C178.385 42.9531 178.245 42.8229 178.083 42.6771C177.802 42.4167 177.531 42.1667 177.281 41.9167L177.255 40.75Z" fill="black" fill-opacity="0.1"/>
<path d="M171.224 48.8591C171.188 49.2237 171.063 49.557 170.854 49.8591C170.641 50.156 170.37 50.3851 170.037 50.5414C169.354 50.8539 168.656 50.8851 167.943 50.6455C167.656 50.5726 167.412 50.432 167.198 50.2289C166.896 49.9008 166.813 49.432 166.75 48.9893L166.323 46.0466C167.656 45.906 168.938 46.5362 170.26 46.781C171.938 47.0935 173.662 46.7705 175.359 46.583C175.469 46.557 175.573 46.5674 175.672 46.6195C176.255 47.0101 175.188 48.6039 174.714 48.8122C174.349 48.9789 171.224 48.8226 171.224 48.8591Z" fill="#80CB19"/>
<path d="M170.214 47.0467C171.646 47.3124 173.109 47.1301 174.526 46.9582C174.818 46.9217 175.104 46.8853 175.391 46.854C175.438 46.8436 175.484 46.8436 175.526 46.854C175.537 46.854 175.573 46.8801 175.573 46.9946C175.573 47.4998 174.88 48.453 174.609 48.5728C174.484 48.5988 174.359 48.6144 174.234 48.6144C174.526 48.2603 174.854 47.7082 174.849 47.3592C174.849 47.2499 174.813 47.2238 174.802 47.2134C174.755 47.2082 174.708 47.2082 174.667 47.2134C174.375 47.2499 174.089 47.2811 173.797 47.3176C172.38 47.4946 170.927 47.6769 169.484 47.4113C169.031 47.328 168.578 47.1978 168.13 47.0728C167.656 46.9269 167.172 46.8071 166.682 46.7238L166.62 46.2967C167.359 46.2811 168.089 46.4894 168.859 46.7082C169.307 46.828 169.76 46.9634 170.214 47.0467Z" fill="black" fill-opacity="0.1"/>
<path d="M177.542 49.7083C177.896 49.1145 178.37 48.3645 179.042 48.4999C179.245 48.5572 179.432 48.6458 179.599 48.7708C180.807 49.5468 182.12 50.0155 183.547 50.1718C183.979 50.2187 184.469 50.2603 184.729 50.6093C185.042 51.0103 184.865 51.5833 184.682 52.0572L181.224 60.9322C178.922 60.1978 178.417 56.8697 176.224 55.8541C175.307 55.427 174.245 55.4843 173.281 55.1874C171.974 54.7812 170.87 53.8124 169.432 53.9583C169.49 52.6197 172.557 53.1145 173.531 52.8072C175.25 52.2708 176.589 51.2395 177.542 49.7083Z" fill="#80CB19"/>
<path d="M178.99 48.7602C179.146 48.8071 179.287 48.88 179.417 48.9738L179.448 48.9998C180.688 49.7967 182.042 50.2759 183.505 50.4373H183.542C183.927 50.479 184.323 50.5207 184.51 50.7654C184.589 50.88 184.63 51.005 184.625 51.1404C184.604 51.4217 184.542 51.6977 184.427 51.9582L181.063 60.5884C180.896 60.5154 180.734 60.4269 180.583 60.3227L183.698 52.3227C183.813 52.0623 183.88 51.7915 183.896 51.505C183.901 51.3696 183.865 51.2446 183.781 51.1352C183.594 50.8904 183.198 50.8436 182.813 50.8071H182.781C181.318 50.6457 179.964 50.1665 178.724 49.3644L178.688 49.3436C178.557 49.2498 178.417 49.1769 178.26 49.13C178.484 48.8696 178.724 48.7082 178.99 48.7602Z" fill="black" fill-opacity="0.1"/>
<path d="M171.219 56.6611L170.557 58.4059C169.885 60.182 169.193 61.9945 167.979 63.4528C169.234 63.2549 170.412 62.8434 171.516 62.2132C171.792 62.0413 172.063 61.8747 172.359 61.7445C173.037 61.4372 173.828 61.5934 174.453 61.333C175.26 60.9945 174.88 60.7653 174.37 60.1038C173.417 58.8695 172.37 57.7236 171.219 56.6611Z" fill="#80CB19"/>
<path d="M171.328 57.1299C172.349 58.1038 173.292 59.1507 174.156 60.2705C174.234 60.3695 174.307 60.458 174.375 60.5413C174.479 60.6559 174.573 60.7809 174.646 60.9163C174.557 60.9945 174.458 61.0465 174.344 61.083C174.193 61.1455 174.042 61.182 173.88 61.2028C173.823 61.1247 173.729 61.0101 173.651 60.9059C173.568 60.807 173.505 60.7393 173.432 60.6351C172.693 59.6768 171.891 58.7705 171.031 57.9163L171.328 57.1299Z" fill="black" fill-opacity="0.1"/>
<path d="M187.203 53.2032C187.375 52.7084 187.359 52.0209 187.854 51.8595C188.24 51.7397 188.609 52.073 188.87 52.3803C189.245 52.8178 189.604 53.2657 189.948 53.7345C190.172 53.9949 190.333 54.297 190.432 54.6251C190.516 55.1199 190.406 55.5626 190.104 55.9584C189.818 56.3334 189.484 56.6616 189.104 56.9428C188.224 57.6616 185.911 60.0053 185.13 57.8126C184.422 55.8282 186.714 54.724 187.203 53.2032Z" fill="#80CB19"/>
<path d="M188.667 52.5518C189.036 52.9841 189.391 53.432 189.734 53.8852C189.938 54.1195 190.078 54.3852 190.172 54.6768C190.188 54.7498 190.198 54.8227 190.198 54.8956C190.188 55.2289 190.083 55.531 189.88 55.8018C189.609 56.156 189.292 56.4633 188.932 56.7289C188.833 56.807 188.719 56.9008 188.594 57.0206C188.094 57.4425 187.271 58.156 186.583 58.3852C187.036 58.0779 187.464 57.7445 187.865 57.38C187.995 57.2706 188.109 57.1768 188.203 57.0935C188.563 56.8279 188.88 56.5206 189.156 56.1664C189.354 55.9008 189.458 55.5987 189.464 55.2654C189.464 55.1925 189.458 55.1195 189.443 55.0466C189.349 54.755 189.203 54.4893 189 54.255C188.667 53.8018 188.302 53.3539 187.938 52.9268C187.844 52.807 187.734 52.7081 187.62 52.6143C187.688 52.3435 187.771 52.1768 187.932 52.1195C188.125 52.057 188.37 52.2029 188.667 52.5518Z" fill="black" fill-opacity="0.1"/>
<path d="M132.146 76.0988C131.922 76.0675 131.703 76.0103 131.49 75.9269C130.938 75.703 130.557 75.1665 130.375 74.5936C130.224 74.0103 130.156 73.4217 130.172 72.8175L130.115 69.9009C130.13 70.6561 132.021 72.2342 132.536 72.7498C133.443 73.6509 134.422 74.4738 135.469 75.2082C136.026 75.604 138.391 76.6717 136.807 76.9009C135.479 77.0832 133.479 76.328 132.146 76.0988Z" fill="#80CB19"/>
<path d="M130.406 71.0103C130.885 71.5623 131.406 72.0884 131.953 72.5728C132.125 72.7238 132.26 72.854 132.349 72.9478C133.266 73.8592 134.255 74.6873 135.312 75.4321C135.438 75.5207 135.625 75.63 135.849 75.755C136.167 75.9373 136.88 76.3488 137.047 76.5675C136.958 76.604 136.865 76.6248 136.771 76.6353C136.505 76.6613 136.234 76.6613 135.969 76.6353C135.693 76.4373 135.328 76.229 135.125 76.1144C134.922 75.9946 134.714 75.8748 134.589 75.7915C133.531 75.0415 132.547 74.2134 131.625 73.3019C131.531 73.2082 131.391 73.078 131.229 72.9269C130.953 72.6717 130.677 72.4217 130.427 72.1665L130.406 71.0103Z" fill="black" fill-opacity="0.1"/>
<path d="M124.37 79.125C124.333 79.4896 124.214 79.823 124 80.1198C123.792 80.4219 123.521 80.6459 123.188 80.8021C122.5 81.1146 121.802 81.1511 121.089 80.9115C120.807 80.8334 120.557 80.6927 120.349 80.4896C120.042 80.1667 119.964 79.6927 119.901 79.25L119.469 76.3073C120.802 76.1667 122.089 76.7969 123.406 77.0417C125.089 77.3542 126.807 77.0313 128.51 76.8438C128.615 76.8177 128.719 76.8334 128.818 76.8802C129.401 77.2709 128.339 78.8646 127.865 79.073C127.495 79.2344 124.375 79.0834 124.37 79.125Z" fill="#80CB19"/>
<path d="M123.359 77.3071C124.792 77.5727 126.26 77.3904 127.672 77.2133C127.964 77.1769 128.25 77.1404 128.542 77.1092C128.583 77.1039 128.63 77.1039 128.672 77.1092C128.688 77.1092 128.724 77.1404 128.724 77.2498C128.724 77.7602 128.026 78.7133 127.76 78.8279C127.635 78.8539 127.51 78.8696 127.38 78.8696C127.677 78.5206 128 77.9633 128 77.6144C128 77.505 127.958 77.4842 127.948 77.4737C127.901 77.4685 127.859 77.4685 127.813 77.4737L126.948 77.5779C125.531 77.7498 124.073 77.9373 122.635 77.6717C122.177 77.5883 121.724 77.4581 121.281 77.3331C120.807 77.1873 120.323 77.0675 119.833 76.9789L119.771 76.5571C120.51 76.5362 121.24 76.7498 122.005 76.9685C122.453 77.0935 122.906 77.2185 123.359 77.3071Z" fill="black" fill-opacity="0.1"/>
<path d="M140.354 83.4633C140.521 82.9633 140.505 82.2758 141.005 82.1195C141.391 81.9997 141.755 82.3279 142.016 82.6351C142.391 83.0727 142.75 83.5258 143.094 83.9893C143.318 84.2549 143.479 84.5518 143.578 84.8851C143.662 85.3747 143.557 85.8174 143.255 86.2133C142.964 86.5883 142.63 86.9164 142.25 87.1976C141.37 87.9164 139.057 90.2601 138.276 88.0674C137.573 86.0883 139.865 84.9789 140.354 83.4633Z" fill="#80CB19"/>
<path d="M141.813 82.8123C142.182 83.2446 142.542 83.6925 142.885 84.1456C143.083 84.3748 143.229 84.6404 143.318 84.9373C143.333 85.005 143.344 85.0779 143.344 85.156C143.339 85.4842 143.234 85.7862 143.036 86.0519C142.76 86.406 142.443 86.7185 142.083 86.9842C141.99 87.0623 141.875 87.1508 141.745 87.2706C141.25 87.6977 140.427 88.406 139.74 88.6352C140.188 88.3331 140.615 87.9998 141.021 87.6352C141.146 87.5258 141.26 87.4269 141.359 87.3487C141.719 87.0779 142.036 86.7706 142.307 86.4164C142.505 86.1508 142.609 85.8487 142.62 85.5206C142.62 85.4425 142.609 85.3696 142.594 85.2967C142.505 85.005 142.354 84.7394 142.156 84.5102C141.818 84.0571 141.458 83.6039 141.089 83.1769C140.995 83.0623 140.891 82.9581 140.771 82.8644C140.844 82.5935 140.922 82.4269 141.083 82.3748C141.25 82.3227 141.526 82.4633 141.813 82.8123Z" fill="black" fill-opacity="0.1"/>
<path d="M163.063 37.6405C163.198 37.4582 163.344 37.2863 163.51 37.1353C163.969 36.7498 164.62 36.6613 165.203 36.7655C165.792 36.8957 166.344 37.1092 166.87 37.4009L169.479 38.703C168.802 38.3644 166.536 39.3123 165.839 39.5363C164.62 39.9217 163.443 40.4113 162.307 40.9946C161.698 41.3123 159.661 42.9165 160.193 41.4061C160.646 40.1457 162.245 38.7186 163.063 37.6405Z" fill="#55C5FF"/>
<path d="M168.38 38.4478C167.662 38.6196 166.964 38.8384 166.276 39.0988C166.068 39.1717 165.885 39.2394 165.766 39.2811C164.537 39.6717 163.344 40.1665 162.193 40.7603C162.057 40.828 161.875 40.9478 161.662 41.0884C161.349 41.2863 160.656 41.729 160.385 41.7759C160.396 41.6769 160.422 41.5884 160.453 41.4998C160.552 41.2498 160.672 41.0103 160.818 40.7863C161.12 40.6248 161.474 40.4009 161.672 40.2759C161.87 40.1561 162.073 40.0207 162.203 39.953C163.354 39.3592 164.547 38.8644 165.781 38.4738C165.901 38.4321 166.083 38.3696 166.287 38.2915C166.646 38.1613 166.995 38.0415 167.328 37.9321L168.38 38.4478Z" fill="black" fill-opacity="0.1"/>
<path d="M163.979 29.3436C163.672 29.1405 163.432 28.8801 163.266 28.552C163.099 28.2291 163.021 27.8801 163.036 27.5155C163.078 26.7655 163.37 26.1249 163.911 25.6041C164.109 25.3853 164.349 25.2343 164.625 25.1405C165.057 25.0207 165.51 25.1666 165.932 25.3072L168.74 26.2864C168.245 27.5364 167.094 28.3853 166.266 29.4426C165.214 30.7968 164.703 32.4686 164.083 34.0624C164.057 34.1718 164.005 34.2551 163.917 34.3228C163.302 34.6614 162.385 32.9791 162.417 32.4582C162.438 32.0624 164.01 29.3645 163.979 29.3436Z" fill="#55C5FF"/>
<path d="M166.057 29.2863C165.156 30.4373 164.641 31.8228 164.146 33.1561C164.042 33.4321 163.943 33.703 163.833 33.9738C163.823 34.0155 163.802 34.0571 163.776 34.0936C163.766 34.0936 163.724 34.1196 163.63 34.0728C163.172 33.8436 162.656 32.7759 162.677 32.4842C162.708 32.3644 162.755 32.2446 162.813 32.1353C162.979 32.5571 163.328 33.104 163.641 33.2603C163.74 33.3071 163.776 33.2863 163.786 33.2811C163.813 33.2446 163.833 33.203 163.849 33.1613C163.953 32.8905 164.057 32.6144 164.156 32.3436C164.656 31.005 165.172 29.6196 166.068 28.4686C166.354 28.104 166.677 27.7655 166.99 27.4321C167.344 27.078 167.667 26.703 167.974 26.3071L168.375 26.4478C168.052 27.1144 167.531 27.6665 166.979 28.2498C166.667 28.578 166.344 28.9217 166.057 29.2863Z" fill="black" fill-opacity="0.1"/>
<path d="M152.75 41.5259C153.115 41.8957 153.729 42.203 153.635 42.7238C153.568 43.1197 153.104 43.2915 152.708 43.3853C152.146 43.5155 151.583 43.6249 151.016 43.7238C150.682 43.7967 150.344 43.8072 150.005 43.7394C149.531 43.5884 149.188 43.2863 148.979 42.8332C148.776 42.4061 148.641 41.9582 148.568 41.4894C148.339 40.3749 147.333 37.2394 149.635 37.5572C151.708 37.8436 151.63 40.3853 152.75 41.5259Z" fill="#55C5FF"/>
<path d="M152.651 43.125C152.099 43.25 151.531 43.3594 150.974 43.4635C150.677 43.5313 150.375 43.5417 150.073 43.4844C150 43.4635 149.932 43.4375 149.865 43.4062C149.578 43.2448 149.359 43.0104 149.214 42.7135C149.026 42.3073 148.901 41.8802 148.828 41.4375C148.802 41.3177 148.771 41.1719 148.734 41.0052C148.583 40.3698 148.333 39.3125 148.448 38.5938C148.51 39.1302 148.609 39.6667 148.745 40.1927C148.781 40.3646 148.818 40.5052 148.844 40.625C148.912 41.0677 149.042 41.4948 149.229 41.901C149.37 42.1979 149.589 42.4323 149.88 42.5938C149.943 42.625 150.016 42.651 150.083 42.6719C150.385 42.724 150.688 42.7187 150.99 42.6458C151.547 42.5573 152.109 42.4427 152.662 42.3073C152.807 42.2813 152.948 42.2344 153.083 42.1719C153.292 42.3594 153.401 42.5104 153.375 42.6771C153.339 42.8698 153.094 43.0208 152.651 43.125Z" fill="black" fill-opacity="0.1"/>
<path d="M130.156 67.9477C129.224 67.9113 128.266 67.2185 128.24 66.2863C128.229 65.8227 128.438 65.3904 128.646 64.9738C130.313 61.6248 132.167 58.3748 134.203 55.229C134.443 54.8592 134.708 54.4633 135.13 54.3071C136.005 53.9685 136.875 54.906 137.089 55.8175C137.302 56.7238 137.182 57.7133 137.573 58.5623C138.313 60.1508 147.688 65.2915 151.01 65.0623C152.891 64.9321 154.656 63.7342 156.521 63.9894C157.552 64.13 164.802 68.7498 165.234 69.4946C165.537 70.0154 165.646 70.6248 165.875 71.1873C166.625 73.005 168.5 74.0467 170.25 74.9477C168.745 76.005 167.083 76.6769 165.271 76.9685C164.885 77.031 164.469 77.0831 164.182 77.3488C163.302 78.1769 164.521 79.9998 163.583 80.7602C163.109 81.1404 162.422 80.9477 161.818 81.0102C160.88 81.104 160.115 81.8696 159.745 82.7394C159.38 83.6144 159.339 84.5831 159.297 85.5258L159.078 90.7185C157.313 89.9165 145.938 81.4477 145.552 81.0727C145.167 80.6977 144.953 80.0988 144.875 79.5363C144.563 77.4477 145.51 74.9998 144.156 73.3852C143.719 72.8592 133.844 67.2394 132.906 67.1665C131.969 67.0988 131.172 67.9842 130.156 67.9477Z" fill="#80CB19"/>
<path d="M135.292 54.734C135.016 54.8382 134.802 55.1454 134.583 55.4788C134.005 56.3746 133.438 57.2861 132.896 58.2027C133.005 58.0465 133.151 57.9267 133.328 57.8486C133.516 57.7809 133.703 57.7965 133.875 57.9059C134.297 58.1715 134.568 58.5465 134.682 59.0361C134.75 59.3746 134.797 59.7236 134.818 60.0725C134.875 60.6663 134.927 61.2861 135.198 61.8694C136.016 63.635 145.547 68.8746 149.078 68.6298C149.932 68.5725 150.75 68.3069 151.542 68.0569C152.557 67.7288 153.526 67.4215 154.495 67.5517C155.37 67.6715 162.349 72.0673 162.88 72.8329C163.031 73.135 163.156 73.4423 163.245 73.7652C163.318 73.9944 163.391 74.234 163.49 74.4632C163.839 75.2809 164.354 75.9736 165.031 76.5413L165.156 76.5204L165.208 76.51C166.693 76.2757 168.078 75.7704 169.365 74.9892C167.672 74.0673 166.151 73.0361 165.464 71.3538C165.37 71.1246 165.297 70.885 165.219 70.6611C165.13 70.3329 165.005 70.0204 164.854 69.7236C164.323 68.9579 157.344 64.5621 156.469 64.4423C155.5 64.3069 154.536 64.609 153.516 64.9475C152.724 65.2027 151.906 65.4579 151.052 65.5257C147.521 65.7652 137.99 60.5309 137.172 58.76C136.901 58.1767 136.844 57.5621 136.797 56.9632C136.771 56.6142 136.724 56.2704 136.656 55.9267C136.542 55.4371 136.271 55.0621 135.849 54.7965C135.672 54.6871 135.49 54.6611 135.292 54.734Z" fill="black" fill-opacity="0.1"/>
<path d="M157.099 31.0521C157.281 31.6459 157.438 32.224 157.568 32.7813C157.698 33.3438 157.787 33.8438 157.844 34.2865C157.901 34.7292 157.917 35.0782 157.891 35.3334C157.87 35.5886 157.807 35.7344 157.703 35.7657C157.599 35.7969 157.469 35.7136 157.302 35.5157C157.141 35.3178 156.958 35.0157 156.755 34.6198C156.557 34.224 156.354 33.7553 156.146 33.2188C155.938 32.6823 155.745 32.1198 155.563 31.5261C155.38 30.9323 155.224 30.3542 155.094 29.7917C154.969 29.2344 154.875 28.7344 154.818 28.2917C154.76 27.849 154.745 27.5 154.771 27.2448C154.797 26.9896 154.859 26.8438 154.958 26.8125C155.063 26.7813 155.198 26.8646 155.359 27.0625C155.521 27.2605 155.703 27.5573 155.906 27.9584C156.109 28.3542 156.313 28.823 156.516 29.3594C156.724 29.8907 156.922 30.4584 157.099 31.0521Z" fill="#55C5FF"/>
<path d="M146.333 36.7292C146.964 34.3698 151.083 33.4635 155.828 32.3281L156.333 31.7292L155.557 30.9219C151.969 32.0208 146.365 33.5052 145.312 32.7396L144.062 35.5781L146.333 36.7292Z" fill="#55C5FF"/>
<path d="M134.365 45.328C133.891 43.453 133.333 41.5988 132.693 39.7707C134.302 38.4895 135.719 36.8488 136.922 35.177C136.12 34.6665 135.37 34.1717 134.464 33.8905C134.349 33.854 134.214 33.7967 134.203 33.677C134.193 33.5832 134.266 33.5103 134.333 33.4426L135.208 32.6353C135.016 31.9738 134.651 31.4322 134.109 31.0103C135.026 30.3697 135.938 29.5936 136.854 28.953C136.714 28.7967 136.714 28.5415 136.719 28.328C139.318 28.203 142.156 28.4582 143.938 30.3592C144.552 31.0572 145.01 31.8488 145.307 32.729C146.417 35.7134 147.219 39.4634 145 42.0415C141.708 45.854 136.661 45.3176 134.365 45.328Z" fill="#55C5FF"/>
<path d="M137.37 28.8435C138.948 28.9998 140.578 29.4737 141.729 30.6925C142.234 31.2341 142.656 31.9581 143.005 32.906C143.714 34.8071 144.063 36.4164 144.078 37.8175C144.094 39.4112 143.656 40.7393 142.781 41.755C140.682 44.1925 137.818 44.7706 135.464 44.8852C137.984 44.9268 141.948 44.8748 144.656 41.7341C145.531 40.7237 145.964 39.3904 145.948 37.7966C145.932 36.3956 145.583 34.7862 144.88 32.8904C144.526 31.9373 144.109 31.2133 143.599 30.6716C141.969 28.9321 139.328 28.7185 137.297 28.7654L137.37 28.8435Z" fill="black" fill-opacity="0.1"/>
<path d="M130.792 28.0625L136.203 24.6667L132.682 19.0469L127.271 22.4323C126.542 22.8906 125.745 23.1406 124.885 23.1719C124.026 23.2083 123.214 23.0313 122.448 22.6354C121.161 21.9688 119.844 21.8437 118.698 22.5625L92.1146 39.2448C89.2292 41.0573 97.474 54.2188 100.359 52.4115L126.943 35.7292C128.089 35.0052 128.547 33.7656 128.51 32.3177C128.49 31.4531 128.682 30.6458 129.089 29.8854C129.495 29.1302 130.063 28.5208 130.792 28.0625Z" fill="#80CB19"/>
<path d="M99.9324 34.8851C101.537 40.2497 104.047 44.5413 107.698 47.2757L119.005 40.1768C115.359 37.0882 112.896 32.833 111.245 27.7861L99.9324 34.8851Z" fill="#FFBF2A"/>
<path d="M128.052 32.3385C128.031 31.3958 128.245 30.5052 128.688 29.6771C129.135 28.8438 129.755 28.1771 130.547 27.6771L135.573 24.526L134.125 22.2188L129.661 25.0208C128.865 25.5208 128.245 26.1875 127.802 27.0208C127.354 27.849 127.146 28.7396 127.167 29.6771C127.203 31.0938 126.745 32.1042 125.818 32.6927L99.2344 49.375C98.2396 50.0052 95.75 47.7708 93.573 44.2969C92.9948 43.3854 92.4844 42.4323 92.0365 41.4479C92.2865 42.8438 93.1407 44.849 94.4636 46.9531C96.6355 50.4323 99.125 52.6615 100.12 52.0312L126.703 35.349C127.635 34.7604 128.089 33.75 128.052 32.3385Z" fill="black" fill-opacity="0.1"/>
<path d="M131.484 17.7551L132.167 17.3281C132.432 17.1614 132.714 17.1145 133.021 17.1822C133.328 17.2551 133.563 17.4218 133.729 17.6874L137.922 24.3801C138.083 24.6458 138.135 24.927 138.063 25.2343C137.995 25.5416 137.828 25.776 137.563 25.9426L136.88 26.3697C136.615 26.5364 136.333 26.5833 136.026 26.5156C135.724 26.4426 135.484 26.276 135.318 26.0103L131.13 19.3176C130.964 19.052 130.912 18.7656 130.984 18.4635C131.052 18.1562 131.219 17.9218 131.484 17.7551Z" fill="#80CB19"/>
<path d="M131.109 99.3696V116.521H120.635L140.984 139.39L161.333 116.521H150.865V99.3696H131.109Z" fill="#C70000"/>
</g>
<defs>
<linearGradient id="paint0_linear_85_88" x1="141.667" y1="47.0172" x2="141.667" y2="327.779" gradientUnits="userSpaceOnUse">
<stop stop-color="#9BFFF2"/>
<stop offset="0.00390625" stop-color="#9CFFF2"/>
<stop offset="0.0078125" stop-color="#9CFFF2"/>
<stop offset="0.0117188" stop-color="#9DFFF1"/>
<stop offset="0.015625" stop-color="#9EFFF1"/>
<stop offset="0.0195312" stop-color="#9FFFF1"/>
<stop offset="0.0234375" stop-color="#9FFFF1"/>
<stop offset="0.0273438" stop-color="#A0FFF1"/>
<stop offset="0.03125" stop-color="#A1FFF0"/>
<stop offset="0.0351562" stop-color="#A1FFF0"/>
<stop offset="0.0390625" stop-color="#A2FFF0"/>
<stop offset="0.0429688" stop-color="#A3FFF0"/>
<stop offset="0.046875" stop-color="#A4FFEF"/>
<stop offset="0.0507812" stop-color="#A4FFEF"/>
<stop offset="0.0546875" stop-color="#A5FFEF"/>
<stop offset="0.0585938" stop-color="#A6FFEF"/>
<stop offset="0.0625" stop-color="#A6FFEF"/>
<stop offset="0.0664062" stop-color="#A7FFEE"/>
<stop offset="0.0703125" stop-color="#A8FFEE"/>
<stop offset="0.0742188" stop-color="#A9FFEE"/>
<stop offset="0.078125" stop-color="#A9FFEE"/>
<stop offset="0.0820312" stop-color="#AAFFEE"/>
<stop offset="0.0859375" stop-color="#ABFEED"/>
<stop offset="0.0898438" stop-color="#ABFEED"/>
<stop offset="0.09375" stop-color="#ACFEED"/>
<stop offset="0.0976562" stop-color="#ADFEED"/>
<stop offset="0.101562" stop-color="#AEFEED"/>
<stop offset="0.105469" stop-color="#AEFEEC"/>
<stop offset="0.109375" stop-color="#AFFEEC"/>
<stop offset="0.113281" stop-color="#B0FEEC"/>
<stop offset="0.117188" stop-color="#B0FEEC"/>
<stop offset="0.121094" stop-color="#B1FEEB"/>
<stop offset="0.125" stop-color="#B2FEEB"/>
<stop offset="0.128906" stop-color="#B3FEEB"/>
<stop offset="0.132812" stop-color="#B3FEEB"/>
<stop offset="0.136719" stop-color="#B4FEEB"/>
<stop offset="0.140625" stop-color="#B5FEEA"/>
<stop offset="0.144531" stop-color="#B5FEEA"/>
<stop offset="0.148438" stop-color="#B6FEEA"/>
<stop offset="0.152344" stop-color="#B7FEEA"/>
<stop offset="0.15625" stop-color="#B8FEEA"/>
<stop offset="0.160156" stop-color="#B8FEE9"/>
<stop offset="0.164062" stop-color="#B9FEE9"/>
<stop offset="0.167969" stop-color="#BAFEE9"/>
<stop offset="0.171875" stop-color="#BAFEE9"/>
<stop offset="0.175781" stop-color="#BBFEE8"/>
<stop offset="0.179688" stop-color="#BCFEE8"/>
<stop offset="0.183594" stop-color="#BDFEE8"/>
<stop offset="0.1875" stop-color="#BDFEE8"/>
<stop offset="0.191406" stop-color="#BEFEE8"/>
<stop offset="0.195312" stop-color="#BFFEE7"/>
<stop offset="0.199219" stop-color="#BFFEE7"/>
<stop offset="0.203125" stop-color="#C0FEE7"/>
<stop offset="0.207031" stop-color="#C1FEE7"/>
<stop offset="0.210938" stop-color="#C2FEE7"/>
<stop offset="0.214844" stop-color="#C2FEE6"/>
<stop offset="0.21875" stop-color="#C3FEE6"/>
<stop offset="0.222656" stop-color="#C4FEE6"/>
<stop offset="0.226562" stop-color="#C5FEE6"/>
<stop offset="0.230469" stop-color="#C5FEE6"/>
<stop offset="0.234375" stop-color="#C6FEE5"/>
<stop offset="0.238281" stop-color="#C7FEE5"/>
<stop offset="0.242188" stop-color="#C7FEE5"/>
<stop offset="0.246094" stop-color="#C8FEE5"/>
<stop offset="0.25" stop-color="#C9FEE4"/>
<stop offset="0.253906" stop-color="#CAFDE4"/>
<stop offset="0.257812" stop-color="#CAFDE4"/>
<stop offset="0.261719" stop-color="#CBFDE4"/>
<stop offset="0.265625" stop-color="#CCFDE4"/>
<stop offset="0.269531" stop-color="#CCFDE3"/>
<stop offset="0.273438" stop-color="#CDFDE3"/>
<stop offset="0.277344" stop-color="#CEFDE3"/>
<stop offset="0.28125" stop-color="#CFFDE3"/>
<stop offset="0.285156" stop-color="#CFFDE3"/>
<stop offset="0.289062" stop-color="#D0FDE2"/>
<stop offset="0.292969" stop-color="#D1FDE2"/>
<stop offset="0.296875" stop-color="#D1FDE2"/>
<stop offset="0.300781" stop-color="#D2FDE2"/>
<stop offset="0.304688" stop-color="#D3FDE2"/>
<stop offset="0.308594" stop-color="#D4FDE1"/>
<stop offset="0.3125" stop-color="#D4FDE1"/>
<stop offset="0.316406" stop-color="#D5FDE1"/>
<stop offset="0.320312" stop-color="#D6FDE1"/>
<stop offset="0.324219" stop-color="#D6FDE0"/>
<stop offset="0.328125" stop-color="#D7FDE0"/>
<stop offset="0.332031" stop-color="#D8FDE0"/>
<stop offset="0.335938" stop-color="#D8FDE0"/>
<stop offset="0.34375" stop-color="#D8FDE0"/>
<stop offset="0.351562" stop-color="#D9FDDF"/>
<stop offset="0.359375" stop-color="#D9FDDF"/>
<stop offset="0.367188" stop-color="#DAFDDF"/>
<stop offset="0.375" stop-color="#DBFDDF"/>
<stop offset="0.382812" stop-color="#DBFDDE"/>
<stop offset="0.390625" stop-color="#DCFDDE"/>
<stop offset="0.398438" stop-color="#DCFDDE"/>
<stop offset="0.40625" stop-color="#DDFDDD"/>
<stop offset="0.414062" stop-color="#DDFDDD"/>
<stop offset="0.421875" stop-color="#DEFEDD"/>
<stop offset="0.429688" stop-color="#DEFEDC"/>
<stop offset="0.4375" stop-color="#DFFEDC"/>
<stop offset="0.445312" stop-color="#DFFEDC"/>
<stop offset="0.453125" stop-color="#E0FEDB"/>
<stop offset="0.460938" stop-color="#E0FEDB"/>
<stop offset="0.46875" stop-color="#E1FEDB"/>
<stop offset="0.476562" stop-color="#E1FEDB"/>
<stop offset="0.484375" stop-color="#E2FEDA"/>
<stop offset="0.492188" stop-color="#E2FEDA"/>
<stop offset="0.5" stop-color="#E3FEDA"/>
<stop offset="0.507812" stop-color="#E3FED9"/>
<stop offset="0.515625" stop-color="#E4FED9"/>
<stop offset="0.523438" stop-color="#E4FED9"/>
<stop offset="0.53125" stop-color="#E5FED8"/>
<stop offset="0.539062" stop-color="#E5FED8"/>
<stop offset="0.546875" stop-color="#E6FED8"/>
<stop offset="0.554688" stop-color="#E6FED8"/>
<stop offset="0.5625" stop-color="#E7FED7"/>
<stop offset="0.570312" stop-color="#E7FED7"/>
<stop offset="0.578125" stop-color="#E8FED7"/>
<stop offset="0.585938" stop-color="#E8FED6"/>
<stop offset="0.59375" stop-color="#E9FFD6"/>
<stop offset="0.601562" stop-color="#E9FFD6"/>
<stop offset="0.609375" stop-color="#EAFFD5"/>
<stop offset="0.617188" stop-color="#EAFFD5"/>
<stop offset="0.625" stop-color="#EBFFD5"/>
<stop offset="0.632812" stop-color="#EBFFD4"/>
<stop offset="0.640625" stop-color="#ECFFD4"/>
<stop offset="0.648438" stop-color="#EDFFD4"/>
<stop offset="0.65625" stop-color="#EDFFD4"/>
<stop offset="0.671875" stop-color="#EEFFD3"/>
<stop offset="0.6875" stop-color="#EFFFD2"/>
<stop offset="0.703125" stop-color="#EFFFD2"/>
<stop offset="0.71875" stop-color="#F0FFD1"/>
<stop offset="0.734375" stop-color="#F1FFD0"/>
<stop offset="0.75" stop-color="#F2FFCF"/>
<stop offset="0.765625" stop-color="#F2FECF"/>
<stop offset="0.78125" stop-color="#F3FECE"/>
<stop offset="0.796875" stop-color="#F4FECD"/>
<stop offset="0.8125" stop-color="#F5FECC"/>
<stop offset="0.828125" stop-color="#F5FECC"/>
<stop offset="0.84375" stop-color="#F6FECB"/>
<stop offset="0.859375" stop-color="#F7FECA"/>
<stop offset="0.875" stop-color="#F8FEC9"/>
<stop offset="0.890625" stop-color="#F8FEC9"/>
<stop offset="0.90625" stop-color="#F9FEC8"/>
<stop offset="0.921875" stop-color="#FAFEC7"/>
<stop offset="0.9375" stop-color="#FBFDC6"/>
<stop offset="0.953125" stop-color="#FBFDC6"/>
<stop offset="0.96875" stop-color="#FCFDC5"/>
<stop offset="0.984375" stop-color="#FDFDC4"/>
<stop offset="1" stop-color="#FEFDC3"/>
</linearGradient>
</defs>
</svg>
